<svg width="20" height="20" viewBox="0 0 20 20" fill="none" xmlns="http://www.w3.org/2000/svg">
<g id="icon">
<path id="Vector" d="M19.9425 9.23675C19.9133 9.17256 19.2075 7.64587 17.6383 6.11594C15.5475 4.07737 12.9067 3 10 3C7.09333 3 4.4525 4.07737 2.36166 6.11594C0.792493 7.64587 0.0833254 9.175 0.0574921 9.23675C0.0195863 9.31988 0 9.40984 0 9.50081C0 9.59179 0.0195863 9.68175 0.0574921 9.76487C0.0866587 9.82906 0.792493 11.3549 2.36166 12.8849C4.4525 14.9226 7.09333 16 10 16C12.9067 16 15.5475 14.9226 17.6383 12.8849C19.2075 11.3549 19.9133 9.82906 19.9425 9.76487C19.9804 9.68175 20 9.59179 20 9.50081C20 9.40984 19.9804 9.31988 19.9425 9.23675ZM10 14.7C7.435 14.7 5.19416 13.7908 3.33916 11.9984C2.57803 11.2604 1.93048 10.4189 1.41666 9.5C1.93034 8.58101 2.57791 7.73946 3.33916 7.00156C5.19416 5.20919 7.435 4.3 10 4.3C12.565 4.3 14.8058 5.20919 16.6608 7.00156C17.4235 7.73928 18.0724 8.58083 18.5875 9.5C17.9867 10.5936 15.3692 14.7 10 14.7ZM10 5.6C9.20887 5.6 8.43551 5.82873 7.77772 6.25727C7.11992 6.68581 6.60723 7.2949 6.30448 8.00753C6.00173 8.72017 5.92251 9.50433 6.07686 10.2609C6.2312 11.0174 6.61216 11.7123 7.17157 12.2577C7.73098 12.8031 8.44371 13.1746 9.21964 13.3251C9.99556 13.4755 10.7998 13.3983 11.5307 13.1031C12.2616 12.8079 12.8864 12.3081 13.3259 11.6667C13.7654 11.0254 14 10.2713 14 9.5C13.9989 8.46599 13.5771 7.47463 12.8272 6.74347C12.0773 6.01231 11.0605 5.60108 10 5.6ZM10 12.1C9.47258 12.1 8.95701 11.9475 8.51848 11.6618C8.07995 11.3761 7.73815 10.9701 7.53632 10.495C7.33449 10.0199 7.28168 9.49712 7.38457 8.99276C7.48746 8.48841 7.74144 8.02514 8.11438 7.66152C8.48732 7.29791 8.96248 7.05028 9.47976 6.94996C9.99704 6.84964 10.5332 6.90112 11.0205 7.09791C11.5078 7.2947 11.9242 7.62795 12.2173 8.05552C12.5103 8.48309 12.6667 8.98577 12.6667 9.5C12.6667 10.1896 12.3857 10.8509 11.8856 11.3385C11.3855 11.8261 10.7072 12.1 10 12.1Z" fill="#676767"/>
</g>
</svg>
