<svg width="17" height="18" viewBox="0 0 17 18" fill="none" xmlns="http://www.w3.org/2000/svg">
<g id="checkbox">
<rect y="0.5" width="17" height="17" rx="1" fill="#F79E1B"/>
<rect id="Rectangle 952" x="0.5" y="1" width="16" height="16" rx="0.5" stroke="#F79E1B"/>
<path id="Vector" d="M14.4467 4.16228C14.3643 4.07914 14.2661 4.01315 14.158 3.96812C14.0499 3.92309 13.934 3.8999 13.8169 3.8999C13.6998 3.8999 13.5839 3.92309 13.4758 3.96812C13.3677 4.01315 13.2696 4.07914 13.1871 4.16228L6.57846 10.7794L3.80195 7.99417C3.71633 7.91146 3.61526 7.84643 3.5045 7.80279C3.39375 7.75914 3.27548 7.73774 3.15645 7.7398C3.03743 7.74186 2.91997 7.76734 2.81079 7.81479C2.70161 7.86224 2.60285 7.93073 2.52014 8.01634C2.43743 8.10196 2.3724 8.20302 2.32875 8.31377C2.28511 8.42452 2.2637 8.54278 2.26576 8.6618C2.26782 8.78082 2.2933 8.89827 2.34076 9.00744C2.38821 9.11661 2.4567 9.21537 2.54232 9.29807L5.94865 12.7042C6.03111 12.7873 6.12922 12.8533 6.23732 12.8984C6.34541 12.9434 6.46136 12.9666 6.57846 12.9666C6.69556 12.9666 6.81151 12.9434 6.9196 12.8984C7.0277 12.8533 7.12581 12.7873 7.20828 12.7042L14.4467 5.46618C14.5368 5.38312 14.6086 5.28231 14.6578 5.17011C14.7069 5.0579 14.7323 4.93673 14.7323 4.81423C14.7323 4.69173 14.7069 4.57056 14.6578 4.45836C14.6086 4.34615 14.5368 4.24534 14.4467 4.16228Z" fill="white"/>
</g>
</svg>
