<svg width="26" height="26" viewBox="0 0 26 26" fill="none" xmlns="http://www.w3.org/2000/svg">
<g id="icon.search" clip-path="url(#clip0_707_5535)">
<path id="Vector" d="M19.065 16.7676H17.8602L17.4332 16.3561C18.3863 15.2495 19.0828 13.9461 19.473 12.5391C19.8632 11.1321 19.9374 9.65625 19.6902 8.21724C18.9735 3.98017 15.4354 0.596604 11.1654 0.0784006C9.66415 -0.111405 8.13939 0.0445217 6.70775 0.53425C5.27612 1.02398 3.97555 1.83453 2.90558 2.90388C1.83561 3.97322 1.02458 5.27303 0.534564 6.70382C0.0445478 8.13462 -0.111471 9.65848 0.0784466 11.1588C0.596954 15.4264 3.9825 18.9623 8.22206 19.6787C9.66192 19.9257 11.1386 19.8515 12.5464 19.4616C13.9543 19.0716 15.2585 18.3755 16.3657 17.423L16.7774 17.8497V19.0538L23.2588 25.5313C23.884 26.1562 24.9058 26.1562 25.5311 25.5313C26.1563 24.9064 26.1563 23.8853 25.5311 23.2604L19.065 16.7676ZM9.91484 16.7676C6.11753 16.7676 3.05224 13.7041 3.05224 9.90902C3.05224 6.11395 6.11753 3.05045 9.91484 3.05045C13.7121 3.05045 16.7774 6.11395 16.7774 9.90902C16.7774 13.7041 13.7121 16.7676 9.91484 16.7676Z" fill="#231F20"/>
</g>
<defs>
<clipPath id="clip0_707_5535">
<rect width="26" height="26" fill="white"/>
</clipPath>
</defs>
</svg>
