<svg width="43" height="85" viewBox="0 0 43 85" fill="none" xmlns="http://www.w3.org/2000/svg">
<path id="Exclude" fill-rule="evenodd" clip-rule="evenodd" d="M40 85L43 85L43 0L40 2.62268e-07C17.9086 2.19356e-06 -5.86532e-06 17.9086 -3.93403e-06 40L-3.49691e-06 45C-1.56562e-06 67.0914 17.9086 85 40 85ZM20.3529 56.0191L34.0946 42.5L20.3529 28.9809C20.2398 28.872 20.1504 28.7427 20.0898 28.6004C20.0292 28.4581 19.9987 28.3058 20 28.1522C20.0014 27.9986 20.0345 27.8467 20.0975 27.7054C20.1606 27.5642 20.2523 27.4363 20.3673 27.3291C20.4823 27.222 20.6184 27.1378 20.7676 27.0813C20.9168 27.0249 21.0763 26.9973 21.2367 27.0002C21.3972 27.0031 21.5554 27.0365 21.7023 27.0983C21.8492 27.1602 21.9818 27.2493 22.0925 27.3606L36.6562 41.6898C36.8767 41.9067 37 42.1974 37 42.5C37 42.8026 36.8767 43.0933 36.6562 43.3102L22.0925 57.6394C21.9818 57.7507 21.8492 57.8398 21.7023 57.9017C21.5554 57.9635 21.3972 57.9969 21.2367 57.9998C21.0763 58.0027 20.9168 57.9751 20.7676 57.9187C20.6184 57.8622 20.4823 57.778 20.3673 57.6709C20.2523 57.5637 20.1606 57.4358 20.0976 57.2946C20.0345 57.1533 20.0014 57.0014 20 56.8478C19.9987 56.6942 20.0292 56.5419 20.0898 56.3996C20.1504 56.2573 20.2398 56.128 20.3529 56.0191Z" fill="black" fill-opacity="0.38"/>
</svg>
