<?xml version="1.0" encoding="utf-8"?>
<!-- Generator: Adobe Illustrator 26.0.0, SVG Export Plug-In . SVG Version: 6.00 Build 0)  -->
<svg version="1.1" id="Layer_1" xmlns="http://www.w3.org/2000/svg" xmlns:xlink="http://www.w3.org/1999/xlink" x="0px" y="0px"
	 viewBox="0 0 70 70" style="enable-background:new 0 0 70 70;" xml:space="preserve">
<style type="text/css">
	.st0{fill:#D34A5B;}
	.st1{fill:#FFFFFF;}
	.st2{fill:#191919;}
	.st3{fill:#1E1E1E;}
	.st4{fill:#12203A;}
	.st5{fill:#BC6D2C;}
	.st6{fill:#002535;}
	.st7{fill:#23A098;}
	.st8{fill:#1A9186;}
	.st9{fill:#73B52D;}
	.st10{fill:#6BA826;}
	.st11{fill:#80BC39;}
	.st12{fill:#A7CD80;}
	.st13{fill:#2DB5AC;}
	.st14{fill:#B3D3AC;}
	.st15{fill:#F7D309;}
	.st16{fill:#F68C29;}
	.st17{fill:#004847;}
	.st18{fill:#013F3C;}
	.st19{fill:#3DD3C4;}
	.st20{fill:#2DAA9E;}
	.st21{fill:#EE464A;}
	.st22{fill:#086362;}
	.st23{fill:#D8B278;}
	.st24{fill:#CCA571;}
	.st25{opacity:5.000000e-02;}
	.st26{fill:#FED094;}
	.st27{fill:#EFC30C;}
	.st28{fill:#FAE56B;}
	.st29{fill:#FFDE17;}
	.st30{fill:#EFC18F;}
	.st31{fill:#B16518;}
	.st32{fill:#A2BB43;}
	.st33{fill:#8FA33A;}
	.st34{fill:#9C5A1B;}
	.st35{fill:#894915;}
	.st36{fill:#F7F4C5;}
	.st37{fill:#DDD9B1;}
	.st38{fill:#E57D28;}
	.st39{fill:#179687;}
	.st40{fill:#045452;}
	.st41{fill:#D3404A;}
	.st42{fill:#ECE46F;}
	.st43{fill:#DDD268;}
	.st44{fill:#FAEE35;}
	.st45{fill:#F4E238;}
	.st46{fill:#D7D6AF;}
	.st47{fill:#FFDCA5;}
	.st48{fill:#231F20;}
	.st49{fill:#A55E29;}
	.st50{fill:#9CCCAC;}
	.st51{fill:#EAC40A;}
	.st52{fill:#23AFA1;}
	.st53{fill:#B56528;}
	.st54{fill:#FF651D;}
	.st55{fill:#FF4A22;}
	.st56{fill:#33C9E4;}
	.st57{fill:#24B2D6;}
	.st58{fill:#AD71D8;}
	.st59{fill:#9762C4;}
	.st60{fill:#89C251;}
	.st61{fill:#79AF3C;}
	.st62{fill:#2EDEF4;}
	.st63{fill:#83B746;}
	.st64{fill:#BFE5E6;}
	.st65{fill:#20D8E5;}
	.st66{fill:#19ACCE;}
	.st67{fill:#45E8F4;}
	.st68{fill:#FFCF61;}
	.st69{opacity:0.1;}
	.st70{fill:#FFBC41;}
	.st71{fill:#F6D2A5;}
	.st72{fill:#AD91D8;}
	.st73{fill:#9F84D3;}
	.st74{fill:#FFB461;}
	.st75{fill:#1BBBCC;}
	.st76{fill:#F44F0F;}
	.st77{fill:#F4BE53;}
	.st78{fill:#EAA157;}
	.st79{fill:#FF5B46;}
	.st80{fill:#ED488A;}
	.st81{fill:#84B749;}
	.st82{fill:#DD3C7E;}
	.st83{fill:#9357C9;}
	.st84{fill:#022432;}
	.st85{fill:#7CB048;}
	.st86{fill:#DB5C22;}
	.st87{fill:#D7417E;}
	.st88{fill:#FFDC7C;}
	.st89{fill:#F4AC38;}
	.st90{fill:#A1E16F;}
	.st91{fill:#F23719;}
	.st92{fill:#A7A7A8;}
	.st93{fill:#E2E0E0;}
	.st94{fill:#E5A339;}
	.st95{fill:#B1DDDD;}
	.st96{fill:#D9206F;}
	.st97{fill:#EAA536;}
	.st98{fill:#D1427C;}
	.st99{fill:#F49C60;}
	.st100{fill:#EAA639;}
	.st101{fill:#9358C6;}
	.st102{fill:#F4493B;}
	.st103{fill:#DDB68C;}
	.st104{fill:#FDDF5C;}
	.st105{fill:#E2C447;}
	.st106{fill:#9765C4;}
	.st107{fill:#5C5F61;}
</style>
<g>
	<g>
		<g>
			<path class="st4" d="M29.2,21.1c-0.4,0-0.7-0.3-0.7-0.7V15c0-0.4,0.3-0.7,0.7-0.7s0.7,0.3,0.7,0.7v5.4
				C29.9,20.7,29.6,21.1,29.2,21.1z"/>
		</g>
		<g>
			<path class="st4" d="M37.5,21.1c-0.4,0-0.7-0.3-0.7-0.7V15c0-0.4,0.3-0.7,0.7-0.7s0.7,0.3,0.7,0.7v5.4
				C38.2,20.7,37.9,21.1,37.5,21.1z"/>
		</g>
		<g>
			<path class="st4" d="M45.7,21.1c-0.4,0-0.7-0.3-0.7-0.7V15c0-0.4,0.3-0.7,0.7-0.7s0.7,0.3,0.7,0.7v5.4
				C46.4,20.7,46.1,21.1,45.7,21.1z"/>
		</g>
		<g>
			<path class="st4" d="M54,21.1c-0.4,0-0.7-0.3-0.7-0.7V15c0-0.4,0.3-0.7,0.7-0.7s0.7,0.3,0.7,0.7v5.4C54.7,20.7,54.4,21.1,54,21.1
				z"/>
		</g>
		<g>
			<g>
				<path class="st4" d="M21.5,38.8v2c0.1-0.3,0.1-0.6,0.1-1C21.6,39.5,21.6,39.1,21.5,38.8z"/>
				<path class="st4" d="M66,16.6h-1.8v3.7c0,1.1-0.9,2-2,2c-1.1,0-2-0.9-2-2v-3.7H56v3.7c0,1.1-0.9,2-2,2c-1.1,0-2-0.9-2-2v-3.7
					h-4.3v3.7c0,1.1-0.9,2-2,2c-1.1,0-2-0.9-2-2v-3.7h-4.3v3.7c0,1.1-0.9,2-2,2c-1.1,0-2-0.9-2-2v-3.7h-4.3v3.7c0,1.1-0.9,2-2,2
					c-1.1,0-2-0.9-2-2v-3.7h-1.8c-2.1,0-3.9,1.7-4,3.8c-1.6-0.5-3.3-0.8-4.9-0.8C7.4,19.6,0,27.1,0,36.2c0,9.1,7.4,16.5,16.5,16.5
					c1.7,0,3.4-0.3,4.9-0.8c0.1,2.1,1.9,3.8,4,3.8H66c2.2,0,4-1.8,4-4V20.6C70,18.4,68.2,16.6,66,16.6z M21.5,40.8v6.7
					c-1.5,0.7-3.2,1-4.9,1C9.7,48.5,4.2,43,4.2,36.2s5.5-12.3,12.3-12.3c1.7,0,3.4,0.4,4.9,1v13.9c0.1,0.3,0.1,0.7,0.1,1.1
					C21.6,40.2,21.6,40.5,21.5,40.8z M34.1,50.4c0,0.4-0.3,0.7-0.7,0.7h-5.6c-0.4,0-0.7-0.3-0.7-0.7v-5.6c0-0.4,0.3-0.7,0.7-0.7h5.6
					c0.4,0,0.7,0.3,0.7,0.7V50.4z M34.1,41.1c0,0.4-0.3,0.7-0.7,0.7h-5.6c-0.4,0-0.7-0.3-0.7-0.7v-5.6c0-0.4,0.3-0.7,0.7-0.7h5.6
					c0.4,0,0.7,0.3,0.7,0.7V41.1z M34.1,31.7c0,0.4-0.3,0.7-0.7,0.7h-5.6c-0.4,0-0.7-0.3-0.7-0.7v-5.6c0-0.4,0.3-0.7,0.7-0.7h5.6
					c0.4,0,0.7,0.3,0.7,0.7V31.7z M44.2,50.4c0,0.4-0.3,0.7-0.7,0.7h-5.6c-0.4,0-0.7-0.3-0.7-0.7v-5.6c0-0.4,0.3-0.7,0.7-0.7h5.6
					c0.4,0,0.7,0.3,0.7,0.7V50.4z M44.2,41.1c0,0.4-0.3,0.7-0.7,0.7h-5.6c-0.4,0-0.7-0.3-0.7-0.7v-5.6c0-0.4,0.3-0.7,0.7-0.7h5.6
					c0.4,0,0.7,0.3,0.7,0.7V41.1z M44.2,31.7c0,0.4-0.3,0.7-0.7,0.7h-5.6c-0.4,0-0.7-0.3-0.7-0.7v-5.6c0-0.4,0.3-0.7,0.7-0.7h5.6
					c0.4,0,0.7,0.3,0.7,0.7V31.7z M54.3,50.4c0,0.4-0.3,0.7-0.7,0.7H48c-0.4,0-0.7-0.3-0.7-0.7v-5.6c0-0.4,0.3-0.7,0.7-0.7h5.6
					c0.4,0,0.7,0.3,0.7,0.7V50.4z M54.3,41.1c0,0.4-0.3,0.7-0.7,0.7H48c-0.4,0-0.7-0.3-0.7-0.7v-5.6c0-0.4,0.3-0.7,0.7-0.7h5.6
					c0.4,0,0.7,0.3,0.7,0.7V41.1z M54.3,31.7c0,0.4-0.3,0.7-0.7,0.7H48c-0.4,0-0.7-0.3-0.7-0.7v-5.6c0-0.4,0.3-0.7,0.7-0.7h5.6
					c0.4,0,0.7,0.3,0.7,0.7V31.7z M64.3,50.4c0,0.4-0.3,0.7-0.7,0.7H58c-0.4,0-0.7-0.3-0.7-0.7v-5.6c0-0.4,0.3-0.7,0.7-0.7h5.6
					c0.4,0,0.7,0.3,0.7,0.7V50.4z M64.3,41.1c0,0.4-0.3,0.7-0.7,0.7H58c-0.4,0-0.7-0.3-0.7-0.7v-5.6c0-0.4,0.3-0.7,0.7-0.7h5.6
					c0.4,0,0.7,0.3,0.7,0.7V41.1z M64.3,31.7c0,0.4-0.3,0.7-0.7,0.7H58c-0.4,0-0.7-0.3-0.7-0.7v-5.6c0-0.4,0.3-0.7,0.7-0.7h5.6
					c0.4,0,0.7,0.3,0.7,0.7V31.7z"/>
			</g>
			<g>
				<path class="st4" d="M62.2,21.1c-0.4,0-0.7-0.3-0.7-0.7V15c0-0.4,0.3-0.7,0.7-0.7S63,14.6,63,15v5.4
					C63,20.7,62.6,21.1,62.2,21.1z"/>
			</g>
		</g>
	</g>
	<g>
		<g>
			<path class="st4" d="M20.7,38.8c-0.4-1.8-1.7-2.9-4.1-3.9c-2.3-1-3.3-1.7-3.3-3.1c0-1.1,0.8-2.3,2.9-2.3c1.7,0,2.8,0.6,3.4,0.9
				l0.7-1.8c-0.8-0.5-1.9-0.9-3.5-0.9v-2.6H15v2.7c-2.5,0.4-4.1,2.1-4.1,4.3c0,2.3,1.7,3.6,4.4,4.7c2,0.8,3,1.7,3,3.2
				c0,1.5-1.3,2.6-3.2,2.6c-1.5,0-2.9-0.5-3.9-1.2l-0.6,1.8c0.9,0.7,2.6,1.2,4.1,1.2v2.7h1.7v-2.8c2.4-0.4,3.8-1.9,4.2-3.6
				c0.1-0.3,0.1-0.6,0.1-1C20.8,39.5,20.8,39.1,20.7,38.8z"/>
		</g>
	</g>
</g>
</svg>
