<?xml version="1.0" encoding="utf-8"?>
<!-- Generator: Adobe Illustrator 26.0.0, SVG Export Plug-In . SVG Version: 6.00 Build 0)  -->
<svg version="1.1" id="Шар_1" xmlns="http://www.w3.org/2000/svg" xmlns:xlink="http://www.w3.org/1999/xlink" x="0px" y="0px"
	 viewBox="0 0 100 70" style="enable-background:new 0 0 100 70;" xml:space="preserve">
<style type="text/css">
	.st0{fill:#FDCE00;}
	.st1{fill:#B2B2B3;}
	.st2{fill:#3F53A1;}
	.st3{fill:#95B51F;}
	.st4{fill-rule:evenodd;clip-rule:evenodd;fill:#ED1C24;}
	.st5{fill:#1B4392;}
	.st6{fill-rule:evenodd;clip-rule:evenodd;fill:url(#SVGID_1_);}
	
		.st7{opacity:0.4;fill-rule:evenodd;clip-rule:evenodd;fill:url(#SVGID_00000173152574191454594430000001143213441796421307_);enable-background:new    ;}
	
		.st8{opacity:0.4;fill-rule:evenodd;clip-rule:evenodd;fill:url(#SVGID_00000048495433832465955500000010907899217448233147_);enable-background:new    ;}
	.st9{fill-rule:evenodd;clip-rule:evenodd;fill:url(#SVGID_00000173878560603287122080000004017739636609606575_);}
	.st10{fill-rule:evenodd;clip-rule:evenodd;fill:url(#SVGID_00000035508845827247419270000011771398812241382306_);}
	
		.st11{opacity:0.4;fill-rule:evenodd;clip-rule:evenodd;fill:url(#SVGID_00000058547262666124744290000011162951029125360008_);enable-background:new    ;}
	
		.st12{opacity:0.4;fill-rule:evenodd;clip-rule:evenodd;fill:url(#SVGID_00000003822893698108972360000007563577549407523993_);enable-background:new    ;}
	.st13{fill-rule:evenodd;clip-rule:evenodd;fill:url(#SVGID_00000173138730857642344710000006848449344188871597_);}
	.st14{fill-rule:evenodd;clip-rule:evenodd;}
	.st15{fill-rule:evenodd;clip-rule:evenodd;fill:#3C4043;}
	.st16{fill:#4285F4;}
	.st17{fill:#34A853;}
	.st18{fill:#FBBC04;}
	.st19{fill:#EA4335;}
</style>
<g>
	<path d="M19,19.2c1.2-1.5,2-3.5,1.7-5.5c-1.7,0.1-3.8,1.2-5.1,2.6c-1.1,1.2-2.1,3.3-1.8,5.2C15.8,21.8,17.7,20.7,19,19.2 M20.7,22
		c-2.8-0.2-5.2,1.6-6.6,1.6c-1.3,0-3.4-1.5-5.7-1.5c-2.9,0.1-5.6,1.7-7.1,4.3c-3,5.2-0.8,13,2.2,17.2C5,45.7,6.8,48,9,48
		c2.2-0.1,3-1.4,5.6-1.4s3.3,1.4,5.7,1.3c2.3-0.1,3.8-2.1,5.2-4.2c1.7-2.4,2.3-4.7,2.3-4.8c-0.1-0.1-4.6-1.7-4.6-6.9
		c-0.1-4.3,3.5-6.4,3.7-6.5C25,22.5,21.8,22.1,20.7,22"/>
	<g>
		<path d="M45.1,16.1c6.1,0,10.4,4.2,10.4,10.3c0,6.1-4.3,10.4-10.6,10.4h-6.7v10.7h-4.9V16.1H45.1z M38.3,32.8h5.6
			c4.2,0,6.6-2.3,6.6-6.2c0-4-2.4-6.2-6.6-6.2h-5.7L38.3,32.8L38.3,32.8z M56.8,41.1c0-4,3.1-6.5,8.6-6.8l6.3-0.3v-1.7
			c0-2.6-1.7-4.1-4.6-4.1c-2.7,0-4.4,1.3-4.8,3.3h-4.5c0.2-4.2,3.8-7.2,9.5-7.2c5.6,0,9.1,2.9,9.1,7.6v15.8h-4.5v-3.7h-0.1
			c-1.3,2.6-4.2,4.2-7.2,4.2C59.9,48,56.8,45.2,56.8,41.1z M71.7,39.1v-1.8L66,37.6c-2.8,0.2-4.4,1.4-4.4,3.4c0,2,1.7,3.3,4.2,3.3
			C69.1,44.3,71.7,42.1,71.7,39.1L71.7,39.1z M80.6,56.1v-3.8c0.3,0.1,1.2,0.1,1.5,0.1c2.2,0,3.3-0.9,4.1-3.2c0-0.1,0.4-1.4,0.4-1.4
			l-8.3-22.9h5.1l5.8,18.7h0.1L95,24.8h5L91.4,49c-2,5.6-4.2,7.3-9,7.3C82.1,56.2,81,56.2,80.6,56.1L80.6,56.1z"/>
	</g>
</g>
</svg>
