<svg width="51" height="32" viewBox="0 0 51 32" fill="none" xmlns="http://www.w3.org/2000/svg">
<rect width="51" height="32" rx="9" fill="white"/>
<g clip-path="url(#clip0_1392_17195)">
<path d="M42.6699 28.6443V28.7112H42.7335C42.7455 28.7114 42.7572 28.7084 42.7676 28.7027C42.7718 28.6998 42.7751 28.6959 42.7774 28.6915C42.7796 28.687 42.7806 28.682 42.7804 28.6771C42.7806 28.6722 42.7796 28.6673 42.7773 28.663C42.7751 28.6586 42.7718 28.6549 42.7676 28.6521C42.7574 28.6461 42.7455 28.6431 42.7335 28.6436H42.6699V28.6443ZM42.7342 28.5969C42.7615 28.5953 42.7885 28.603 42.8106 28.6187C42.8195 28.6258 42.8265 28.6349 42.8312 28.6452C42.8358 28.6554 42.838 28.6667 42.8374 28.6779C42.8378 28.6876 42.8361 28.6972 42.8324 28.7062C42.8287 28.7152 42.8231 28.7233 42.8159 28.7299C42.7988 28.7445 42.7774 28.7532 42.7548 28.7549L42.8401 28.8502H42.7745L42.696 28.7555H42.6706V28.8502H42.6157V28.5971H42.7351L42.7342 28.5969ZM42.7172 28.9376C42.746 28.9378 42.7745 28.9321 42.8009 28.9209C42.8263 28.9101 42.8495 28.8947 42.8691 28.8755C42.8888 28.8563 42.9044 28.8336 42.9153 28.8086C42.9377 28.7555 42.9377 28.696 42.9153 28.6429C42.9043 28.618 42.8886 28.5953 42.8691 28.576C42.8495 28.5568 42.8263 28.5414 42.8009 28.5307C42.7743 28.52 42.7459 28.5146 42.7172 28.5149C42.688 28.5147 42.659 28.52 42.6319 28.5307C42.6059 28.5412 42.5822 28.5566 42.5621 28.576C42.532 28.6064 42.5116 28.6448 42.5035 28.6864C42.4954 28.7281 42.4999 28.7711 42.5166 28.8102C42.527 28.8354 42.5425 28.8581 42.5621 28.8772C42.5822 28.8966 42.6059 28.912 42.6319 28.9225C42.6588 28.9338 42.6879 28.9395 42.7172 28.9393M42.7172 28.454C42.7921 28.4539 42.8641 28.4828 42.9175 28.5343C42.9433 28.5591 42.9638 28.5886 42.9779 28.6212C42.9925 28.6546 43 28.6906 43 28.727C43 28.7634 42.9925 28.7994 42.9779 28.8328C42.9635 28.8652 42.943 28.8947 42.9175 28.9197C42.8914 28.9443 42.8609 28.9641 42.8277 28.9782C42.7927 28.9928 42.7551 29.0002 42.7172 29C42.6787 29.0003 42.6407 28.9929 42.6053 28.9782C42.5716 28.9645 42.5409 28.9446 42.5147 28.9197C42.4892 28.8938 42.469 28.8633 42.4552 28.83C42.4406 28.7965 42.4331 28.7605 42.4331 28.7242C42.4331 28.6878 42.4406 28.6518 42.4552 28.6183C42.4693 28.5858 42.4898 28.5562 42.5156 28.5315C42.5414 28.5062 42.5722 28.4862 42.6061 28.4729C42.6415 28.4583 42.6796 28.4509 42.718 28.4512M16.604 27.4764C16.604 26.9936 16.9263 26.5971 17.4531 26.5971C17.9565 26.5971 18.2962 26.9766 18.2962 27.4764C18.2962 27.9762 17.9565 28.3556 17.4531 28.3556C16.9263 28.3556 16.604 27.9591 16.604 27.4764ZM18.8701 27.4764V26.1027H18.2615V26.4373C18.0684 26.19 17.7756 26.0349 17.3774 26.0349C16.5929 26.0349 15.9772 26.6386 15.9772 27.477C15.9772 28.3155 16.5925 28.9192 17.3774 28.9192C17.7754 28.9192 18.0684 28.7639 18.2615 28.5168V28.8502H18.8694V27.4764H18.8701ZM39.436 27.4764C39.436 26.9936 39.7583 26.5971 40.2852 26.5971C40.7892 26.5971 41.1284 26.9766 41.1284 27.4764C41.1284 27.9762 40.7892 28.3556 40.2852 28.3556C39.7584 28.3556 39.436 27.9591 39.436 27.4764ZM41.7028 27.4764V25H41.0936V26.4373C40.9006 26.19 40.6077 26.0349 40.2095 26.0349C39.425 26.0349 38.8094 26.6386 38.8094 27.477C38.8094 28.3155 39.4247 28.9192 40.2095 28.9192C40.6077 28.9192 40.9006 28.7639 41.0936 28.5168V28.8502H41.7028V27.4764ZM26.4244 26.5688C26.8166 26.5688 27.0685 26.8101 27.1328 27.2349H25.6805C25.7455 26.8384 25.9909 26.5688 26.4246 26.5688M26.4367 26.0334C25.6164 26.0334 25.0425 26.619 25.0425 27.4755C25.0425 28.3488 25.6394 28.9177 26.4774 28.9177C26.899 28.9177 27.2851 28.8144 27.6248 28.5328L27.3265 28.0903C27.0919 28.2743 26.7931 28.3776 26.5122 28.3776C26.12 28.3776 25.7629 28.1994 25.675 27.7049H27.7534C27.7594 27.6306 27.7655 27.5557 27.7655 27.4754C27.7594 26.6192 27.2198 26.0332 26.4363 26.0332M33.7849 27.4754C33.7849 26.9926 34.1072 26.5961 34.634 26.5961C35.1375 26.5961 35.4772 26.9756 35.4772 27.4754C35.4772 27.9751 35.1375 28.3546 34.634 28.3546C34.1072 28.3546 33.7847 27.9581 33.7847 27.4754M36.0509 27.4754V26.1027H35.4426V26.4373C35.2488 26.19 34.9567 26.0349 34.5585 26.0349C33.774 26.0349 33.1584 26.6386 33.1584 27.477C33.1584 28.3155 33.7737 28.9192 34.5585 28.9192C34.9567 28.9192 35.2488 28.7639 35.4426 28.5168V28.8502H36.0511V27.4764L36.0509 27.4754ZM30.3477 27.4754C30.3477 28.3085 30.9388 28.9175 31.8409 28.9175C32.2625 28.9175 32.5434 28.8255 32.8471 28.5901L32.5548 28.1073C32.3263 28.2685 32.0863 28.3546 31.8215 28.3546C31.3356 28.3488 30.9783 28.0041 30.9783 27.4754C30.9783 26.9466 31.3356 26.6021 31.8215 26.5961C32.0856 26.5961 32.3256 26.6823 32.5548 26.8434L32.8471 26.3607C32.5429 26.1252 32.262 26.0332 31.8409 26.0332C30.9388 26.0332 30.3477 26.6421 30.3477 27.4754ZM38.1942 26.0332C37.8431 26.0332 37.6144 26.1943 37.4563 26.4356V26.1027H36.8531V28.8487H37.4625V27.3094C37.4625 26.8549 37.6615 26.6024 38.0593 26.6024C38.1896 26.6006 38.319 26.6241 38.44 26.6715L38.6276 26.1087C38.4929 26.0566 38.3172 26.0337 38.1939 26.0337M21.8793 26.321C21.5865 26.1316 21.183 26.0337 20.7379 26.0337C20.0288 26.0337 19.5722 26.3672 19.5722 26.9128C19.5722 27.3606 19.9121 27.6368 20.538 27.723L20.8255 27.7632C21.1593 27.8092 21.3169 27.8953 21.3169 28.0504C21.3169 28.2628 21.0952 28.3839 20.6789 28.3839C20.2573 28.3839 19.953 28.2517 19.7479 28.0966L19.4619 28.5623C19.7956 28.8036 20.2172 28.9187 20.6737 28.9187C21.4821 28.9187 21.9506 28.5452 21.9506 28.0223C21.9506 27.5396 21.5819 27.2871 20.9727 27.2009L20.6859 27.1601C20.4224 27.1267 20.2112 27.0746 20.2112 26.8906C20.2112 26.6898 20.4103 26.569 20.7442 26.569C21.1015 26.569 21.4473 26.7012 21.6168 26.8044L21.8803 26.3217L21.8793 26.321ZM29.7329 26.0342C29.3817 26.0342 29.153 26.1953 28.9956 26.4366V26.1027H28.3924V28.8487H29.0011V27.3094C29.0011 26.8549 29.2001 26.6024 29.598 26.6024C29.7283 26.6006 29.8576 26.6241 29.9786 26.6715L30.1662 26.1087C30.0315 26.0566 29.8558 26.0337 29.7325 26.0337M24.5389 26.1027H23.5436V25.2696H22.9283V26.1027H22.3606V26.6485H22.9283V27.9012C22.9283 28.5384 23.1804 28.9178 23.9004 28.9178C24.1645 28.9178 24.4688 28.8375 24.6618 28.7055L24.486 28.1942C24.3044 28.2974 24.1054 28.3494 23.9471 28.3494C23.6429 28.3494 23.5436 28.1654 23.5436 27.8898V26.649H24.5389V26.1027ZM15.439 28.8494V27.126C15.439 26.4769 15.0174 26.0402 14.3378 26.0344C13.9805 26.0285 13.612 26.1376 13.354 26.523C13.1609 26.2184 12.8567 26.0344 12.429 26.0344C12.13 26.0344 11.8379 26.1206 11.6092 26.4421V26.1027H11V28.8487H11.6139V27.3261C11.6139 26.8494 11.8834 26.5961 12.2995 26.5961C12.7037 26.5961 12.9082 26.8546 12.9082 27.3201V28.8484H13.5235V27.3258C13.5235 26.8491 13.8044 26.5957 14.2084 26.5957C14.624 26.5957 14.8223 26.8543 14.8223 27.3197V28.8481L15.439 28.8494Z" fill="#231F20"/>
<path d="M42.9996 20.3856V20H42.8797L42.7409 20.2646L42.603 20H42.4826V20.3856H42.5678V20.0951L42.6976 20.3458H42.7858L42.9156 20.0945V20.3856H43H42.9996ZM42.2387 20.3856V20.066H42.3922V20.001H42V20.066H42.1535V20.3856H42.238H42.2387Z" fill="#F79410"/>
<path d="M29.9998 22H21V6H30L29.9998 22Z" fill="#FF5F00"/>
<path d="M21.9868 14C21.9868 10.8104 23.5561 7.96914 25.9998 6.13809C24.1501 4.75004 21.8622 3.9967 19.5066 4.00001C13.7038 4.00001 9 8.47709 9 14C9 19.5229 13.7038 24 19.5066 24C21.8623 24.0033 24.1502 23.25 26 21.8619C23.5565 20.0312 21.9868 17.1897 21.9868 14Z" fill="#EB001B"/>
<path d="M43 14C43 19.5229 38.2964 24 32.4939 24C30.1381 24.0033 27.8501 23.25 26 21.8619C28.4443 20.0309 30.0135 17.1897 30.0135 14C30.0135 10.8103 28.4443 7.96914 26 6.13809C27.85 4.75008 30.138 3.99676 32.4938 4.00001C38.2962 4.00001 42.9998 8.47709 42.9998 14" fill="#F79E1B"/>
</g>
<defs>
<clipPath id="clip0_1392_17195">
<rect width="34" height="25" fill="white" transform="translate(9 4)"/>
</clipPath>
</defs>
</svg>
