<svg width="51" height="32" viewBox="0 0 51 32" fill="none" xmlns="http://www.w3.org/2000/svg">
<rect width="51" height="32" rx="9" fill="white"/>
<path d="M21.7739 21.7833H18.4284L20.5193 9.22441H23.8651L21.7739 21.7833ZM15.6139 9.22441L12.4245 17.8625L12.047 16.0024L12.0474 16.0031L10.9217 10.3552C10.9217 10.3552 10.7856 9.22441 9.33467 9.22441H4.06187L4 9.43706C4 9.43706 5.61243 9.76494 7.49951 10.8725L10.4061 21.7837H13.8918L19.2145 9.22441H15.6139ZM41.9281 21.7833H45L42.3217 9.22407H39.6323C38.3904 9.22407 38.088 10.16 38.088 10.16L33.0984 21.7833H36.5859L37.2833 19.9178H41.5362L41.9281 21.7833ZM38.2468 17.3408L40.0046 12.641L40.9935 17.3408H38.2468ZM33.36 12.2445L33.8374 9.54759C33.8374 9.54759 32.3642 9 30.8284 9C29.1682 9 25.2256 9.70918 25.2256 13.1576C25.2256 16.4022 29.8529 16.4425 29.8529 18.1467C29.8529 19.851 25.7024 19.5456 24.3326 18.4709L23.8352 21.2908C23.8352 21.2908 25.3291 22 27.6114 22C29.8945 22 33.3386 20.8447 33.3386 17.7003C33.3386 14.4349 28.6698 14.1309 28.6698 12.7112C28.6701 11.2911 31.9283 11.4735 33.36 12.2445Z" fill="#2566AF"/>
</svg>
