<svg width="18" height="17" viewBox="0 0 18 17" fill="none" xmlns="http://www.w3.org/2000/svg">
<g id="icon">
<path id="Vector" d="M17.0155 2H15.1874V3.15385H16.8749V15.8462H1.12513V3.15385H2.8126V2H0.984504C0.853014 2.00225 0.723246 2.03105 0.60261 2.08475C0.481974 2.13846 0.372835 2.21601 0.281425 2.31298C0.190015 2.40994 0.118126 2.52443 0.0698629 2.6499C0.0216003 2.77538 -0.0020902 2.90937 0.000144589 3.04423V15.9558C-0.0020902 16.0906 0.0216003 16.2246 0.0698629 16.3501C0.118126 16.4756 0.190015 16.5901 0.281425 16.687C0.372835 16.784 0.481974 16.8615 0.60261 16.9152C0.723246 16.9689 0.853014 16.9977 0.984504 17H17.0155C17.147 16.9977 17.2768 16.9689 17.3974 16.9152C17.518 16.8615 17.6272 16.784 17.7186 16.687C17.81 16.5901 17.8819 16.4756 17.9301 16.3501C17.9784 16.2246 18.0021 16.0906 17.9999 15.9558V3.04423C18.0021 2.90937 17.9784 2.77538 17.9301 2.6499C17.8819 2.52443 17.81 2.40994 17.7186 2.31298C17.6272 2.21601 17.518 2.13846 17.3974 2.08475C17.2768 2.03105 17.147 2.00225 17.0155 2Z" fill="#676767"/>
<path id="Vector_2" d="M3 7H4V8H3V7Z" fill="#676767"/>
<path id="Vector_3" d="M7 7H8V8H7V7Z" fill="#676767"/>
<path id="Vector_4" d="M10 7H11V8H10V7Z" fill="#676767"/>
<path id="Vector_5" d="M13 7H14V8H13V7Z" fill="#676767"/>
<path id="Vector_6" d="M3 10H4V11H3V10Z" fill="#676767"/>
<path id="Vector_7" d="M7 10H8V11H7V10Z" fill="#676767"/>
<path id="Vector_8" d="M10 10H11V11H10V10Z" fill="#676767"/>
<path id="Vector_9" d="M13 10H14V11H13V10Z" fill="#676767"/>
<path id="Vector_10" d="M3 12H4V13H3V12Z" fill="#676767"/>
<path id="Vector_11" d="M7 12H8V13H7V12Z" fill="#676767"/>
<path id="Vector_12" d="M10 12H11V13H10V12Z" fill="#676767"/>
<path id="Vector_13" d="M13 12H14V13H13V12Z" fill="#676767"/>
<path id="Vector_14" d="M4.5 5C4.63261 5 4.75979 4.93415 4.85355 4.81694C4.94732 4.69973 5 4.54076 5 4.375V0.625C5 0.45924 4.94732 0.300268 4.85355 0.183058C4.75979 0.065848 4.63261 0 4.5 0C4.36739 0 4.24021 0.065848 4.14645 0.183058C4.05268 0.300268 4 0.45924 4 0.625V4.375C4 4.54076 4.05268 4.69973 4.14645 4.81694C4.24021 4.93415 4.36739 5 4.5 5Z" fill="#676767"/>
<path id="Vector_15" d="M13.5 5C13.6326 5 13.7598 4.93415 13.8536 4.81694C13.9473 4.69973 14 4.54076 14 4.375V0.625C14 0.45924 13.9473 0.300268 13.8536 0.183058C13.7598 0.065848 13.6326 0 13.5 0C13.3674 0 13.2402 0.065848 13.1464 0.183058C13.0527 0.300268 13 0.45924 13 0.625V4.375C13 4.54076 13.0527 4.69973 13.1464 4.81694C13.2402 4.93415 13.3674 5 13.5 5Z" fill="#676767"/>
<path id="Vector_16" d="M6 2H12V3H6V2Z" fill="#676767"/>
</g>
</svg>
