<?xml version="1.0" encoding="utf-8"?>
<!-- Generator: Adobe Illustrator 26.0.0, SVG Export Plug-In . SVG Version: 6.00 Build 0)  -->
<svg version="1.1" id="Layer_1" xmlns="http://www.w3.org/2000/svg" xmlns:xlink="http://www.w3.org/1999/xlink" x="0px" y="0px"
	 viewBox="0 0 70 70" style="enable-background:new 0 0 70 70;" xml:space="preserve">
<style type="text/css">
	.st0{fill:none;}
	.st1{fill:url(#SVGID_1_);}
	.st2{fill:url(#SVGID_00000121993549079613763790000003232429919980386960_);}
	.st3{fill:url(#SVGID_00000088091247611628166190000001246947535569188228_);}
	.st4{fill:url(#SVGID_00000045608822453316934650000000584537027625694595_);}
	.st5{fill:url(#SVGID_00000067945485579170877530000016667930894115065999_);}
	.st6{fill:url(#SVGID_00000014593273117291062410000011766750296994901171_);}
	.st7{fill:url(#SVGID_00000121279665077170853120000008629957822020666808_);}
	.st8{fill:url(#SVGID_00000050654659281865599640000016755162078417533569_);}
	.st9{fill:url(#SVGID_00000072992985039840917540000012470973804083497897_);}
	.st10{fill:url(#SVGID_00000119828272676753391410000016819218799994893461_);}
	.st11{fill:url(#SVGID_00000122708894376200218100000013583468363270710463_);}
	.st12{fill:url(#SVGID_00000031929336323235588640000003515240488702758789_);}
	.st13{fill:url(#SVGID_00000137825561138158339420000010842266681447269256_);}
	.st14{fill:url(#SVGID_00000073698193331009779350000016741539286827860155_);}
	.st15{fill:url(#SVGID_00000073000706139183551900000010752491478420602789_);}
	.st16{fill:#4D4D4D;}
	.st17{fill:url(#SVGID_00000096022238504733756420000006626109466194048902_);}
	.st18{fill:url(#SVGID_00000031175006481982613250000003967347481712310181_);}
	.st19{fill:url(#SVGID_00000113313310194014100940000013521001565499112858_);}
	.st20{fill:url(#SVGID_00000011013595996416921280000014725079371653099401_);}
	.st21{fill:url(#SVGID_00000088094581138021883230000009399128991188471204_);}
	.st22{fill:url(#SVGID_00000017497122083367710920000004650178075433016733_);}
	.st23{fill:url(#SVGID_00000127728569265570902340000014616748784971712952_);}
	.st24{fill:url(#SVGID_00000102530406781914537710000007009174780698994086_);}
	.st25{fill:url(#SVGID_00000142147313542989935030000010971918221010427582_);}
	.st26{fill:url(#SVGID_00000101077173734012339150000005859891874453424019_);}
	.st27{fill:url(#SVGID_00000170244703449680026240000007978546936695351444_);}
	.st28{fill:url(#SVGID_00000179615708298657149630000004939429642166608527_);}
	.st29{fill:url(#SVGID_00000064350449053027790430000003903736007796821133_);}
	.st30{fill:url(#SVGID_00000108275301394130379890000007603873322213351846_);}
	.st31{fill:url(#SVGID_00000065777429349863390290000001563577717541342102_);}
	.st32{fill:url(#SVGID_00000122716031155945273610000016569401260248201107_);}
	.st33{fill:url(#SVGID_00000077282772324613968270000005074989084579393214_);}
	.st34{fill:url(#SVGID_00000000906899338109902320000013297716339471785349_);}
	.st35{fill:url(#SVGID_00000099657779279766949220000010215512859352215440_);}
	.st36{fill:url(#SVGID_00000176034970159146316730000014751448598937757069_);}
	.st37{fill:url(#SVGID_00000143578699193467073690000006606921065462799495_);}
	.st38{fill:url(#SVGID_00000164488400505042047190000008428370093273444753_);}
	.st39{fill:url(#SVGID_00000164474880470839177630000015741341709488865437_);}
	.st40{fill:url(#SVGID_00000002357617251801836730000000812940182401659796_);}
	.st41{fill:url(#SVGID_00000171691130217213614830000002172472652276108958_);}
	.st42{fill:url(#SVGID_00000088840094905239235810000000181731605756594568_);}
	.st43{fill:url(#SVGID_00000174590075067772917930000006131062900123816370_);}
	.st44{fill:url(#SVGID_00000170984478052558284780000012625844686251711113_);}
	.st45{fill:url(#SVGID_00000137824522451317341220000014199557246588298937_);}
	.st46{fill:url(#SVGID_00000176746155874811574440000007400537517782793887_);}
	.st47{fill:url(#SVGID_00000016774884035690009130000006019212797077363133_);}
	.st48{fill:url(#SVGID_00000113314003789024108680000013898077384908157884_);}
	.st49{fill:url(#SVGID_00000082364999112240455550000016363808243730133407_);}
	.st50{fill:url(#SVGID_00000051384227140731417550000011212742228427995811_);}
	.st51{fill:url(#SVGID_00000005237701124961190130000000790702481315587992_);}
	.st52{fill:url(#SVGID_00000172403521361612853990000001181892353032965520_);}
	.st53{fill:url(#SVGID_00000136380085547292208500000005014857735123429762_);}
	.st54{fill:url(#SVGID_00000176753780945741891850000017112622955666992256_);}
	.st55{fill:url(#SVGID_00000113343745171013455300000012083382121244488837_);}
	.st56{fill:url(#SVGID_00000034075048045444336310000012038251057462377600_);}
	.st57{fill:url(#SVGID_00000087383660410144789240000006886990100038187158_);}
	.st58{fill:url(#SVGID_00000067220831916315328610000010445466390217405853_);}
	.st59{fill:url(#SVGID_00000160889290593148011240000011249989219235722897_);}
	.st60{fill:url(#SVGID_00000168806071098065371520000012808445792796890254_);}
	.st61{fill:url(#SVGID_00000129192763517754307100000006229579875712440212_);}
	.st62{fill:url(#SVGID_00000168085920774919570660000006026180476865437575_);}
	.st63{fill:url(#SVGID_00000055669923514969564940000013034180214695976855_);}
	.st64{fill:url(#SVGID_00000139295259158243248350000013615245311016209598_);}
	.st65{fill:url(#SVGID_00000065786533439905748300000018249595612042899095_);}
	.st66{fill:url(#SVGID_00000065066561934626022060000000088845753013755790_);}
	.st67{fill:url(#SVGID_00000070096704621705897640000009706137130304382607_);}
	.st68{fill:url(#SVGID_00000042008299871352055550000013487087227343868861_);}
	.st69{fill:url(#SVGID_00000074415099032662799620000002090026962351545768_);}
	.st70{fill:url(#SVGID_00000020378808278254756000000000618908211767975831_);}
	.st71{fill:url(#SVGID_00000180327167496161577760000003146529468439542684_);}
	.st72{fill:url(#SVGID_00000085227219808721562820000000832673651813842877_);}
	.st73{fill:url(#SVGID_00000093153338914270421900000006671491540175648658_);}
	.st74{fill:url(#SVGID_00000054972907687270658890000010294717404217633687_);}
	.st75{fill:url(#SVGID_00000138570110831711933300000011773984554552990350_);}
	.st76{fill:url(#SVGID_00000074418410513699157790000008296473211564612236_);}
	.st77{fill:url(#SVGID_00000114769483857768442340000004086611407884287673_);}
	.st78{fill:url(#SVGID_00000070823677339621593720000016769857272031227788_);}
	.st79{fill:url(#SVGID_00000134225196936682748750000016080696010718283167_);}
	.st80{fill:url(#SVGID_00000011019778392848053120000010808656558207243945_);}
	.st81{fill:url(#SVGID_00000119813287440579435040000018423373214844803732_);}
	.st82{fill:url(#SVGID_00000017479449046284835250000006533734131949162922_);}
	.st83{fill:url(#SVGID_00000084528333896527959690000000922428104835291291_);}
	.st84{fill:url(#SVGID_00000159458787475600328590000007802765747232363915_);}
	.st85{fill:url(#SVGID_00000090989131985322155460000006082073762853651863_);}
	.st86{fill:url(#SVGID_00000131341409613566749720000008780311471077494197_);}
	.st87{fill:url(#SVGID_00000093169177789611170050000010870563738562852225_);}
	.st88{fill:url(#SVGID_00000084515747986821141780000010517212146764628638_);}
	.st89{fill:url(#SVGID_00000014633176667477297140000008508331269468755861_);}
	.st90{fill:url(#SVGID_00000018231466657578860670000012035390674096413573_);}
	.st91{fill:url(#SVGID_00000028306586712832049090000008812966511789397890_);}
	.st92{fill:url(#SVGID_00000036216715356117279580000000621655426830110905_);}
	.st93{fill:url(#SVGID_00000022551870663465323850000002595439609864299921_);}
	.st94{fill:url(#SVGID_00000155841929224136757440000015400098119205777541_);}
	.st95{fill:url(#SVGID_00000089538631664768203010000002338551122966212245_);}
	.st96{fill:url(#SVGID_00000065768343843047197880000001163190376535782823_);}
	.st97{fill:url(#SVGID_00000026153206851056967350000008892171419116009911_);}
	.st98{fill:url(#SVGID_00000142885435725030374940000010014825918225962427_);}
	.st99{fill:url(#SVGID_00000071536703090389566440000008284629712749392298_);}
	.st100{fill:url(#SVGID_00000173858649630655030300000010224547253908509861_);}
	.st101{fill:url(#SVGID_00000154427620106749393710000014536059202922653056_);}
	.st102{fill:url(#SVGID_00000152224359565986192340000007871258441918641800_);}
	.st103{fill:url(#SVGID_00000123410235091456117030000002762217557464137145_);}
	.st104{fill:url(#SVGID_00000096758025824166902080000010721323653500649364_);}
	.st105{fill:url(#SVGID_00000048477494785683826090000004563093920334866841_);}
	.st106{fill:url(#SVGID_00000140699882877931932150000018100345540972177850_);}
	.st107{fill:url(#SVGID_00000013901513226378885400000000613486877566734733_);}
	.st108{fill:url(#SVGID_00000145778184389447561260000014484340053494991283_);}
	.st109{fill:url(#SVGID_00000086676007834762753460000011002627677190758038_);}
	.st110{fill:url(#SVGID_00000155113122590104851070000009058121955684475563_);}
	.st111{fill:url(#SVGID_00000034053862097871517960000007959910741969003960_);}
	.st112{fill:url(#SVGID_00000113317970050838033800000017059509301619938952_);}
	.st113{fill:url(#SVGID_00000175285897594365731230000001795407176522922925_);}
	.st114{fill:url(#SVGID_00000036962244982680539710000009632026862267478447_);}
	.st115{fill:url(#SVGID_00000115474327193188812760000016017135554208264105_);}
	.st116{fill:url(#SVGID_00000053526963792417699760000017350716796000782491_);}
	.st117{fill:url(#SVGID_00000112610857693440668570000002608999417912713642_);}
	.st118{fill:url(#SVGID_00000115475797074105676110000012788114266827834549_);}
	.st119{fill:url(#SVGID_00000023977768220388218460000014043167549171259288_);}
	.st120{fill:url(#SVGID_00000060003610882105652750000016795598371747060615_);}
	.st121{fill:url(#SVGID_00000141430833033536070720000008836326601758421126_);}
	.st122{fill:url(#SVGID_00000036223350796358924980000013305435437894687667_);}
	.st123{fill:url(#SVGID_00000029763155915599442790000015311501635174732702_);}
	.st124{fill:url(#SVGID_00000119821219333676203790000004047362359104715960_);}
	.st125{fill:url(#SVGID_00000095313825852884922240000012547247485176448679_);}
	.st126{fill:url(#SVGID_00000008122005956691259230000010333791754109730726_);}
	.st127{fill:url(#SVGID_00000137110066641952106020000009682160801374970558_);}
	.st128{fill:url(#SVGID_00000067211752932506902120000012602451158208219320_);}
	.st129{fill:url(#SVGID_00000160153032624090647110000015421585258173492865_);}
	.st130{fill:url(#SVGID_00000075131296849531252490000004774478197835033766_);}
	.st131{fill:url(#SVGID_00000108267595664373701510000004220146258710908065_);}
	.st132{fill:url(#SVGID_00000107564219654919176960000012927793725235626170_);}
	.st133{fill:url(#SVGID_00000096037960473947939690000002216178389074927765_);}
	.st134{fill:url(#SVGID_00000144296496992829953470000012121888246028834749_);}
	.st135{fill:url(#SVGID_00000142165486841341211690000005738412624807791268_);}
	.st136{fill:url(#SVGID_00000159442940335346884250000013431049108355664798_);}
	.st137{fill:url(#SVGID_00000003802716629206208600000004740563010191186096_);}
	.st138{fill:url(#SVGID_00000083803073839526081380000008009529243892436408_);}
	.st139{fill:url(#SVGID_00000168111654855915161870000010917835093673414281_);}
	.st140{fill:url(#SVGID_00000073692559981078609380000012706071621806703807_);}
	.st141{fill:url(#SVGID_00000064319557702875385630000011338460514869003913_);}
	.st142{fill:url(#SVGID_00000048482959674719787630000002164060773200990373_);}
	.st143{fill:url(#SVGID_00000178183139826123563880000004438077700061177729_);}
	.st144{fill:url(#SVGID_00000063630929354899298710000005605663766027996825_);}
	.st145{fill:url(#SVGID_00000144316269128713439570000012398882010385302445_);}
	.st146{fill:url(#SVGID_00000053522462342176000470000014509436573015617155_);}
	.st147{fill:url(#SVGID_00000102531419699639340060000005553073403018881696_);}
	.st148{fill:url(#SVGID_00000178915963322438025100000005771880532360921250_);}
	.st149{fill:url(#SVGID_00000014627145804217456060000006614076866541034151_);}
	.st150{fill:url(#SVGID_00000008128606099224232210000005962726325490245512_);}
	.st151{fill:url(#SVGID_00000004521517560182997290000003917458230701346478_);}
	.st152{fill:url(#SVGID_00000116953679315097604530000006453566321583484331_);}
	.st153{fill:url(#SVGID_00000029004049251333686030000004957775760098676105_);}
	.st154{fill:url(#SVGID_00000051341662371741603640000016566598065403463083_);}
	.st155{fill:url(#SVGID_00000003795860552999639790000007519451346970630541_);}
	.st156{fill:url(#SVGID_00000016067127636249002420000001978045462439831684_);}
	.st157{fill:url(#SVGID_00000141420142050054120270000003232266061964974011_);}
	.st158{fill:url(#SVGID_00000045595143275535441240000008143378286148871833_);}
	.st159{fill:url(#SVGID_00000072277768158562416180000017129095025145770938_);}
	.st160{fill:url(#SVGID_00000027595427320494145980000015601956582140702897_);}
	.st161{fill:url(#SVGID_00000150099588625357010920000011409219576742566074_);}
	.st162{fill:url(#SVGID_00000010995943563304406880000002794288623608845198_);}
	.st163{fill:url(#SVGID_00000166650647821926566450000016840784186628236206_);}
	.st164{fill:url(#SVGID_00000178189187905567192760000009499500571065234083_);}
	.st165{fill:url(#SVGID_00000113315271678473946940000007668616279275798423_);}
	.st166{fill:url(#SVGID_00000155828950508181811080000002033920850102975916_);}
	.st167{fill:url(#SVGID_00000020398345407178837540000002233174317368381885_);}
	.st168{fill:url(#SVGID_00000077309939387882664170000012698617826289255833_);}
	.st169{fill:url(#SVGID_00000055691870570220754170000005280459533074948255_);}
	.st170{fill:url(#SVGID_00000175316540522132459400000015821862688259892888_);}
	.st171{fill:url(#SVGID_00000078040012636989572540000007556628662903412378_);}
	.st172{fill:url(#SVGID_00000134959446721126067720000008474099745742198944_);}
	.st173{fill:url(#SVGID_00000000928447079287758030000003386153015831906727_);}
	.st174{fill:url(#SVGID_00000020393555605397815760000002990541874598127514_);}
	.st175{fill:url(#SVGID_00000182524890435989277120000006009489725390854799_);}
	.st176{fill:url(#SVGID_00000137101615265372030880000012857902877045752707_);}
	.st177{fill:url(#SVGID_00000093865560282927246470000013269719072258138242_);}
	.st178{fill:url(#SVGID_00000083767102333371900180000004910049343802398391_);}
	.st179{fill:url(#SVGID_00000045611985295067449430000011006794021127127999_);}
	.st180{fill:url(#SVGID_00000008112312180622267490000016637104064763254195_);}
	.st181{fill:url(#SVGID_00000080909700688352658350000007850658873901919113_);}
	.st182{fill:url(#SVGID_00000098902315842678510010000009805045679029420166_);}
	.st183{fill:url(#SVGID_00000181088899077465670120000009436150550904864166_);}
	.st184{fill:url(#SVGID_00000146465188856430513170000009763002143268858004_);}
	.st185{fill:url(#SVGID_00000138543505831104276460000009059097452452590208_);}
	.st186{fill:url(#SVGID_00000111889683858059766600000001680288826500496285_);}
	.st187{fill:url(#SVGID_00000180330587381671741390000015988760376042302600_);}
	.st188{fill:url(#SVGID_00000033361856966364386210000007462012522968572316_);}
	.st189{fill:url(#SVGID_00000017490753424492656930000006528431449885535133_);}
	.st190{fill:url(#SVGID_00000024712404057237853970000005730932508415671211_);}
	.st191{fill:url(#SVGID_00000160159240796623493900000006862814225039016603_);}
	.st192{fill:url(#SVGID_00000099637834226396250090000017873804825129152922_);}
	.st193{fill:url(#SVGID_00000136376476346472161270000001514571769427894958_);}
	.st194{fill:url(#SVGID_00000121251967403449494610000007424321188342476701_);}
	.st195{fill:url(#SVGID_00000027598680614013812120000014038364664350514085_);}
	.st196{fill:url(#SVGID_00000080176406276048332460000007405362757928606632_);}
	.st197{fill:url(#SVGID_00000180340503395515304780000011254918210573207456_);}
	.st198{fill:url(#SVGID_00000015340134519633333150000015006933942964258439_);}
	.st199{fill:url(#SVGID_00000003822473243724507390000012611587317059162246_);}
	.st200{fill:url(#SVGID_00000127002482905204285750000008050953821780431240_);}
	.st201{fill:url(#SVGID_00000011742923860980596920000002639564635001410751_);}
	.st202{fill:url(#SVGID_00000023261040989236031690000017201889930534174636_);}
	.st203{fill:url(#SVGID_00000054250723129969133490000012712313539133237933_);}
	.st204{fill:url(#SVGID_00000057142851576421459690000014651057562207528842_);}
	.st205{fill:url(#SVGID_00000060000135133868980370000001388042885979760059_);}
	.st206{fill:url(#SVGID_00000056429734261092536470000001803441221271327137_);}
	.st207{fill:url(#SVGID_00000117661024481107830860000009043115698323116191_);}
	.st208{fill:url(#SVGID_00000078738441544506412940000002386211099590875554_);}
	.st209{fill:url(#SVGID_00000057120486602770480910000005361127934725893286_);}
	.st210{fill:url(#SVGID_00000049904415483325947220000014454400079354669984_);}
	.st211{fill:url(#SVGID_00000145758387059192497660000004612794043985686948_);}
	.st212{fill:url(#SVGID_00000091720163813682261070000014662657710748920472_);}
	.st213{fill:url(#SVGID_00000031188003341627190950000003584471636064890810_);}
	.st214{fill:url(#SVGID_00000127723037075607404650000014617625007842070969_);}
	.st215{fill:url(#SVGID_00000028297568616812992620000003984286803125899943_);}
	.st216{fill:url(#SVGID_00000070835212043506036480000006057735384364393383_);}
	.st217{fill:url(#SVGID_00000179629404545791616870000014445210829067519663_);}
	.st218{fill:url(#SVGID_00000178910198472417240440000005539649485074808205_);}
	.st219{fill:url(#SVGID_00000073690878076844816020000014536397709986361789_);}
	.st220{fill:url(#SVGID_00000055677642810820197120000002205887537337708193_);}
	.st221{fill:url(#SVGID_00000111896032300005571210000005911480096777384092_);}
	.st222{fill:url(#SVGID_00000121245160170371792670000008335274276772905376_);}
	.st223{fill:url(#SVGID_00000049934568435426369280000012180929697163665314_);}
	.st224{fill:url(#SVGID_00000181062369210230078050000006411789871709291140_);}
	.st225{fill:url(#SVGID_00000041291672065405314040000003246595658291416992_);}
	.st226{fill:url(#SVGID_00000046297635749540736890000004624690813809857415_);}
	.st227{fill:url(#SVGID_00000038398431423414498490000001428302876866151607_);}
	.st228{fill:url(#SVGID_00000016779803794160716080000015142801599610317717_);}
	.st229{fill:url(#SVGID_00000175304684452535389600000009783707577097776311_);}
	.st230{fill:url(#SVGID_00000078763851200297838930000014601046493328256426_);}
	.st231{fill:url(#SVGID_00000109747965747440453030000008758110500816479622_);}
	.st232{fill:url(#SVGID_00000051376921352975930760000000929707162292247441_);}
	.st233{fill:url(#SVGID_00000165928993789422036610000015017041946169245580_);}
	.st234{fill:url(#SVGID_00000182510494685807321310000013852079086186315426_);}
	.st235{fill:url(#SVGID_00000103944405264461729190000015065501873788805798_);}
	.st236{fill:url(#SVGID_00000161604195456752488580000017553130845111268488_);}
	.st237{fill:url(#SVGID_00000003822123918489214310000013790590731094909862_);}
	.st238{fill:url(#SVGID_00000024714666921048920410000001801693797568955266_);}
	.st239{fill:url(#SVGID_00000126298081004314723120000000767523316676379838_);}
	.st240{fill:url(#SVGID_00000171702759172712809310000017928433122590529186_);}
	.st241{fill:url(#SVGID_00000144327153238852738780000006292842300950702246_);}
	.st242{fill:url(#SVGID_00000113324825708118940900000018344057792237894305_);}
	.st243{fill:#EBEBEB;}
	.st244{fill:#407093;}
	.st245{fill:#DDB6A6;}
	.st246{fill:#EABC6B;}
	.st247{fill:#325277;}
	.st248{fill:#385C7F;}
	.st249{fill:#E8AE4D;}
</style>
<g>
	<path class="st249" d="M19.3,59.4c-2,1.2-4.6,1.9-7.4,1.9c-2.8,0-5.5-0.7-7.4-1.9c-1.8-1.1-2.8-2.5-2.8-4h0v-1.2
		c0.5,0.5,1.1,0.9,1.8,1.3c2.3,1.4,5.3,2.2,8.5,2.2c3.2,0,6.2-0.8,8.5-2.2c0.7-0.4,1.2-0.9,1.8-1.3v1.2
		C22.1,56.9,21.1,58.3,19.3,59.4z"/>
	<path class="st249" d="M24.8,49.8v-1.5c0.5,0.5,1.1,0.9,1.8,1.3c2.3,1.4,5.3,2.2,8.5,2.2c3.2,0,6.2-0.8,8.5-2.2
		c0.7-0.4,1.2-0.9,1.8-1.3v1.5v0c0,1.5-1,2.9-2.8,4c-2,1.2-4.6,1.9-7.4,1.9c-2.8,0-5.5-0.7-7.4-1.9C25.8,52.7,24.8,51.3,24.8,49.8
		L24.8,49.8L24.8,49.8z"/>
	<path class="st249" d="M42.4,59.4c-2,1.2-4.6,1.9-7.4,1.9c-2.8,0-5.5-0.7-7.4-1.9c-1.8-1.1-2.8-2.5-2.8-4h0v-1.2
		c0.5,0.5,1.1,0.9,1.8,1.3c2.3,1.4,5.3,2.2,8.5,2.2c3.2,0,6.2-0.8,8.5-2.2c0.7-0.4,1.2-0.9,1.8-1.3v1.2
		C45.2,56.9,44.2,58.3,42.4,59.4z"/>
	<path class="st249" d="M47.9,44v-1.5c0.5,0.5,1.1,0.9,1.8,1.3c2.3,1.4,5.3,2.2,8.5,2.2c3.2,0,6.2-0.8,8.5-2.2
		c0.7-0.4,1.2-0.9,1.8-1.3V44v0c0,1.5-1,2.9-2.8,4c-2,1.2-4.6,1.9-7.4,1.9c-2.8,0-5.5-0.7-7.4-1.9C48.9,46.9,47.9,45.5,47.9,44
		L47.9,44z"/>
	<path class="st249" d="M47.9,49.8v-1.5c0.5,0.5,1.1,0.9,1.8,1.3c2.3,1.4,5.3,2.2,8.5,2.2c3.2,0,6.2-0.8,8.5-2.2
		c0.7-0.4,1.2-0.9,1.8-1.3v1.5v0c0,1.5-1,2.9-2.8,4c-2,1.2-4.6,1.9-7.4,1.9c-2.8,0-5.5-0.7-7.4-1.9C48.9,52.7,47.9,51.3,47.9,49.8
		L47.9,49.8z"/>
	<path class="st249" d="M65.6,59.4c-2,1.2-4.6,1.9-7.4,1.9c-2.8,0-5.5-0.7-7.4-1.9c-1.8-1.1-2.8-2.5-2.8-4v-1.2
		c0.5,0.5,1.1,0.9,1.8,1.3c2.3,1.4,5.3,2.2,8.5,2.2c3.2,0,6.2-0.8,8.5-2.2c0.7-0.4,1.2-0.9,1.8-1.3v1.2
		C68.4,56.9,67.4,58.3,65.6,59.4z"/>
	<path class="st249" d="M19.3,45.8c-2-1.2-4.6-1.9-7.4-1.9c-2.8,0-5.5,0.7-7.4,1.9c-1.8,1.1-2.8,2.5-2.8,4c0,1.5,1,2.9,2.8,4
		c2,1.2,4.6,1.9,7.4,1.9c2.8,0,5.5-0.7,7.4-1.9c1.8-1.1,2.8-2.5,2.8-4C22.1,48.4,21.1,46.9,19.3,45.8z M12.7,53.5v0.9h-1.5v-0.9
		c-1.4-0.2-2.2-1.1-2.2-2.1h1.8c0.1,0.5,0.5,0.9,1.3,0.9c0.8,0,1-0.4,1-0.7c0-0.5-0.3-0.7-1.4-1c-2-0.5-2.5-1.3-2.5-2.3
		c0-1.1,0.8-1.9,2-2.1v-0.7h1.5V46c1.4,0.2,2,1.1,2.1,2h-1.8c-0.1-0.3-0.2-0.8-1.1-0.8c-0.7,0-0.9,0.4-0.9,0.7c0,0.4,0.3,0.6,1.5,1
		c1.8,0.5,2.5,1.2,2.5,2.4C14.8,52.5,14,53.3,12.7,53.5z"/>
	<path class="st249" d="M42.4,40c-2-1.2-4.6-1.9-7.4-1.9c-2.8,0-5.5,0.7-7.4,1.9c-1.8,1.1-2.8,2.5-2.8,4s1,2.9,2.8,4
		c2,1.2,4.6,1.9,7.4,1.9c2.8,0,5.5-0.7,7.4-1.9c1.8-1.1,2.8-2.5,2.8-4S44.2,41.1,42.4,40z M35.8,47.6v0.9h-1.5v-0.9
		c-1.4-0.2-2.2-1.1-2.2-2.1h1.8c0.1,0.5,0.5,0.9,1.3,0.9c0.8,0,1-0.4,1-0.7c0-0.5-0.3-0.7-1.4-1c-2-0.5-2.5-1.3-2.5-2.3
		c0-1.1,0.8-1.9,2-2.1v-0.7h1.5v0.7c1.4,0.2,2,1.1,2.1,2H36c-0.1-0.3-0.2-0.8-1.1-0.8c-0.7,0-0.9,0.4-0.9,0.7c0,0.4,0.3,0.6,1.5,1
		c1.8,0.5,2.5,1.2,2.5,2.4C37.9,46.7,37.1,47.4,35.8,47.6z"/>
	<path class="st249" d="M65.6,34.2c-2-1.2-4.6-1.9-7.4-1.9c-2.8,0-5.5,0.7-7.4,1.9c-1.8,1.1-2.8,2.5-2.8,4c0,1.5,1,2.9,2.8,4
		c2,1.2,4.6,1.9,7.4,1.9c2.8,0,5.5-0.7,7.4-1.9c1.8-1.1,2.8-2.5,2.8-4C68.4,36.7,67.4,35.3,65.6,34.2z M58.9,41.8v0.9h-1.5v-0.9
		c-1.4-0.2-2.2-1.1-2.2-2.1H57c0.1,0.5,0.5,0.9,1.3,0.9c0.8,0,1-0.4,1-0.7c0-0.5-0.3-0.7-1.4-1c-2-0.5-2.5-1.3-2.5-2.3
		c0-1.1,0.8-1.9,2-2.1v-0.7h1.5v0.7c1.4,0.2,2,1.1,2.1,2h-1.8c-0.1-0.3-0.2-0.8-1.1-0.8c-0.7,0-0.9,0.4-0.9,0.7c0,0.4,0.3,0.6,1.5,1
		c1.8,0.5,2.5,1.2,2.5,2.4C61.1,40.8,60.3,41.6,58.9,41.8z"/>
	<path class="st16" d="M64.8,16.7l-1.8-7c-0.1-0.4-0.4-0.8-0.8-0.9c-0.1-0.1-0.3-0.1-0.5-0.1c-0.3,0-0.6,0.1-0.8,0.3l-5.9,4.3
		c-0.3,0.2-0.5,0.5-0.5,0.9c-0.1,0.4,0,0.7,0.2,1c0.2,0.3,0.7,0.5,1.1,0.5c0.3,0,0.6-0.1,0.8-0.3l2.1-1.6C50.6,30.5,31.9,34,17.4,34
		c-2.9,0-5.8-0.1-8.6-0.4c0,0-0.1,0-0.1,0c-0.7,0-1.3,0.5-1.3,1.2c-0.1,0.7,0.5,1.4,1.2,1.5c3.1,0.3,6.3,0.5,9.3,0.5
		c2.4,0,4.8-0.1,7.1-0.3c5.7-0.5,10.9-1.6,15.6-3.4c5.1-1.9,9.6-4.6,13.2-7.9c3.3-3,5.9-6.6,7.8-10.8l0.8,3c0.2,0.6,0.7,1,1.3,1
		c0.1,0,0.2,0,0.3,0C64.6,18.1,65,17.4,64.8,16.7z"/>
</g>
</svg>
