<?xml version="1.0" encoding="utf-8"?>
<!-- Generator: Adobe Illustrator 26.0.0, SVG Export Plug-In . SVG Version: 6.00 Build 0)  -->
<svg version="1.1" id="Шар_1" xmlns="http://www.w3.org/2000/svg" xmlns:xlink="http://www.w3.org/1999/xlink" x="0px" y="0px"
	 viewBox="0 0 100 70" style="enable-background:new 0 0 100 70;" xml:space="preserve">
<style type="text/css">
	.st0{fill:#FFFFFF;}
	.st1{fill:#FDCE00;}
	.st2{fill:#B2B2B3;}
	.st3{fill:#3F53A1;}
	.st4{fill:#95B51F;}
	.st5{fill-rule:evenodd;clip-rule:evenodd;fill:#ED1C24;}
	.st6{fill:#1B4392;}
	.st7{fill-rule:evenodd;clip-rule:evenodd;fill:url(#SVGID_1_);}
	
		.st8{opacity:0.4;fill-rule:evenodd;clip-rule:evenodd;fill:url(#SVGID_00000121252212092909816890000003536129268988363425_);enable-background:new    ;}
	
		.st9{opacity:0.4;fill-rule:evenodd;clip-rule:evenodd;fill:url(#SVGID_00000075124355170278602790000007536653499333552775_);enable-background:new    ;}
	.st10{fill-rule:evenodd;clip-rule:evenodd;fill:url(#SVGID_00000102509669245681715670000016693661921229460664_);}
	.st11{fill-rule:evenodd;clip-rule:evenodd;fill:url(#SVGID_00000173159666445991466130000008170627888900792715_);}
	
		.st12{opacity:0.4;fill-rule:evenodd;clip-rule:evenodd;fill:url(#SVGID_00000062164465907442816120000016043254707075913906_);enable-background:new    ;}
	
		.st13{opacity:0.4;fill-rule:evenodd;clip-rule:evenodd;fill:url(#SVGID_00000177460356455003961330000009739527556429958289_);enable-background:new    ;}
	.st14{fill-rule:evenodd;clip-rule:evenodd;fill:url(#SVGID_00000000193055825206509930000013006754195371969671_);}
	.st15{fill-rule:evenodd;clip-rule:evenodd;}
	.st16{fill-rule:evenodd;clip-rule:evenodd;fill:#3C4043;}
	.st17{fill:#4285F4;}
	.st18{fill:#34A853;}
	.st19{fill:#FBBC04;}
	.st20{fill:#EA4335;}
</style>
<g id="layer1" transform="translate(4.262008e-7,-977.36217)">
	<g id="g4203" transform="matrix(0.96810443,0,0,0.96385545,77.339874,1074.5475)">
		<path id="path3433" class="st5" d="M-34.6-76.6c0,0,0,0,2.2,0c0.8,0,1.2,0.4,1.2,1.3c0,0,0,0,0,3.1c0,0,0,0,4.2,0c0,0,0,0,0-3.1
			c0-0.9,0.4-1.3,1.3-1.3c0,0,0,0,2.1,0c0,0,0,0,0,2c0,0,0,0-0.9,0l-0.1,0.1c0,0,0,0,0,8.8c0,0,0,0-2.4,0c0,0,0,0,0-4.4
			c0,0,0,0-4.2,0c0,0,0,0,0,4.4c0,0,0,0-2.4,0c0,0,0,0,0-8.8c0,0,0-0.1-0.1-0.1c0,0,0,0-0.9,0C-34.6-74.6-34.6-74.6-34.6-76.6z"/>
		<path id="path3435" class="st5" d="M-17.6-76.8L-17.6-76.8l0.1,2.3l-0.1,0c-1.8,0-3.1,1.5-3.1,3.3c0,1.9,1.4,3.5,3.1,3.5l0.1,0
			v2.2l-0.1,0c-3.1,0-5.7-2.5-5.7-5.7C-23.2-74.4-20.7-76.8-17.6-76.8L-17.6-76.8z"/>
		<path id="path3437" class="st5" d="M-17.5-76.8l1.1,0.1c2.6,0.5,4.5,2.7,4.5,5.4c0,2.8-1.9,5.1-4.5,5.6l-1.1,0.1v-2.2l1.2-0.3
			c1.2-0.5,2-1.8,2-3.2c0-1.4-0.8-2.6-2-3.1l-1.2-0.2C-17.5-74.6-17.5-76.8-17.5-76.8z"/>
		<path id="path3439" class="st5" d="M-11.4-76.6c0,0,0,0,3.3,0h1.6v2h-0.1c-0.2,0-0.6,0-1.4,0c0,0,0,0,0,2.2c0,0,0,0,0.7,0h0.9v1.9
			h-0.5c-0.2,0-0.6,0-1,0c0,0,0,0,0,2.4c0,0.1,0,0.1,0.1,0.1c0,0,0,0,0.7,0h0.7v2.1h-0.2c-0.4,0-1.1,0-2.5,0c-0.8,0-1.2-0.4-1.2-1.3
			v-7.6c0,0,0,0-1,0C-11.4-74.6-11.4-74.6-11.4-76.6z"/>
		<path id="path3441" class="st5" d="M-6.6-76.6L-6.6-76.6c2.2,0,3.5,1.2,3.5,2.9c0,1.1-0.5,1.7-1,2.2c0.9,0.4,1.5,1.4,1.5,2.4
			c0,2-1.6,3.3-3.8,3.3c0,0,0,0,0,0h-0.1v-2.1h0.2c0.8,0,1.3-0.5,1.3-1.3s-0.5-1.3-1.3-1.3c0,0,0,0-0.2,0h0v-1.9h0
			c0.7,0,1.1-0.5,1.1-1.2c0-0.7-0.4-1.1-1.1-1.1c0,0,0,0,0,0h0C-6.6-74.6-6.6-76.6-6.6-76.6z"/>
		<path id="path3443" class="st5" d="M1.9-76.6c0,0,0,0,1,0h0.2v3.1C3-73.3,2.9-73,2.9-72.7c0,0,0,0-0.8,2.2c0,0,0,0,0.8,0h0.1v2
			H2.6c-0.3,0-0.6,0-1,0c0,0,0,0-0.7,1.8c-0.2,0.7-0.6,1-1.4,1c0,0,0,0-1.5,0c0,0,0,0,0-2.1c0,0,0,0,0.5,0c0.2,0,0.2,0,0.3-0.1
			C-1.2-68-1.2-68,1.9-76.6z"/>
		<path id="path3445" class="st5" d="M3.1-76.6h1.2c0,0,0,0,3.1,8.7c0.1,0.1,0.1,0.1,0.3,0.1c0,0,0,0,0.4,0c0,0,0,0,0,2.1
			c0,0,0,0-1.4,0c-0.8,0-1.2-0.3-1.4-1.1c0,0,0,0-0.7-1.7c0,0,0,0-1.3,0H3.1v-2h1c0,0,0,0-0.8-2.2c0-0.3-0.1-0.6-0.2-0.8
			C3.1-73.5,3.1-76.6,3.1-76.6z"/>
		<path id="path3447" class="st5" d="M-34.6-62.6c0,0,0,0,8.5,0c0.8,0,1.3,0.4,1.3,1.3c0,0,0,0,0,7.4c0,0.1,0,0.1,0.1,0.1
			c0,0,0,0,0.8,0c0,0,0,0,0,2.1c0,0,0,0-2.1,0c-0.9,0-1.3-0.4-1.3-1.3c0,0,0,0,0-7.5c0,0,0-0.1-0.1-0.1c0,0,0,0-3.9,0c0,0,0,0,0,8.9
			c0,0,0,0-2.4,0c0,0,0,0,0-8.9c0,0,0,0-1,0C-34.6-60.6-34.6-60.6-34.6-62.6z"/>
		<path id="path3449" class="st5" d="M-17.8-62.8L-17.8-62.8l0,2.3l0,0c-1.8,0-3.1,1.5-3.1,3.3c0,1.9,1.4,3.5,3.1,3.5l0,0v2.2l0,0
			c-3.1,0-5.6-2.5-5.6-5.7C-23.3-60.4-20.9-62.8-17.8-62.8z"/>
		<path id="path3451" class="st5" d="M-17.7-62.8l1.1,0.1c2.6,0.5,4.5,2.7,4.5,5.4c0,2.8-1.9,5.1-4.5,5.6l-1.1,0.1v-2.2l1.2-0.3
			c1.2-0.5,1.9-1.8,1.9-3.2c0-1.4-0.8-2.6-1.9-3.1l-1.2-0.2V-62.8z"/>
		<path id="path3453" class="st5" d="M-11.6-62.6c0,0,0,0,2.2,0c0.8,0,1.2,0.4,1.2,1.3c0,0,0,0,0,7.4c0,0.1,0,0.1,0.1,0.1
			c0,0,0,0,2.8,0c0,0,0,0,0-8.8c0,0,0,0,2.4,0c0,0,0,0,0,8.8c0,0,0,0,2.8,0C0-53.9,0-53.9,0-54c0,0,0,0,0-7.4c0-0.9,0.4-1.3,1.2-1.3
			c0,0,0,0,2.2,0c0,0,0,0,0,2c0,0,0,0-0.9,0c-0.1,0-0.1,0.1-0.1,0.1s0,0,0,7.5c0,0.9-0.4,1.3-1.2,1.3c0,0,0,0-10.5,0
			c-0.9,0-1.3-0.4-1.3-1.3c0,0,0,0,0-7.5c0,0,0-0.1-0.1-0.1c0,0,0,0-0.9,0C-11.6-60.6-11.6-60.6-11.6-62.6z"/>
		<path id="path3455" class="st5" d="M5.1-62.6c0,0,0,0,7.3,0c0.9,0,1.2,0.4,1.2,1.2c0,0,0,0,0,1.8h-2.2c0,0,0,0,0-0.9
			c0-0.1,0-0.1-0.1-0.1c0,0,0,0-1.4,0c0,0,0,0,0,8.9c0,0,0,0-2.4,0c0,0,0,0,0-8.9c0,0,0,0-1.4,0c-0.1,0-0.1,0-0.1,0.1c0,0,0,0,0,0.9
			c0,0,0,0-2.2,0c0,0,0,0,0-1.8C4.1-62.2,4.4-62.6,5.1-62.6z"/>
		<path id="path3457" class="st5" d="M16.7-62.6c0,0,0,0,1,0h0.2v3.1c-0.1,0.2-0.2,0.5-0.2,0.8c0,0,0,0-0.8,2.2c0,0,0,0,0.8,0h0.2v2
			h-0.5c-0.3,0-0.6,0-1,0c0,0,0,0-0.7,1.7c-0.2,0.8-0.6,1.1-1.4,1.1c0,0,0,0-1.5,0c0,0,0,0,0-2.1c0,0,0,0,0.5,0c0.2,0,0.2,0,0.3-0.1
			C13.6-54,13.6-54,16.7-62.6z"/>
		<path id="path3459" class="st5" d="M17.9-62.6h1.2c0,0,0,0,3.1,8.7c0.1,0.1,0.1,0.1,0.3,0.1h0.4c0,0,0,0,0,2.1c0,0,0,0-1.4,0
			c-0.8,0-1.2-0.3-1.4-1.1c0,0,0,0-0.7-1.7c0,0,0,0-1.3,0h-0.2v-2h1c0,0,0,0-0.8-2.2c0-0.3-0.1-0.6-0.2-0.8
			C17.9-59.5,17.9-62.6,17.9-62.6z"/>
		<path id="path3461" class="st5" d="M-49.7-72c0.1,0,0.3,0,0.4,0.2c0,0,0,0,6.7,6.5c0.4,0.4,0.4,1,0,1.3c0,0,0,0-6.7,6.6
			c-0.1,0.2-0.3,0.2-0.4,0.2s-0.2-0.2-0.2-0.5v-13.9C-49.9-71.8-49.8-72-49.7-72z"/>
		<path id="path3463" class="st5" d="M-61.1-82.9h0.5l0.5,0.2c0,0,0,0,6.9,6.8c0.3,0.4,0.2,0.7-0.3,0.7c0,0,0,0-2.8,0
			c-0.5,0-0.9,0.4-0.9,0.9c0,0,0,0,0,5.1c0,0.5-0.4,0.9-1,0.9c0,0,0,0-5,0c-0.5,0-0.9-0.4-0.9-0.9c0,0,0,0,0-5.1
			c0-0.5-0.4-0.9-0.9-0.9h-3c-0.5,0-0.6-0.3-0.3-0.7c0,0,0,0,6.9-6.8C-61.5-82.7-61.1-82.9-61.1-82.9z"/>
		<path id="path3465" class="st5" d="M-71.8-72.1c0.1,0.1,0.2,0.2,0.2,0.5v14.2c0,0.2-0.1,0.4-0.2,0.4c-0.1,0-0.3,0-0.5-0.1
			c0,0,0,0-6.8-6.8c-0.4-0.3-0.4-0.9,0-1.3c0,0,0,0,6.8-6.7C-72.1-72.2-71.9-72.2-71.8-72.1z"/>
		<path id="path3467" class="st5" d="M-63.3-61c0,0,0,0,5,0c0.6,0,1,0.4,1,0.9c0,0,0,0,0,5.3c0,0.6,0.4,1,0.9,1h2.6
			c0.5,0,0.7,0.3,0.3,0.6c0,0,0,0-6.7,6.7c-0.2,0.2-0.4,0.3-0.7,0.3c-0.2,0-0.5-0.1-0.7-0.3c0,0,0,0-6.7-6.7
			c-0.4-0.3-0.2-0.6,0.3-0.6c0,0,0,0,2.8,0c0.5,0,0.9-0.4,0.9-1c0,0,0,0,0-5.3C-64.2-60.6-63.8-61-63.3-61z"/>
	</g>
</g>
</svg>
