<?xml version="1.0" encoding="utf-8"?>
<!-- Generator: Adobe Illustrator 26.0.0, SVG Export Plug-In . SVG Version: 6.00 Build 0)  -->
<svg version="1.1" id="Шар_1" xmlns="http://www.w3.org/2000/svg" xmlns:xlink="http://www.w3.org/1999/xlink" x="0px" y="0px"
	 viewBox="0 0 100 70" style="enable-background:new 0 0 100 70;" xml:space="preserve">
<style type="text/css">
	.st0{fill:#FDCE00;}
	.st1{fill:#B2B2B3;}
	.st2{fill:#3F53A1;}
	.st3{fill:#95B51F;}
	.st4{fill-rule:evenodd;clip-rule:evenodd;fill:#ED1C24;}
	.st5{fill:#1B4392;}
	.st6{fill-rule:evenodd;clip-rule:evenodd;fill:url(#SVGID_1_);}
	
		.st7{opacity:0.4;fill-rule:evenodd;clip-rule:evenodd;fill:url(#SVGID_00000103236214252138189640000004283557836720662148_);enable-background:new    ;}
	
		.st8{opacity:0.4;fill-rule:evenodd;clip-rule:evenodd;fill:url(#SVGID_00000008150570331264463510000000423583186986744991_);enable-background:new    ;}
	.st9{fill-rule:evenodd;clip-rule:evenodd;fill:url(#SVGID_00000141424752158404689860000009578784531255292351_);}
	.st10{fill-rule:evenodd;clip-rule:evenodd;fill:url(#SVGID_00000085944737195581794990000013988099443021513907_);}
	
		.st11{opacity:0.4;fill-rule:evenodd;clip-rule:evenodd;fill:url(#SVGID_00000183951100008209675330000007581109086570491560_);enable-background:new    ;}
	
		.st12{opacity:0.4;fill-rule:evenodd;clip-rule:evenodd;fill:url(#SVGID_00000114065403135292056860000013976915255466914971_);enable-background:new    ;}
	.st13{fill-rule:evenodd;clip-rule:evenodd;fill:url(#SVGID_00000122685806352196023020000007783087085959720616_);}
	.st14{fill-rule:evenodd;clip-rule:evenodd;}
	.st15{fill-rule:evenodd;clip-rule:evenodd;fill:#3C4043;}
	.st16{fill:#4285F4;}
	.st17{fill:#34A853;}
	.st18{fill:#FBBC04;}
	.st19{fill:#EA4335;}
</style>
<g>
	<path d="M4.3,25.1v12h2.1c1.9,0,3.3-0.6,4.4-1.7c1.1-1.1,1.6-2.6,1.6-4.5c0-1.8-0.5-3.2-1.6-4.3c-1-1-2.5-1.6-4.4-1.6H4.3z M0,40.6
		v-19h6.7c6.8,0,10.1,3.1,10.1,9.3c0,3-0.9,5.3-2.8,7.1c-1.8,1.8-4.3,2.6-7.4,2.6H0z"/>
	<path d="M27.4,32.4c0-1.9-0.8-2.9-2.4-2.9c-0.7,0-1.3,0.3-1.7,0.8c-0.5,0.6-0.8,1.3-0.9,2.1H27.4z M31.3,35h-8.9c0.1,2,1.4,3,3.7,3
		c1.5,0,2.8-0.3,3.9-1.1v3c-1.3,0.7-2.9,1-4.9,1c-2.2,0-3.9-0.6-5.1-1.8c-1.2-1.2-1.8-2.9-1.8-5.1c0-2.3,0.7-4,2-5.3
		c1.3-1.3,2.9-2,4.8-2c2,0,3.5,0.6,4.6,1.8c1.1,1.2,1.6,2.8,1.6,4.8L31.3,35L31.3,35z"/>
	<path d="M37.4,40.6h-4.2V20.5h4.2V40.6z"/>
	<path d="M44.6,40.6h-4.2V27h4.2V40.6z M42.6,24.9c-0.7,0-1.3-0.2-1.7-0.6c-0.5-0.4-0.7-0.9-0.7-1.5c0-0.6,0.2-1.1,0.7-1.5
		c0.5-0.4,1-0.6,1.7-0.6c0.7,0,1.3,0.2,1.7,0.6c0.5,0.4,0.7,0.9,0.7,1.5c0,0.6-0.2,1.2-0.7,1.6C43.9,24.7,43.3,24.9,42.6,24.9z"/>
	<path d="M60.6,27l-5.1,13.6h-4.8L45.9,27h4.5l2.4,8.4c0.3,1,0.4,1.8,0.5,2.4h0.1c0.1-0.6,0.2-1.4,0.5-2.3l2.4-8.4L60.6,27L60.6,27z
		"/>
	<path d="M69.9,32.4c0-1.9-0.8-2.9-2.4-2.9c-0.7,0-1.3,0.3-1.7,0.8c-0.5,0.6-0.8,1.3-0.9,2.1H69.9z M73.8,35h-8.9c0.1,2,1.4,3,3.7,3
		c1.5,0,2.8-0.3,3.9-1.1v3c-1.3,0.7-2.9,1-4.9,1c-2.2,0-3.9-0.6-5.1-1.8c-1.2-1.2-1.8-2.9-1.8-5.1c0-2.3,0.7-4,2-5.3
		c1.3-1.3,2.9-2,4.8-2c2,0,3.5,0.6,4.6,1.8c1.1,1.2,1.6,2.8,1.6,4.8L73.8,35L73.8,35z"/>
	<path d="M84.6,30.8c-0.5-0.3-1.1-0.4-1.8-0.4c-0.9,0-1.6,0.3-2.1,1c-0.5,0.7-0.8,1.6-0.8,2.7v6.5h-4.2V27h4.2v2.5h0.1
		c0.7-1.8,1.9-2.7,3.6-2.7c0.4,0,0.8,0,1,0.2V30.8z"/>
	<path d="M100,27l-5.5,14.6c-1.3,3.5-3.3,5.3-6,5.3c-1,0-1.8-0.1-2.5-0.3v-3.3c0.6,0.3,1.2,0.5,1.8,0.5c1.1,0,1.8-0.5,2.3-1.5
		l0.7-1.7L85.2,27h4.6l2.5,8.2c0.2,0.5,0.3,1.1,0.4,1.8h0.1c0.1-0.5,0.2-1.1,0.4-1.8l2.6-8.3H100z"/>
	<path d="M19.4,53.6c-1.1,0.6-2.2,0.9-3.3,0.9c-1.4,0-2.6-0.5-3.4-1.4c-0.9-1-1.3-2.2-1.3-3.8c0-1.6,0.5-2.9,1.4-3.9
		c0.9-1.1,2.2-1.6,3.8-1.6c0.9,0,1.8,0.2,2.7,0.5v0.8c-0.9-0.5-1.9-0.7-2.8-0.7c-1.3,0-2.4,0.5-3.2,1.3c-0.8,0.9-1.2,2-1.2,3.4
		c0,1.5,0.4,2.6,1.1,3.4c0.7,0.8,1.8,1.2,3,1.2c0.9,0,1.8-0.2,2.5-0.6v-3.4h-2.5v-0.6h3.2L19.4,53.6L19.4,53.6z"/>
	<path d="M22.2,44.6V49H24c0.8,0,1.4-0.2,1.9-0.6c0.5-0.4,0.7-1,0.7-1.7c0-0.7-0.2-1.2-0.6-1.6c-0.4-0.4-1-0.6-1.8-0.6H22.2z
		 M26.8,54.3l-1.4-3c-0.3-0.6-0.6-1-0.9-1.3c-0.3-0.2-0.7-0.3-1.1-0.3h-1.3v4.6h-0.7V43.9h2.9c0.9,0,1.6,0.2,2.2,0.7
		c0.5,0.5,0.8,1.1,0.8,2c0,0.8-0.2,1.4-0.7,1.9c-0.4,0.5-1,0.8-1.8,1v0c0.4,0.2,0.8,0.7,1.2,1.5l1.5,3.3L26.8,54.3L26.8,54.3z"/>
	<path d="M33.8,44.4c-1.2,0-2.2,0.4-3,1.3c-0.8,0.9-1.2,2-1.2,3.4c0,1.4,0.4,2.6,1.1,3.4c0.7,0.8,1.7,1.3,3,1.3
		c1.3,0,2.3-0.4,3.1-1.3c0.8-0.8,1.1-2,1.1-3.5c0-1.5-0.4-2.6-1.1-3.4C36,44.8,35,44.4,33.8,44.4z M33.7,54.5
		c-1.5,0-2.6-0.5-3.5-1.5c-0.9-1-1.3-2.2-1.3-3.8c0-1.7,0.5-3,1.3-4c0.9-1,2.1-1.5,3.7-1.5c1.4,0,2.5,0.5,3.4,1.4
		c0.9,1,1.3,2.2,1.3,3.8c0,1.7-0.4,3.1-1.3,4.1C36.4,54,35.2,54.5,33.7,54.5z"/>
	<path d="M47.5,50.2c0,2.9-1.2,4.3-3.7,4.3c-2.3,0-3.5-1.4-3.5-4.2V44H41v6.3c0,2.4,1,3.6,3,3.6c1.9,0,2.8-1.2,2.8-3.5V44h0.7
		L47.5,50.2L47.5,50.2z"/>
	<path d="M50.5,44.6v4.9H52c0.9,0,1.7-0.2,2.1-0.7c0.5-0.5,0.7-1.1,0.7-1.9c0-1.6-0.9-2.3-2.7-2.3L50.5,44.6L50.5,44.6z M50.5,50.2
		v4.2h-0.7V44h2.5c1.1,0,1.9,0.2,2.5,0.7c0.6,0.5,0.8,1.2,0.8,2.2c0,1-0.3,1.8-1,2.4c-0.6,0.6-1.5,0.9-2.6,0.9L50.5,50.2L50.5,50.2z
		"/>
	<path class="st0" d="M63.3,24.5h-7.1L60,20l-3.8-4.5h7.1l3.8,4.5L63.3,24.5z"/>
	<path class="st1" d="M74.2,24.5h-7.1l3.8-4.5l-3.8-4.5h7.1l3.8,4.5L74.2,24.5z"/>
	<path class="st2" d="M85.2,24.5h-7.1l3.8-4.5l-3.8-4.5h7.1L89,20L85.2,24.5z"/>
	<path class="st3" d="M96.2,24.5H89l3.8-4.5L89,15.5h7.1L100,20L96.2,24.5z"/>
</g>
</svg>
