<?xml version="1.0" encoding="utf-8"?>
<!-- Generator: Adobe Illustrator 26.0.0, SVG Export Plug-In . SVG Version: 6.00 Build 0)  -->
<svg version="1.1" id="Шар_1" xmlns="http://www.w3.org/2000/svg" xmlns:xlink="http://www.w3.org/1999/xlink" x="0px" y="0px"
	 viewBox="0 0 100 70" style="enable-background:new 0 0 100 70;" xml:space="preserve">
<style type="text/css">
	.st0{fill:#FFFFFF;}
	.st1{fill:#FDCE00;}
	.st2{fill:#B2B2B3;}
	.st3{fill:#3F53A1;}
	.st4{fill:#95B51F;}
	.st5{fill-rule:evenodd;clip-rule:evenodd;fill:#ED1C24;}
	.st6{fill:#1B4392;}
	.st7{fill-rule:evenodd;clip-rule:evenodd;fill:url(#SVGID_1_);}
	
		.st8{opacity:0.4;fill-rule:evenodd;clip-rule:evenodd;fill:url(#SVGID_00000066506616500562559290000012560165176695053231_);enable-background:new    ;}
	
		.st9{opacity:0.4;fill-rule:evenodd;clip-rule:evenodd;fill:url(#SVGID_00000106120905225681816770000013099803250872778135_);enable-background:new    ;}
	.st10{fill-rule:evenodd;clip-rule:evenodd;fill:url(#SVGID_00000150802668370840516010000015517803811749732487_);}
	.st11{fill-rule:evenodd;clip-rule:evenodd;fill:url(#SVGID_00000101101605619034845800000002343489429276075908_);}
	
		.st12{opacity:0.4;fill-rule:evenodd;clip-rule:evenodd;fill:url(#SVGID_00000070101775474235158330000006236750890283778731_);enable-background:new    ;}
	
		.st13{opacity:0.4;fill-rule:evenodd;clip-rule:evenodd;fill:url(#SVGID_00000000220709750590387540000010910851228799130787_);enable-background:new    ;}
	.st14{fill-rule:evenodd;clip-rule:evenodd;fill:url(#SVGID_00000163068281292736591410000015684035326034801065_);}
	.st15{fill-rule:evenodd;clip-rule:evenodd;}
	.st16{fill-rule:evenodd;clip-rule:evenodd;fill:#3C4043;}
	.st17{fill:#4285F4;}
	.st18{fill:#34A853;}
	.st19{fill:#FBBC04;}
	.st20{fill:#EA4335;}
</style>
<path class="st6" d="M16.6,36.9l2.1-5.5l2.1,5.5L16.6,36.9z M15.6,39.4h6.1l1.1,2.9h2.7l-5.8-15.2h-2.1l-5.9,15.2h2.7L15.6,39.4z
	 M24.6,29.6H29v12.6h2.5V29.6h4.4v-2.5H24.6V29.6z M4.4,36h2.3c1.1,0,1.9,0.9,1.9,1.9c0,1.1-0.9,1.9-1.9,1.9H0.4v2.5h6.3
	c2.4,0,4.4-2,4.4-4.4c0-2.4-2-4.4-4.4-4.4H4.4c-1.1,0-1.9-0.9-1.9-1.9c0-1,0.7-1.8,1.7-1.9l0.1,0h5.8v-2.5H4.4c-2.4,0-4.4,2-4.4,4.4
	S2,35.9,4.4,36z M41.6,32.7c0.4,0,0.7-0.1,1-0.4c0.2-0.3,0.4-0.7,0.5-1.1c0.1-0.5,0.2-1.1,0.2-1.8l0-1.4h2v4.7h1.2v-5.8h-4.2
	l-0.1,2.5c0,0.6,0,1-0.1,1.4c0,0.3-0.1,0.6-0.3,0.7c-0.1,0.2-0.4,0.2-0.6,0.2l-0.3,0l-0.1,1.1l0.2,0C41.3,32.7,41.5,32.7,41.6,32.7z
	 M53.5,29.8c0,0.3-0.1,0.7-0.3,1c-0.2,0.3-0.4,0.5-0.7,0.7c-0.6,0.3-1.3,0.3-1.9,0c-0.3-0.2-0.5-0.4-0.7-0.7c-0.2-0.3-0.3-0.6-0.3-1
	c0-0.3,0.1-0.7,0.3-1c0.2-0.3,0.4-0.5,0.7-0.7c0.3-0.2,0.6-0.3,1-0.3c0.3,0,0.7,0.1,1,0.3c0.3,0.2,0.5,0.4,0.7,0.7
	C53.5,29.1,53.5,29.4,53.5,29.8z M54.3,31.3c0.3-0.4,0.4-1,0.4-1.5c0-0.6-0.1-1.1-0.4-1.5c-0.3-0.4-0.6-0.8-1.1-1
	c-0.5-0.3-1-0.4-1.5-0.4s-1.1,0.1-1.6,0.4c-0.5,0.3-0.8,0.6-1.1,1.1c-0.3,0.4-0.4,1-0.4,1.5s0.1,1,0.4,1.5c0.3,0.4,0.6,0.8,1.1,1
	c0.5,0.3,1,0.4,1.6,0.4s1.1-0.1,1.5-0.4C53.7,32.1,54.1,31.7,54.3,31.3z M56,32.6h1.2v-4.7h2.7l0-1.1H56V32.6z M62.5,26.8h-1.3v5.8
	h1.3V26.8z M69.3,31.8l0.1-0.1l-0.8-0.8l-0.1,0.2c-0.4,0.4-0.8,0.6-1.4,0.6c-0.4,0-0.7-0.1-1-0.3c-0.3-0.2-0.5-0.4-0.7-0.7
	c-0.2-0.3-0.3-0.6-0.3-1c0-0.3,0.1-0.7,0.3-1c0.2-0.3,0.4-0.5,0.7-0.7c0.3-0.2,0.6-0.3,1-0.3c0.5,0,1,0.2,1.4,0.6l0.1,0.2l0.8-0.8
	l-0.1-0.1c-0.3-0.3-0.6-0.5-1-0.7c-0.4-0.1-0.8-0.2-1.2-0.2c-0.6,0-1.1,0.1-1.5,0.4c-0.5,0.2-0.8,0.6-1.1,1c-0.3,0.4-0.4,1-0.4,1.5
	c0,0.6,0.1,1.1,0.4,1.5c0.3,0.4,0.6,0.8,1.1,1c0.4,0.3,1,0.4,1.5,0.4c0.4,0,0.9-0.1,1.2-0.2C68.7,32.3,69,32.1,69.3,31.8z
	 M75.4,26.8h-4.8v1.1h1.8v4.7h1.2v-4.7h1.8V26.8z M81.9,32.6v-5.8h-1L78,30.6v-3.8h-1.2v5.8h1l2.8-3.7v3.7L81.9,32.6z M83.8,26.8
	v5.8h1.1v-2.4h0.8l1.8,2.4h1.4l-2.1-3l2.1-2.8h-1.4l-1.7,2.4h-0.8v-2.4H83.8z M91.4,30.3l0.8-1.9l0.8,1.9H91.4z M91,31.3h2.4
	l0.6,1.3v0h1.2l-2.5-5.8v0h-1l-2.5,5.8h1.2L91,31.3L91,31.3z M45.1,37.4v3.6h-2.3c0.1-0.2,0.2-0.4,0.2-0.8c0.1-0.5,0.1-1.1,0.2-1.9
	l0-0.9L45.1,37.4L45.1,37.4z M46.2,36.3h-4.1l0,1.9c0,0.9-0.1,1.6-0.2,2.1c-0.1,0.4-0.3,0.6-0.5,0.7h-0.5v2.3h1.1V42h3.8v1.2H47
	v-2.3h-0.7V36.3z M48.8,38.7c0,0.6,0,1-0.1,1.4c0,0.3-0.1,0.6-0.3,0.7c-0.1,0.2-0.4,0.2-0.5,0.1l-0.3-0.1l-0.1,1.1l0.2,0
	c0.2,0,0.3,0.1,0.5,0.1c0.4,0,0.7-0.1,1-0.4c0.2-0.3,0.4-0.7,0.5-1.1c0.1-0.5,0.1-1.1,0.2-1.8l0-1.4h1.9V42h1.1v-5.8h-4.1L48.8,38.7
	z M57.3,37.4v2.1h-1.1c-0.3,0-0.7-0.1-0.8-0.3c-0.2-0.2-0.3-0.4-0.3-0.7c0-0.3,0.1-0.6,0.3-0.8c0.2-0.2,0.5-0.3,0.9-0.3H57.3z
	 M54.5,36.8c-0.4,0.4-0.6,0.9-0.6,1.6c0,0.4,0.1,0.9,0.4,1.2c0.2,0.3,0.4,0.5,0.7,0.6l-1.2,1.8h1.3l1-1.6h1.3v1.6h1.1v-5.8h-2.3
	C55.5,36.3,54.9,36.4,54.5,36.8z M66.1,40.2c0,0.3-0.1,0.4-0.3,0.6C65.6,40.9,65.3,41,65,41h-1.2v-1.5H65
	C66,39.5,66.1,39.9,66.1,40.2z M65.1,38.4h-1.4v-1.1h3.2v-1.1h-4.3V42H65c0.7,0,1.2-0.2,1.6-0.5c0.4-0.3,0.6-0.8,0.6-1.4
	c0-0.6-0.2-1-0.6-1.3C66.3,38.6,65.8,38.4,65.1,38.4z M69.9,36.3h-1.3V42h1.3V36.3z M74.9,39c0.1-0.1,0.2-0.2,0.3-0.3
	c0.2-0.3,0.3-0.5,0.3-0.8c0-0.3-0.1-0.7-0.3-0.9c-0.2-0.3-0.5-0.4-0.8-0.6c-0.6-0.2-1.3-0.3-2-0.1c-0.3,0.1-0.6,0.2-0.9,0.3
	l-0.2,0.1l0.4,1l0.2-0.1c0.2-0.1,0.4-0.2,0.7-0.3c0.6-0.2,1.1-0.1,1.4,0.1c0.2,0.1,0.3,0.3,0.3,0.5c0,0.2,0,0.3-0.2,0.4
	c-0.1,0.1-0.3,0.2-0.7,0.2h-1.3v1h1.4c0.4,0,0.6,0,0.8,0.2c0.1,0.1,0.2,0.3,0.2,0.4c0,0.3-0.1,0.4-0.3,0.6c-0.4,0.3-1.1,0.3-1.7,0.1
	c-0.3-0.1-0.5-0.2-0.7-0.4l-0.2-0.2l-0.4,1l0.1,0.1c0.3,0.2,0.6,0.4,1,0.5C72.6,42,73,42,73.3,42c0.4,0,0.8-0.1,1.1-0.2
	c0.4-0.1,0.7-0.3,0.9-0.6c0.2-0.3,0.3-0.6,0.4-1c0-0.3-0.1-0.7-0.3-1C75.2,39.2,75.1,39.1,74.9,39z M80.6,38.6H78v-2.3h-1.1V42H78
	v-2.4h2.5V42h1.2v-5.8h-1.2V38.6z M84.5,39.7h2.6v-1.1h-2.6v-1.2h2.9v-1.1h-4.1V42h4.2v-1.1h-3V39.7z M90.6,37.6
	c0.3-0.2,0.6-0.2,0.9-0.2c0.5,0,0.9,0.2,1.3,0.6l0.2,0.2l0.8-0.8l-0.1-0.1c-0.3-0.3-0.6-0.5-0.9-0.7c-0.4-0.1-0.8-0.2-1.2-0.2
	c-0.6,0-1.1,0.1-1.5,0.4c-0.4,0.3-0.8,0.6-1.1,1c-0.3,0.4-0.4,1-0.4,1.5c0,0.6,0.1,1,0.4,1.5c0.3,0.4,0.6,0.8,1.1,1
	c0.4,0.3,1,0.4,1.5,0.4c0.4,0,0.8-0.1,1.2-0.2c0.3-0.2,0.7-0.4,0.9-0.7l0.1-0.1L93,40.4l-0.2,0.2c-0.4,0.4-0.8,0.6-1.3,0.6
	c-0.3,0-0.6-0.1-0.9-0.2c-0.3-0.2-0.5-0.4-0.7-0.7c-0.2-0.3-0.2-0.6-0.2-1c0-0.3,0.1-0.7,0.2-1C90.1,37.9,90.3,37.7,90.6,37.6z
	 M97.2,39.4l-1.5-3.1v0h-1.3l2.2,4.3l0,0.1c-0.3,0.4-0.5,0.5-1,0.3l-0.2-0.1l-0.3,1l0.2,0.1c0.3,0.1,0.5,0.2,0.8,0.2
	c0.4,0,0.7-0.1,0.9-0.3c0.3-0.2,0.5-0.5,0.7-0.9l2.4-4.7h-1.2L97.2,39.4z"/>
</svg>
