<svg width="13" height="14" viewBox="0 0 13 14" fill="none" xmlns="http://www.w3.org/2000/svg">
<g id="Group 1119">
<path id="Icon" fill-rule="evenodd" clip-rule="evenodd" d="M0.239909 7.24032C-0.0799684 7.55965 -0.0799683 8.07449 0.239909 8.39382L5.66477 13.8094C5.91937 14.0635 6.33064 14.0635 6.58523 13.8094L12.0101 8.39381C12.33 8.07448 12.33 7.55965 12.0101 7.24032C11.6902 6.92099 11.1745 6.92099 10.8546 7.24032L6.12174 11.9586L1.38886 7.2338C1.07551 6.92099 0.553259 6.92099 0.239909 7.24032Z" fill="#12203A"/>
<path id="Icon_2" fill-rule="evenodd" clip-rule="evenodd" d="M0.239909 0.24032C-0.0799684 0.559649 -0.0799683 1.07449 0.239909 1.39382L5.66477 6.80938C5.91937 7.06354 6.33064 7.06354 6.58523 6.80938L12.0101 1.39381C12.33 1.07448 12.33 0.559647 12.0101 0.240318C11.6902 -0.0790114 11.1745 -0.0790113 10.8546 0.240318L6.12174 4.95857L1.38886 0.233802C1.07551 -0.07901 0.553259 -0.0790099 0.239909 0.24032Z" fill="#12203A"/>
</g>
</svg>
