<svg width="13" height="14" viewBox="0 0 13 14" fill="none" xmlns="http://www.w3.org/2000/svg">
<g id="Group 1118">
<path id="Icon" fill-rule="evenodd" clip-rule="evenodd" d="M12.0101 6.75968C12.33 6.44035 12.33 5.92551 12.0101 5.60618L6.58523 0.190619C6.33063 -0.0635409 5.91936 -0.0635408 5.66477 0.19062L0.239908 5.60619C-0.0799696 5.92552 -0.0799695 6.44035 0.239908 6.75968C0.559786 7.07901 1.07551 7.07901 1.39538 6.75968L6.12826 2.04143L10.8611 6.7662C11.1745 7.07901 11.6967 7.07901 12.0101 6.75968Z" fill="#12203A"/>
<path id="Icon_2" fill-rule="evenodd" clip-rule="evenodd" d="M12.0101 13.7597C12.33 13.4403 12.33 12.9255 12.0101 12.6062L6.58523 7.19062C6.33063 6.93646 5.91936 6.93646 5.66477 7.19062L0.239908 12.6062C-0.0799696 12.9255 -0.0799695 13.4404 0.239908 13.7597C0.559786 14.079 1.07551 14.079 1.39538 13.7597L6.12826 9.04143L10.8611 13.7662C11.1745 14.079 11.6967 14.079 12.0101 13.7597Z" fill="#12203A"/>
</g>
</svg>
