<svg width="8" height="11" viewBox="0 0 8 11" fill="none" xmlns="http://www.w3.org/2000/svg">
<path d="M6.52842 5.50195L0.15942 10.299C0.106984 10.3377 0.0655279 10.3836 0.0374522 10.4341C0.00937653 10.4845 -0.00476217 10.5386 -0.00414419 10.5931C-0.00352621 10.6476 0.0118356 10.7015 0.0410514 10.7516C0.0702672 10.8018 0.112758 10.8471 0.166064 10.8852C0.21937 10.9232 0.282433 10.9531 0.351604 10.9731C0.420775 10.9931 0.494682 11.0029 0.569045 11.0019C0.643407 11.0008 0.716751 10.989 0.784832 10.9671C0.852912 10.9451 0.914376 10.9135 0.96567 10.874L7.71567 5.78944C7.81784 5.71247 7.875 5.60933 7.875 5.50195C7.875 5.39457 7.81784 5.29143 7.71567 5.21447L0.96567 0.1299C0.914376 0.0904255 0.852912 0.0587988 0.784832 0.03685C0.716751 0.0149002 0.643407 0.00306416 0.569045 0.00202656C0.494682 0.00098896 0.420775 0.0107698 0.351604 0.0308046C0.282433 0.0508385 0.21937 0.0807276 0.166064 0.118742C0.112758 0.156756 0.0702672 0.202143 0.0410514 0.252273C0.0118356 0.302402 -0.00352621 0.35628 -0.00414419 0.410789C-0.00476217 0.465299 0.00937653 0.519357 0.0374522 0.569836C0.0655279 0.620314 0.106984 0.66621 0.15942 0.704869L6.52842 5.50195Z" fill="black"/>
</svg>
