<svg width="15" height="15" viewBox="0 0 15 15" fill="none" xmlns="http://www.w3.org/2000/svg">
<rect width="15" height="15" fill="#777575"/>
<g id="&#208;&#154;&#208;&#176;&#209;&#130;&#208;&#176;&#208;&#187;&#208;&#190;&#208;&#179; &#209;&#130;&#208;&#190;&#208;&#178;&#208;&#176;&#209;&#128;&#209;&#150;&#208;&#178; &#208;&#191;&#208;&#187;&#208;&#184;&#209;&#130;&#208;&#186;&#208;&#176; &#208;&#191;&#208;&#187;&#208;&#176;&#208;&#189;&#209;&#136;&#208;&#181;&#209;&#130;" clip-path="url(#clip0_681_21946)">
<rect width="1024" height="4017" transform="translate(-796 -654)" fill="white"/>
<rect id="bg" x="-796" y="-546" width="1024" height="4166" fill="#F5F5F5"/>
<g id="all products">
<g id="sorting">
<rect x="-158.5" y="-9.5" width="181" height="34" rx="3.5" fill="white"/>
<g id="arrow">
<path id="Vector" d="M7.84268 9.8583L12.8693 4.76669C12.9532 4.68173 13 4.56886 13 4.45149C13 4.33412 12.9532 4.22125 12.8693 4.13629L12.8636 4.13081C12.8229 4.08948 12.7739 4.05657 12.7197 4.03408C12.6654 4.0116 12.607 4 12.5479 4C12.4888 4 12.4304 4.0116 12.3761 4.03408C12.3218 4.05657 12.2729 4.08948 12.2322 4.13081L7.49905 8.92549L2.76781 4.13081C2.72713 4.08948 2.67816 4.05657 2.62389 4.03409C2.56961 4.0116 2.51117 4 2.45211 4C2.39304 4 2.3346 4.0116 2.28032 4.03409C2.22605 4.05657 2.17709 4.08948 2.13641 4.13081L2.13073 4.13629C2.04681 4.22125 2 4.33412 2 4.45149C2 4.56886 2.04681 4.68173 2.13073 4.76669L7.15732 9.8583C7.20153 9.90308 7.25469 9.93872 7.3136 9.96308C7.3725 9.98744 7.43592 10 7.5 10C7.56408 10 7.6275 9.98744 7.6864 9.96308C7.74531 9.93872 7.79848 9.90308 7.84268 9.8583Z" fill="#C9C9C9"/>
</g>
<rect x="-158.5" y="-9.5" width="181" height="34" rx="3.5" stroke="#E7E7E7"/>
</g>
</g>
</g>
<defs>
<clipPath id="clip0_681_21946">
<rect width="1024" height="4017" fill="white" transform="translate(-796 -654)"/>
</clipPath>
</defs>
</svg>
