<svg width="43" height="85" viewBox="0 0 43 85" fill="none" xmlns="http://www.w3.org/2000/svg">
<path id="Exclude" fill-rule="evenodd" clip-rule="evenodd" d="M3 0H0V85H3C25.0914 85 43 67.0914 43 45V40C43 17.9086 25.0914 0 3 0ZM22.6471 28.9809L8.90537 42.5L22.6471 56.0191C22.7602 56.128 22.8496 56.2573 22.9102 56.3996C22.9708 56.5419 23.0013 56.6942 23 56.8478C22.9986 57.0014 22.9655 57.1533 22.9024 57.2946C22.8394 57.4358 22.7477 57.5637 22.6327 57.6709C22.5177 57.778 22.3816 57.8622 22.2324 57.9187C22.0832 57.9751 21.9237 58.0027 21.7633 57.9998C21.6028 57.9969 21.4446 57.9635 21.2977 57.9017C21.1508 57.8398 21.0182 57.7507 20.9075 57.6394L6.34377 43.3102C6.12333 43.0933 6 42.8026 6 42.5C6 42.1974 6.12333 41.9067 6.34377 41.6898L20.9075 27.3606C21.0182 27.2493 21.1508 27.1602 21.2977 27.0983C21.4446 27.0365 21.6028 27.0031 21.7633 27.0002C21.9237 26.9973 22.0832 27.0249 22.2324 27.0813C22.3816 27.1378 22.5177 27.222 22.6327 27.3291C22.7477 27.4363 22.8394 27.5642 22.9024 27.7054C22.9655 27.8467 22.9986 27.9986 23 28.1522C23.0013 28.3058 22.9708 28.4581 22.9102 28.6004C22.8496 28.7427 22.7602 28.872 22.6471 28.9809Z" fill="black" fill-opacity="0.38"/>
</svg>
