<?xml version="1.0" encoding="utf-8"?>
<!-- Generator: Adobe Illustrator 26.0.0, SVG Export Plug-In . SVG Version: 6.00 Build 0)  -->
<svg version="1.1" id="Layer_1" xmlns="http://www.w3.org/2000/svg" xmlns:xlink="http://www.w3.org/1999/xlink" x="0px" y="0px"
	 viewBox="0 0 70 70" style="enable-background:new 0 0 70 70;" xml:space="preserve">
<style type="text/css">
	.st0{fill:#D34A5B;}
	.st1{fill:#FFFFFF;}
	.st2{fill:#191919;}
	.st3{fill:#1E1E1E;}
	.st4{fill:#12203A;}
	.st5{fill:#BC6D2C;}
	.st6{fill:#002535;}
	.st7{fill:#23A098;}
	.st8{fill:#1A9186;}
	.st9{fill:#73B52D;}
	.st10{fill:#6BA826;}
	.st11{fill:#80BC39;}
	.st12{fill:#A7CD80;}
	.st13{fill:#2DB5AC;}
	.st14{fill:#B3D3AC;}
	.st15{fill:#F7D309;}
	.st16{fill:#F68C29;}
	.st17{fill:#004847;}
	.st18{fill:#013F3C;}
	.st19{fill:#3DD3C4;}
	.st20{fill:#2DAA9E;}
	.st21{fill:#EE464A;}
	.st22{fill:#086362;}
	.st23{fill:#D8B278;}
	.st24{fill:#CCA571;}
	.st25{opacity:5.000000e-02;}
	.st26{fill:#FED094;}
	.st27{fill:#EFC30C;}
	.st28{fill:#FAE56B;}
	.st29{fill:#FFDE17;}
	.st30{fill:#EFC18F;}
	.st31{fill:#B16518;}
	.st32{fill:#A2BB43;}
	.st33{fill:#8FA33A;}
	.st34{fill:#9C5A1B;}
	.st35{fill:#894915;}
	.st36{fill:#F7F4C5;}
	.st37{fill:#DDD9B1;}
	.st38{fill:#E57D28;}
	.st39{fill:#179687;}
	.st40{fill:#045452;}
	.st41{fill:#D3404A;}
	.st42{fill:#ECE46F;}
	.st43{fill:#DDD268;}
	.st44{fill:#FAEE35;}
	.st45{fill:#F4E238;}
	.st46{fill:#D7D6AF;}
	.st47{fill:#FFDCA5;}
	.st48{fill:#231F20;}
	.st49{fill:#A55E29;}
	.st50{fill:#9CCCAC;}
	.st51{fill:#EAC40A;}
	.st52{fill:#23AFA1;}
	.st53{fill:#B56528;}
	.st54{fill:#FF651D;}
	.st55{fill:#FF4A22;}
	.st56{fill:#33C9E4;}
	.st57{fill:#24B2D6;}
	.st58{fill:#AD71D8;}
	.st59{fill:#9762C4;}
	.st60{fill:#89C251;}
	.st61{fill:#79AF3C;}
	.st62{fill:#2EDEF4;}
	.st63{fill:#83B746;}
	.st64{fill:#BFE5E6;}
	.st65{fill:#20D8E5;}
	.st66{fill:#19ACCE;}
	.st67{fill:#45E8F4;}
	.st68{fill:#FFCF61;}
	.st69{opacity:0.1;}
	.st70{fill:#FFBC41;}
	.st71{fill:#F6D2A5;}
	.st72{fill:#AD91D8;}
	.st73{fill:#9F84D3;}
	.st74{fill:#FFB461;}
	.st75{fill:#1BBBCC;}
	.st76{fill:#F44F0F;}
	.st77{fill:#F4BE53;}
	.st78{fill:#EAA157;}
	.st79{fill:#FF5B46;}
	.st80{fill:#ED488A;}
	.st81{fill:#84B749;}
	.st82{fill:#DD3C7E;}
	.st83{fill:#9357C9;}
	.st84{fill:#022432;}
	.st85{fill:#7CB048;}
	.st86{fill:#DB5C22;}
	.st87{fill:#D7417E;}
	.st88{fill:#FFDC7C;}
	.st89{fill:#F4AC38;}
	.st90{fill:#A1E16F;}
	.st91{fill:#F23719;}
	.st92{fill:#A7A7A8;}
	.st93{fill:#E2E0E0;}
	.st94{fill:#E5A339;}
	.st95{fill:#B1DDDD;}
	.st96{fill:#D9206F;}
	.st97{fill:#EAA536;}
	.st98{fill:#D1427C;}
	.st99{fill:#F49C60;}
	.st100{fill:#EAA639;}
	.st101{fill:#9358C6;}
	.st102{fill:#F4493B;}
	.st103{fill:#DDB68C;}
	.st104{fill:#FDDF5C;}
	.st105{fill:#E2C447;}
	.st106{fill:#9765C4;}
	.st107{fill:#5C5F61;}
</style>
<g>
	<g>
		<g>
			<path class="st4" d="M55.1,49.4c-0.9,0-1.8-0.3-2.4-1L41.9,37.6c-0.3-0.3-0.3-0.8,0-1.1s0.8-0.3,1.1,0l10.9,10.9
				c0.8,0.8,2.2,0.7,3.1-0.2c0.5-0.5,0.7-1,0.8-1.6c0-0.6-0.2-1.1-0.5-1.5L37.7,24.2c-0.3-0.3-0.3-0.8,0-1.1c0.3-0.3,0.8-0.3,1.1,0
				l19.4,19.8c1.4,1.4,1.3,3.8-0.2,5.3c-0.7,0.7-1.7,1.2-2.7,1.2C55.3,49.4,55.2,49.4,55.1,49.4z"/>
		</g>
	</g>
	<g>
		<g>
			<path class="st4" d="M49.3,52.4c-0.9,0-1.8-0.3-2.4-1L36.6,41.2c-0.3-0.3-0.3-0.8,0-1.1c0.3-0.3,0.8-0.3,1.1,0L48,50.3
				c0.4,0.4,0.9,0.6,1.5,0.5c0.6,0,1.2-0.3,1.6-0.8c0.5-0.5,0.7-1,0.8-1.6c0-0.6-0.2-1.1-0.5-1.5l-9.5-9.5c-0.3-0.3-0.3-0.8,0-1.1
				s0.8-0.3,1.1,0l9.5,9.5c1.4,1.4,1.3,3.8-0.2,5.3C51.4,52,50.3,52.4,49.3,52.4z"/>
		</g>
	</g>
	<g>
		<g>
			<path class="st4" d="M45.3,57.3c-0.9,0-1.8-0.3-2.4-1l-3.7-3.7c-0.3-0.3-0.3-0.8,0-1.1c0.3-0.3,0.8-0.3,1.1,0l3.7,3.7
				c0.8,0.8,2.2,0.7,3.1-0.2c0.9-0.9,1-2.3,0.2-3.1L36.6,41.2c-0.3-0.3-0.3-0.8,0-1.1c0.3-0.3,0.8-0.3,1.1,0l10.7,10.7
				c1.4,1.4,1.3,3.8-0.2,5.3C47.4,56.9,46.4,57.3,45.3,57.3z"/>
		</g>
	</g>
	<g>
		<g>
			<path class="st4" d="M37.6,58.4c-0.9,0-1.8-0.3-2.4-1l-1.7-1.7c-0.3-0.3-0.3-0.8,0-1.1c0.3-0.3,0.8-0.3,1.1,0l1.7,1.7
				c0.8,0.8,2.2,0.7,3.1-0.2c0.9-0.9,1-2.3,0.2-3.1l-2.2-2.2c-0.3-0.3-0.3-0.8,0-1.1c0.3-0.3,0.8-0.3,1.1,0l2.2,2.2
				c1.4,1.4,1.3,3.8-0.2,5.3C39.7,58,38.6,58.4,37.6,58.4z"/>
		</g>
	</g>
	<g>
		<path class="st4" d="M17.5,43.9c-0.8,0-1.7-0.3-2.3-1l-0.9-0.9c-1.3-1.3-1.3-3.4,0-4.6l3.7-3.7c1.3-1.3,3.4-1.3,4.6,0l0.9,0.9
			c1.3,1.3,1.3,3.4,0,4.6L19.8,43C19.1,43.6,18.3,43.9,17.5,43.9z M20.3,34.4c-0.4,0-0.9,0.2-1.2,0.5l-3.7,3.7
			c-0.7,0.7-0.7,1.8,0,2.4l0.9,0.9c0.7,0.7,1.8,0.7,2.4,0l3.7-3.7c0.7-0.7,0.7-1.8,0-2.4l-0.9-0.9C21.1,34.5,20.7,34.4,20.3,34.4z"
			/>
	</g>
	<g>
		<g>
			<path class="st4" d="M21.9,48.4c-0.8,0-1.7-0.3-2.3-1l-0.9-0.9c-1.3-1.3-1.3-3.4,0-4.6l3.1-3.1c1.3-1.3,3.4-1.3,4.6,0l0.9,0.9
				c1.3,1.3,1.3,3.4,0,4.6l-3.1,3.1C23.6,48,22.7,48.4,21.9,48.4z M24.1,39.4c-0.4,0-0.9,0.2-1.2,0.5L19.8,43
				c-0.7,0.7-0.7,1.8,0,2.4l0.9,0.9c0.7,0.7,1.8,0.7,2.4,0l3.1-3.1c0.7-0.7,0.7-1.8,0-2.4l-0.9-0.9C24.9,39.6,24.5,39.4,24.1,39.4z"
				/>
		</g>
	</g>
	<g>
		<g>
			<path class="st4" d="M26.3,52.8c-0.8,0-1.7-0.3-2.3-1l-0.9-0.9c-1.3-1.3-1.3-3.4,0-4.6l3.1-3.1c1.3-1.3,3.4-1.3,4.6,0l0.9,0.9
				c1.3,1.3,1.3,3.4,0,4.6l-3.1,3.1C28,52.5,27.1,52.8,26.3,52.8z M28.5,43.8c-0.4,0-0.9,0.2-1.2,0.5l-3.1,3.1
				c-0.7,0.7-0.7,1.8,0,2.4l0.9,0.9c0.7,0.7,1.8,0.7,2.4,0l3.1-3.1c0.7-0.7,0.7-1.8,0-2.4l-0.9-0.9C29.4,44,28.9,43.8,28.5,43.8z"/>
		</g>
	</g>
	<g>
		<g>
			<path class="st4" d="M30.7,57.2c-0.8,0-1.7-0.3-2.3-1l-0.9-0.9c-1.3-1.3-1.3-3.4,0-4.6l3.1-3.1c1.3-1.3,3.4-1.3,4.6,0l0.9,0.9
				c1.3,1.3,1.3,3.4,0,4.6L33,56.3C32.4,56.9,31.6,57.2,30.7,57.2z M32.9,48.3c-0.4,0-0.9,0.2-1.2,0.5l-3.1,3.1
				c-0.7,0.7-0.7,1.8,0,2.4l0.9,0.9c0.7,0.7,1.8,0.7,2.4,0l3.1-3.1c0.7-0.7,0.7-1.8,0-2.4l-0.9-0.9C33.8,48.4,33.3,48.3,32.9,48.3z"
				/>
		</g>
	</g>
	<g>
		<g>
			<path class="st4" d="M14.7,37.8c-0.2,0-0.4-0.1-0.6-0.2L9,32.1c-0.2-0.2-0.3-0.6-0.1-0.9l8.1-14.9c0.1-0.1,0.2-0.2,0.3-0.3
				l0.2-0.1c3.3-1.9,7.2-2.6,11-1.9l7.7,1.4c0.4,0.1,0.7,0.5,0.6,0.9c-0.1,0.4-0.5,0.7-0.9,0.6l-7.7-1.4c-3.4-0.6-6.9,0-9.9,1.7
				l-7.7,14.2l4.8,5c0.3,0.3,0.3,0.8,0,1.1C15.1,37.7,14.9,37.8,14.7,37.8z"/>
		</g>
	</g>
	<g>
		<g>
			<path class="st4" d="M61.8,31.9c-0.2,0-0.4-0.1-0.6-0.2L59,29.4L47.1,16.3c-0.2-0.2-0.2-0.4-0.2-0.6c0-0.2,0.1-0.4,0.3-0.6
				l4.4-3.1c0.3-0.2,0.8-0.2,1,0.1l13.3,15c0.3,0.3,0.3,0.8,0,1.1l-3.5,3.3C62.2,31.8,62,31.9,61.8,31.9z"/>
		</g>
	</g>
	<g>
		<g>
			<path class="st4" d="M8.9,33.4c-0.1,0-0.3,0-0.4-0.1l-4.2-2.4c-0.4-0.2-0.5-0.7-0.3-1L13.2,12c0.2-0.4,0.6-0.5,1-0.4l5,1.9
				c0.2,0.1,0.4,0.2,0.5,0.5c0.1,0.2,0.1,0.4,0,0.6l-8.4,15.6L9.6,33C9.5,33.2,9.2,33.4,8.9,33.4z"/>
		</g>
	</g>
	<g>
		<g>
			<path class="st4" d="M37.7,14.9c-2.2,0.5-14,5.2-14.5,5.4c-0.2,0.1-0.4,0.3-0.4,0.5c-0.1,0.2-0.1,0.4,0,0.6
				c0,0.1,0.9,1.7,2.9,2.9c1.8,1.1,4.9,2.1,9.5,0.7l3.9-1.3l15.3,15.9c-0.2,0.4-0.1,0.9,0.3,1.1c0.1,0.1,0.3,0.1,0.4,0.1
				c0.3,0,0.5-0.1,0.7-0.4l4.2-7.5l-2.1-2.2l0,0l0,0L45.9,17.4c-0.4-0.5-0.7-1.1-0.6-1.8C42.6,15.1,39.1,14.6,37.7,14.9z"/>
		</g>
	</g>
</g>
</svg>
