<?xml version="1.0" encoding="utf-8"?>
<!-- Generator: Adobe Illustrator 26.0.0, SVG Export Plug-In . SVG Version: 6.00 Build 0)  -->
<svg version="1.1" id="Layer_1" xmlns="http://www.w3.org/2000/svg" xmlns:xlink="http://www.w3.org/1999/xlink" x="0px" y="0px"
	 viewBox="0 0 70 70" style="enable-background:new 0 0 70 70;" xml:space="preserve">
<style type="text/css">
	.st0{fill:#D34A5B;}
	.st1{fill:#FFFFFF;}
	.st2{fill:#191919;}
	.st3{fill:#1E1E1E;}
	.st4{fill:#12203A;}
	.st5{fill:#BC6D2C;}
	.st6{fill:#002535;}
	.st7{fill:#23A098;}
	.st8{fill:#1A9186;}
	.st9{fill:#73B52D;}
	.st10{fill:#6BA826;}
	.st11{fill:#80BC39;}
	.st12{fill:#A7CD80;}
	.st13{fill:#2DB5AC;}
	.st14{fill:#B3D3AC;}
	.st15{fill:#F7D309;}
	.st16{fill:#F68C29;}
	.st17{fill:#004847;}
	.st18{fill:#013F3C;}
	.st19{fill:#3DD3C4;}
	.st20{fill:#2DAA9E;}
	.st21{fill:#EE464A;}
	.st22{fill:#086362;}
	.st23{fill:#D8B278;}
	.st24{fill:#CCA571;}
	.st25{opacity:5.000000e-02;}
	.st26{fill:#FED094;}
	.st27{fill:#EFC30C;}
	.st28{fill:#FAE56B;}
	.st29{fill:#FFDE17;}
	.st30{fill:#EFC18F;}
	.st31{fill:#B16518;}
	.st32{fill:#A2BB43;}
	.st33{fill:#8FA33A;}
	.st34{fill:#9C5A1B;}
	.st35{fill:#894915;}
	.st36{fill:#F7F4C5;}
	.st37{fill:#DDD9B1;}
	.st38{fill:#E57D28;}
	.st39{fill:#179687;}
	.st40{fill:#045452;}
	.st41{fill:#D3404A;}
	.st42{fill:#ECE46F;}
	.st43{fill:#DDD268;}
	.st44{fill:#FAEE35;}
	.st45{fill:#F4E238;}
	.st46{fill:#D7D6AF;}
	.st47{fill:#FFDCA5;}
	.st48{fill:#231F20;}
	.st49{fill:#A55E29;}
	.st50{fill:#9CCCAC;}
	.st51{fill:#EAC40A;}
	.st52{fill:#23AFA1;}
	.st53{fill:#B56528;}
	.st54{fill:#FF651D;}
	.st55{fill:#FF4A22;}
	.st56{fill:#33C9E4;}
	.st57{fill:#24B2D6;}
	.st58{fill:#AD71D8;}
	.st59{fill:#9762C4;}
	.st60{fill:#89C251;}
	.st61{fill:#79AF3C;}
	.st62{fill:#2EDEF4;}
	.st63{fill:#83B746;}
	.st64{fill:#BFE5E6;}
	.st65{fill:#20D8E5;}
	.st66{fill:#19ACCE;}
	.st67{fill:#45E8F4;}
	.st68{fill:#FFCF61;}
	.st69{opacity:0.1;}
	.st70{fill:#FFBC41;}
	.st71{fill:#F6D2A5;}
	.st72{fill:#AD91D8;}
	.st73{fill:#9F84D3;}
	.st74{fill:#FFB461;}
	.st75{fill:#1BBBCC;}
	.st76{fill:#F44F0F;}
	.st77{fill:#F4BE53;}
	.st78{fill:#EAA157;}
	.st79{fill:#FF5B46;}
	.st80{fill:#ED488A;}
	.st81{fill:#84B749;}
	.st82{fill:#DD3C7E;}
	.st83{fill:#9357C9;}
	.st84{fill:#022432;}
	.st85{fill:#7CB048;}
	.st86{fill:#DB5C22;}
	.st87{fill:#D7417E;}
	.st88{fill:#FFDC7C;}
	.st89{fill:#F4AC38;}
	.st90{fill:#A1E16F;}
	.st91{fill:#F23719;}
	.st92{fill:#A7A7A8;}
	.st93{fill:#E2E0E0;}
	.st94{fill:#E5A339;}
	.st95{fill:#B1DDDD;}
	.st96{fill:#D9206F;}
	.st97{fill:#EAA536;}
	.st98{fill:#D1427C;}
	.st99{fill:#F49C60;}
	.st100{fill:#EAA639;}
	.st101{fill:#9358C6;}
	.st102{fill:#F4493B;}
	.st103{fill:#DDB68C;}
	.st104{fill:#FDDF5C;}
	.st105{fill:#E2C447;}
	.st106{fill:#9765C4;}
	.st107{fill:#5C5F61;}
</style>
<g>
	<g>
		<g>
			<path class="st4" d="M35.3,53.9c0,0-0.1,0-0.1,0c0,0,0,0-0.1,0c-0.1,0-0.1,0-0.2,0l0,0l0,0c-0.1,0-0.1,0-0.2,0c0,0,0,0-0.1,0
				c0,0,0,0-0.1,0l-1.2,12.7h3.1L35.3,53.9L35.3,53.9C35.3,53.9,35.3,53.9,35.3,53.9z"/>
		</g>
		<g>
			<path class="st4" d="M39.1,49.6l7.4-9.4c-1.4-0.4-2.9-0.7-4.5-0.7c-0.2,0-0.4,0.1-0.6,0.2L36,44.3L39.1,49.6z"/>
		</g>
		<g>
			<polygon class="st4" points="33.3,49.7 34.9,51.6 36.6,49.6 35,45.9 			"/>
		</g>
		<g>
			<path class="st4" d="M30.9,49.6l3.1-5.3l-5.4-4.6c-0.2-0.1-0.4-0.2-0.6-0.2c-1.6,0-3.1,0.2-4.5,0.7L30.9,49.6z"/>
		</g>
		<g>
			<path class="st4" d="M48.2,40.8l-8.4,10.8c-0.2,0.2-0.4,0.4-0.7,0.4c0,0,0,0,0,0c-0.3,0-0.5-0.1-0.7-0.3l-0.5-0.6L37,52l1.4,14.6
				H56c0.5,0,0.9-0.4,0.9-0.9V54.5C57,48.4,53.4,43.2,48.2,40.8z"/>
		</g>
		<g>
			<path class="st4" d="M33,52.2l-0.9-1l-0.4,0.5c-0.2,0.2-0.4,0.3-0.7,0.3c0,0,0,0,0,0c-0.3,0-0.5-0.1-0.7-0.4l-8.4-10.8
				c-5.1,2.4-8.7,7.6-8.7,13.6v11.2c0,0.5,0.4,0.9,0.9,0.9h17.6L33,52.2z"/>
		</g>
	</g>
	<g>
		<path class="st4" d="M46.7,18.1c0.1-2.8,0.2-7.1-3.2-10.4C40,4.3,33.6,2.9,24,3.5c-0.4,0-0.8,0.4-0.8,0.8c0,0.1,0,2.5,1.7,4.9
			c0.3,0.5,0.7,1,1.2,1.5l1.5,1.2c0.4,0.2,2.8,2.3,8.8,2.6c0,0-7.4,0.9-11.8-2.4c-1.3,2-1.3,5.2-1.3,7.5l0,8.2
			c0,5.3,4.3,9.6,9.6,9.6h4.3c5.3,0,9.6-4.3,9.6-9.6v-8c0,0,0,0,0-0.1C46.7,19.3,46.7,18.8,46.7,18.1z"/>
	</g>
</g>
</svg>
