<?xml version="1.0" encoding="utf-8"?>
<!-- Generator: Adobe Illustrator 26.0.0, SVG Export Plug-In . SVG Version: 6.00 Build 0)  -->
<svg version="1.1" id="Layer_1" xmlns="http://www.w3.org/2000/svg" xmlns:xlink="http://www.w3.org/1999/xlink" x="0px" y="0px"
	 viewBox="0 0 70 70" style="enable-background:new 0 0 70 70;" xml:space="preserve">
<style type="text/css">
	.st0{fill:#D34A5B;}
	.st1{fill:#FFFFFF;}
	.st2{fill:#191919;}
	.st3{fill:#1E1E1E;}
	.st4{fill:#12203A;}
	.st5{fill:#BC6D2C;}
	.st6{fill:#002535;}
	.st7{fill:#23A098;}
	.st8{fill:#1A9186;}
	.st9{fill:#73B52D;}
	.st10{fill:#6BA826;}
	.st11{fill:#80BC39;}
	.st12{fill:#A7CD80;}
	.st13{fill:#2DB5AC;}
	.st14{fill:#B3D3AC;}
	.st15{fill:#F7D309;}
	.st16{fill:#F68C29;}
	.st17{fill:#004847;}
	.st18{fill:#013F3C;}
	.st19{fill:#3DD3C4;}
	.st20{fill:#2DAA9E;}
	.st21{fill:#EE464A;}
	.st22{fill:#086362;}
	.st23{fill:#D8B278;}
	.st24{fill:#CCA571;}
	.st25{opacity:5.000000e-02;}
	.st26{fill:#FED094;}
	.st27{fill:#EFC30C;}
	.st28{fill:#FAE56B;}
	.st29{fill:#FFDE17;}
	.st30{fill:#EFC18F;}
	.st31{fill:#B16518;}
	.st32{fill:#A2BB43;}
	.st33{fill:#8FA33A;}
	.st34{fill:#9C5A1B;}
	.st35{fill:#894915;}
	.st36{fill:#F7F4C5;}
	.st37{fill:#DDD9B1;}
	.st38{fill:#E57D28;}
	.st39{fill:#179687;}
	.st40{fill:#045452;}
	.st41{fill:#D3404A;}
	.st42{fill:#ECE46F;}
	.st43{fill:#DDD268;}
	.st44{fill:#FAEE35;}
	.st45{fill:#F4E238;}
	.st46{fill:#D7D6AF;}
	.st47{fill:#FFDCA5;}
	.st48{fill:#231F20;}
	.st49{fill:#A55E29;}
	.st50{fill:#9CCCAC;}
	.st51{fill:#EAC40A;}
	.st52{fill:#23AFA1;}
	.st53{fill:#B56528;}
	.st54{fill:#FF651D;}
	.st55{fill:#FF4A22;}
	.st56{fill:#33C9E4;}
	.st57{fill:#24B2D6;}
	.st58{fill:#AD71D8;}
	.st59{fill:#9762C4;}
	.st60{fill:#89C251;}
	.st61{fill:#79AF3C;}
	.st62{fill:#2EDEF4;}
	.st63{fill:#83B746;}
	.st64{fill:#BFE5E6;}
	.st65{fill:#20D8E5;}
	.st66{fill:#19ACCE;}
	.st67{fill:#45E8F4;}
	.st68{fill:#FFCF61;}
	.st69{opacity:0.1;}
	.st70{fill:#FFBC41;}
	.st71{fill:#F6D2A5;}
	.st72{fill:#AD91D8;}
	.st73{fill:#9F84D3;}
	.st74{fill:#FFB461;}
	.st75{fill:#1BBBCC;}
	.st76{fill:#F44F0F;}
	.st77{fill:#F4BE53;}
	.st78{fill:#EAA157;}
	.st79{fill:#FF5B46;}
	.st80{fill:#ED488A;}
	.st81{fill:#84B749;}
	.st82{fill:#DD3C7E;}
	.st83{fill:#9357C9;}
	.st84{fill:#022432;}
	.st85{fill:#7CB048;}
	.st86{fill:#DB5C22;}
	.st87{fill:#D7417E;}
	.st88{fill:#FFDC7C;}
	.st89{fill:#F4AC38;}
	.st90{fill:#A1E16F;}
	.st91{fill:#F23719;}
	.st92{fill:#A7A7A8;}
	.st93{fill:#E2E0E0;}
	.st94{fill:#E5A339;}
	.st95{fill:#B1DDDD;}
	.st96{fill:#D9206F;}
	.st97{fill:#EAA536;}
	.st98{fill:#D1427C;}
	.st99{fill:#F49C60;}
	.st100{fill:#EAA639;}
	.st101{fill:#9358C6;}
	.st102{fill:#F4493B;}
	.st103{fill:#DDB68C;}
	.st104{fill:#FDDF5C;}
	.st105{fill:#E2C447;}
	.st106{fill:#9765C4;}
	.st107{fill:#5C5F61;}
</style>
<g>
	<g>
		<g>
			<path class="st4" d="M58.1,19.8H46c-2.2,0-4-1.8-4-4V5.1c0-0.3,0.2-0.6,0.5-0.8c0.3-0.1,0.7-0.1,0.9,0.1l15.3,13.8
				c0.3,0.2,0.3,0.6,0.2,0.9C58.8,19.6,58.4,19.8,58.1,19.8z"/>
		</g>
	</g>
	<g>
		<g>
			<path class="st4" d="M40,53.2c-0.1,0.2-0.1,0.3-0.1,0.5c0,0.2,0.2,0.3,0.3,0.4l0,0c0.3,0.2,0.8,0.1,1-0.3l0.1-0.2L40.1,53
				L40,53.2z"/>
		</g>
		<g>
			<polygon class="st4" points="49.3,37 41,51.5 41.6,51.9 42.2,52.2 50.5,37.7 49.9,37.4 			"/>
		</g>
		<g>
			<rect x="28.4" y="38.4" class="st4" width="3.3" height="3.3"/>
		</g>
		<g>
			<rect x="18.1" y="38.4" class="st4" width="3.3" height="3.3"/>
		</g>
		<g>
			<path class="st4" d="M58.1,21.5H46c-3.2,0-5.7-2.6-5.7-5.7V5.1c0-0.3,0.1-0.6,0.1-0.8H15.1c-2.2,0-4,1.8-4,4v53.4
				c0,2.2,1.8,4,4,4h39.8c2.2,0,4-1.8,4-4V21.3C58.7,21.4,58.4,21.5,58.1,21.5z M17.2,15h20.6c0.5,0,0.8,0.4,0.8,0.8
				c0,0.5-0.4,0.8-0.8,0.8H17.2c-0.5,0-0.8-0.4-0.8-0.8C16.4,15.4,16.8,15,17.2,15z M17.2,21h20.6c0.5,0,0.8,0.4,0.8,0.8
				c0,0.5-0.4,0.8-0.8,0.8H17.2c-0.5,0-0.8-0.4-0.8-0.8C16.4,21.3,16.8,21,17.2,21z M17.2,26.9h20.6c0.5,0,0.8,0.4,0.8,0.8
				c0,0.5-0.4,0.8-0.8,0.8H17.2c-0.5,0-0.8-0.4-0.8-0.8C16.4,27.3,16.8,26.9,17.2,26.9z M16.4,37.5c0-0.5,0.4-0.8,0.8-0.8h5
				c0.5,0,0.8,0.4,0.8,0.8v5c0,0.5-0.4,0.8-0.8,0.8h-5c-0.5,0-0.8-0.4-0.8-0.8V37.5z M37,58.7c-1.2,0-1.9-0.4-2.4-0.7
				c-0.5-0.3-0.8-0.5-1.6-0.5s-1.1,0.2-1.6,0.5c-0.5,0.3-1.2,0.7-2.4,0.7c-1.2,0-1.9-0.4-2.4-0.7c-0.5-0.3-0.8-0.5-1.6-0.5
				c-0.8,0-1.1,0.2-1.6,0.5c-0.5,0.3-1.2,0.7-2.4,0.7c-1.2,0-1.9-0.4-2.4-0.7c-0.5-0.3-0.8-0.5-1.6-0.5c-0.5,0-0.8-0.4-0.8-0.8
				c0-0.5,0.4-0.8,0.8-0.8c1.2,0,1.9,0.4,2.4,0.7c0.5,0.3,0.8,0.5,1.6,0.5c0.8,0,1.1-0.2,1.6-0.5c0.5-0.3,1.2-0.7,2.4-0.7
				c1.2,0,1.9,0.4,2.4,0.7c0.5,0.3,0.8,0.5,1.6,0.5c0.8,0,1.1-0.2,1.6-0.5c0.5-0.3,1.2-0.7,2.4-0.7c1.2,0,1.9,0.4,2.4,0.7
				c0.5,0.3,0.8,0.5,1.6,0.5c0.5,0,0.8,0.4,0.8,0.8C37.8,58.4,37.5,58.7,37,58.7z M26.7,42.5v-5c0-0.5,0.4-0.8,0.8-0.8h5
				c0.5,0,0.8,0.4,0.8,0.8v5c0,0.5-0.4,0.8-0.8,0.8h-5C27.1,43.4,26.7,43,26.7,42.5z M17.2,34.6c-0.5,0-0.8-0.4-0.8-0.8
				s0.4-0.8,0.8-0.8h20.6c0.5,0,0.8,0.4,0.8,0.8s-0.4,0.8-0.8,0.8H17.2z M56.2,30.5l-1.7,2.9c0.2,0.3,0.2,0.6,0,0.9l-2.1,3.6
				l-9.2,15.9l-0.6,1c-0.3,0.6-0.8,0.9-1.4,1.1c-0.2,0.1-0.4,0.1-0.6,0.1c-0.1,0-0.3,0-0.4,0l-0.4,0.6c-0.2,0.3-0.4,0.4-0.7,0.4
				c-0.1,0-0.3,0-0.4-0.1c-0.4-0.2-0.5-0.7-0.3-1.2l0.4-0.6c-0.2-0.3-0.4-0.6-0.5-0.9c-0.2-0.6-0.1-1.3,0.2-1.8l0.6-1l9.2-15.9
				l2.1-3.6c0.1-0.2,0.3-0.3,0.5-0.4c0.1,0,0.2,0,0.2,0l1.7-2.9c0.2-0.4,0.7-0.5,1.2-0.3l1.9,1.1c0.2,0.1,0.3,0.3,0.4,0.5
				C56.3,30,56.3,30.3,56.2,30.5z"/>
		</g>
		<g>
			<polygon class="st4" points="50.2,35.6 50.8,35.9 51.4,36.3 52.6,34.1 51.4,33.4 			"/>
		</g>
		<g>
			<rect x="52.3" y="31" transform="matrix(0.4999 -0.8661 0.8661 0.4999 -0.3421 61.9536)" class="st4" width="2.4" height="0.5"/>
		</g>
	</g>
</g>
</svg>
