<?xml version="1.0" encoding="utf-8"?>
<!-- Generator: Adobe Illustrator 26.0.0, SVG Export Plug-In . SVG Version: 6.00 Build 0)  -->
<svg version="1.1" id="Layer_1" xmlns="http://www.w3.org/2000/svg" xmlns:xlink="http://www.w3.org/1999/xlink" x="0px" y="0px"
	 viewBox="0 0 70 70" style="enable-background:new 0 0 70 70;" xml:space="preserve">
<style type="text/css">
	.st0{fill:#D34A5B;}
	.st1{fill:#FFFFFF;}
	.st2{fill:#191919;}
	.st3{fill:#1E1E1E;}
	.st4{fill:#12203A;}
	.st5{fill:#BC6D2C;}
	.st6{fill:#002535;}
	.st7{fill:#23A098;}
	.st8{fill:#1A9186;}
	.st9{fill:#73B52D;}
	.st10{fill:#6BA826;}
	.st11{fill:#80BC39;}
	.st12{fill:#A7CD80;}
	.st13{fill:#2DB5AC;}
	.st14{fill:#B3D3AC;}
	.st15{fill:#F7D309;}
	.st16{fill:#F68C29;}
	.st17{fill:#004847;}
	.st18{fill:#013F3C;}
	.st19{fill:#3DD3C4;}
	.st20{fill:#2DAA9E;}
	.st21{fill:#EE464A;}
	.st22{fill:#086362;}
	.st23{fill:#D8B278;}
	.st24{fill:#CCA571;}
	.st25{opacity:5.000000e-02;}
	.st26{fill:#FED094;}
	.st27{fill:#EFC30C;}
	.st28{fill:#FAE56B;}
	.st29{fill:#FFDE17;}
	.st30{fill:#EFC18F;}
	.st31{fill:#B16518;}
	.st32{fill:#A2BB43;}
	.st33{fill:#8FA33A;}
	.st34{fill:#9C5A1B;}
	.st35{fill:#894915;}
	.st36{fill:#F7F4C5;}
	.st37{fill:#DDD9B1;}
	.st38{fill:#E57D28;}
	.st39{fill:#179687;}
	.st40{fill:#045452;}
	.st41{fill:#D3404A;}
	.st42{fill:#ECE46F;}
	.st43{fill:#DDD268;}
	.st44{fill:#FAEE35;}
	.st45{fill:#F4E238;}
	.st46{fill:#D7D6AF;}
	.st47{fill:#FFDCA5;}
	.st48{fill:#231F20;}
	.st49{fill:#A55E29;}
	.st50{fill:#9CCCAC;}
	.st51{fill:#EAC40A;}
	.st52{fill:#23AFA1;}
	.st53{fill:#B56528;}
	.st54{fill:#FF651D;}
	.st55{fill:#FF4A22;}
	.st56{fill:#33C9E4;}
	.st57{fill:#24B2D6;}
	.st58{fill:#AD71D8;}
	.st59{fill:#9762C4;}
	.st60{fill:#89C251;}
	.st61{fill:#79AF3C;}
	.st62{fill:#2EDEF4;}
	.st63{fill:#83B746;}
	.st64{fill:#BFE5E6;}
	.st65{fill:#20D8E5;}
	.st66{fill:#19ACCE;}
	.st67{fill:#45E8F4;}
	.st68{fill:#FFCF61;}
	.st69{opacity:0.1;}
	.st70{fill:#FFBC41;}
	.st71{fill:#F6D2A5;}
	.st72{fill:#AD91D8;}
	.st73{fill:#9F84D3;}
	.st74{fill:#FFB461;}
	.st75{fill:#1BBBCC;}
	.st76{fill:#F44F0F;}
	.st77{fill:#F4BE53;}
	.st78{fill:#EAA157;}
	.st79{fill:#FF5B46;}
	.st80{fill:#ED488A;}
	.st81{fill:#84B749;}
	.st82{fill:#DD3C7E;}
	.st83{fill:#9357C9;}
	.st84{fill:#022432;}
	.st85{fill:#7CB048;}
	.st86{fill:#DB5C22;}
	.st87{fill:#D7417E;}
	.st88{fill:#FFDC7C;}
	.st89{fill:#F4AC38;}
	.st90{fill:#A1E16F;}
	.st91{fill:#F23719;}
	.st92{fill:#A7A7A8;}
	.st93{fill:#E2E0E0;}
	.st94{fill:#E5A339;}
	.st95{fill:#B1DDDD;}
	.st96{fill:#D9206F;}
	.st97{fill:#EAA536;}
	.st98{fill:#D1427C;}
	.st99{fill:#F49C60;}
	.st100{fill:#EAA639;}
	.st101{fill:#9358C6;}
	.st102{fill:#F4493B;}
	.st103{fill:#DDB68C;}
	.st104{fill:#FDDF5C;}
	.st105{fill:#E2C447;}
	.st106{fill:#9765C4;}
	.st107{fill:#5C5F61;}
</style>
<g>
	<g>
		<g>
			<rect x="20.1" y="37.9" class="st4" width="2.7" height="2.7"/>
		</g>
		<g>
			<rect x="20.1" y="15.2" class="st4" width="2.7" height="2.7"/>
		</g>
		<g>
			<rect x="20.1" y="26.6" class="st4" width="2.7" height="2.7"/>
		</g>
		<g>
			<path class="st4" d="M54.7,4.6H15.3c-2.2,0-4.1,1.8-4.1,4.1v52.7c0,2.2,1.8,4.1,4.1,4.1h39.3c2.2,0,4.1-1.8,4.1-4.1V8.6
				C58.7,6.4,56.9,4.6,54.7,4.6z M24.5,41.5c0,0.5-0.4,0.9-0.9,0.9h-4.5c-0.5,0-0.9-0.4-0.9-0.9V37c0-0.5,0.4-0.9,0.9-0.9h4.5
				c0.5,0,0.9,0.4,0.9,0.9V41.5z M24.5,30.1c0,0.5-0.4,0.9-0.9,0.9h-4.5c-0.5,0-0.9-0.4-0.9-0.9v-4.5c0-0.5,0.4-0.9,0.9-0.9h4.5
				c0.5,0,0.9,0.4,0.9,0.9V30.1z M24.5,18.8c0,0.5-0.4,0.9-0.9,0.9h-4.5c-0.5,0-0.9-0.4-0.9-0.9v-4.5c0-0.5,0.4-0.9,0.9-0.9h4.5
				c0.5,0,0.9,0.4,0.9,0.9V18.8z M41,57.9C41,58,41,58,41,57.9C41,58,40.9,58,41,57.9c-1.6,1.6-3.7,2.6-6,2.6
				c-4.6,0-8.4-3.8-8.4-8.4s3.8-8.4,8.4-8.4c4.6,0,8.4,3.8,8.4,8.4C43.4,54.4,42.5,56.4,41,57.9z M52.5,40.6H28.1
				c-0.5,0-0.9-0.4-0.9-0.9c0-0.5,0.4-0.9,0.9-0.9h24.4c0.5,0,0.9,0.4,0.9,0.9C53.4,40.1,53,40.6,52.5,40.6z M52.5,29.2H28.1
				c-0.5,0-0.9-0.4-0.9-0.9c0-0.5,0.4-0.9,0.9-0.9h24.4c0.5,0,0.9,0.4,0.9,0.9C53.4,28.8,53,29.2,52.5,29.2z M52.5,17.9H28.1
				c-0.5,0-0.9-0.4-0.9-0.9c0-0.5,0.4-0.9,0.9-0.9h24.4c0.5,0,0.9,0.4,0.9,0.9C53.4,17.5,53,17.9,52.5,17.9z"/>
		</g>
	</g>
	<path class="st4" d="M41.4,50.7c0-0.2-0.1-0.3-0.1-0.5c0,0,0,0,0,0c-0.1-0.2-0.1-0.3-0.2-0.5c-0.1-0.2-0.2-0.4-0.3-0.6
		c0-0.1-0.1-0.2-0.1-0.3c0,0,0,0,0,0c-0.1-0.1-0.1-0.2-0.2-0.3c-0.1-0.2-0.2-0.3-0.3-0.5c-0.1-0.1-0.2-0.2-0.3-0.3
		c-0.1-0.1-0.2-0.2-0.3-0.3c0,0,0,0-0.1-0.1c-0.2-0.2-0.5-0.4-0.7-0.6c0,0,0,0,0,0c0,0,0,0-0.1,0c-0.3-0.2-0.5-0.3-0.8-0.4h0
		c-0.2-0.1-0.3-0.2-0.5-0.2c-0.1-0.1-0.3-0.1-0.4-0.1c0,0,0,0-0.1,0c0,0,0,0,0,0c-0.2,0-0.3-0.1-0.5-0.1c-0.4-0.1-0.9-0.2-1.4-0.2
		c-0.5,0-1,0.1-1.5,0.2c-0.2,0-0.4,0.1-0.6,0.2c-0.2,0.1-0.4,0.2-0.6,0.2c-0.7,0.3-1.3,0.8-1.9,1.3c-0.1,0.1-0.3,0.3-0.4,0.4
		c-0.2,0.2-0.3,0.4-0.5,0.7c0,0,0,0,0,0c0,0,0,0,0,0c0,0.1-0.1,0.1-0.1,0.2c0,0.1-0.1,0.1-0.1,0.2c0,0,0,0,0,0
		c-0.1,0.1-0.1,0.2-0.2,0.4c-0.1,0.2-0.2,0.3-0.2,0.5c-0.1,0.2-0.1,0.4-0.2,0.6c-0.1,0.2-0.1,0.4-0.1,0.6c0,0.2-0.1,0.4-0.1,0.6
		c0,0.2,0,0.4,0,0.6c0,3.6,2.9,6.6,6.6,6.6c2.5,0,4.6-1.3,5.7-3.3c0.1-0.1,0.1-0.2,0.2-0.4c0.2-0.4,0.3-0.8,0.4-1.2
		c0.2-0.5,0.2-1.1,0.2-1.7C41.6,51.6,41.5,51.1,41.4,50.7z M36.9,55.4c-0.3,0.4-0.8,0.6-1.5,0.7v1.4h-0.8v-1.3c-0.7,0-1.5-0.3-2-0.6
		l0.3-0.9c0,0,0.1,0.1,0.1,0.1c0.5,0.3,1.1,0.5,1.7,0.5c0.6,0,1.1-0.2,1.4-0.6c0,0,0.1-0.1,0.1-0.1c0.1-0.2,0.1-0.3,0.1-0.5
		c0-0.3-0.1-0.6-0.4-0.9c0,0,0,0,0-0.1c-0.2-0.2-0.6-0.4-1.1-0.6c-0.3-0.1-0.6-0.3-0.9-0.4c-0.8-0.5-1.3-1-1.3-1.9
		c0-0.9,0.5-1.6,1.3-1.9c0.2-0.1,0.4-0.2,0.7-0.2v-1.3h0.8V48c0.2,0,0.4,0,0.6,0.1c0.5,0.1,0.8,0.2,1.1,0.4l-0.3,0.9
		c0,0-0.1,0-0.1-0.1c-0.2-0.1-0.4-0.2-0.7-0.3c0,0-0.1,0-0.1,0c-0.2,0-0.5-0.1-0.7-0.1c-0.5,0-0.9,0.2-1.1,0.4
		c-0.1,0.1-0.1,0.1-0.1,0.2c-0.1,0.2-0.1,0.4-0.1,0.5c0,0.2,0,0.4,0.1,0.5c0,0.1,0.1,0.1,0.1,0.2c0.3,0.3,0.7,0.5,1.3,0.8
		c1.4,0.5,2,1.2,2,2.4C37.5,54.5,37.3,55,36.9,55.4z"/>
	<path class="st4" d="M41.1,49.7c-0.1-0.2-0.2-0.4-0.3-0.6c0-0.1-0.1-0.2-0.1-0.3C40.8,49.1,41,49.4,41.1,49.7z"/>
	<path class="st4" d="M29.3,48.8C29.3,48.8,29.3,48.8,29.3,48.8L29.3,48.8C29.3,48.8,29.3,48.8,29.3,48.8z"/>
	<path class="st4" d="M32.3,46.1c-0.7,0.3-1.3,0.8-1.9,1.3C31,46.9,31.6,46.4,32.3,46.1z"/>
	<path class="st4" d="M41.3,53.8c-0.1,0.4-0.2,0.8-0.4,1.2C41.1,54.6,41.2,54.2,41.3,53.8z"/>
</g>
</svg>
