<?xml version="1.0" encoding="utf-8"?>
<!-- Generator: Adobe Illustrator 26.0.0, SVG Export Plug-In . SVG Version: 6.00 Build 0)  -->
<svg version="1.1" id="Шар_1" xmlns="http://www.w3.org/2000/svg" xmlns:xlink="http://www.w3.org/1999/xlink" x="0px" y="0px"
	 viewBox="0 0 100 70" style="enable-background:new 0 0 100 70;" xml:space="preserve">
<style type="text/css">
	.st0{fill:#FDCE00;}
	.st1{fill:#B2B2B3;}
	.st2{fill:#3F53A1;}
	.st3{fill:#95B51F;}
	.st4{fill-rule:evenodd;clip-rule:evenodd;fill:#ED1C24;}
	.st5{fill:#1B4392;}
	.st6{fill-rule:evenodd;clip-rule:evenodd;fill:url(#SVGID_1_);}
	
		.st7{opacity:0.4;fill-rule:evenodd;clip-rule:evenodd;fill:url(#SVGID_00000018957749671241387610000017879088262951053482_);enable-background:new    ;}
	
		.st8{opacity:0.4;fill-rule:evenodd;clip-rule:evenodd;fill:url(#SVGID_00000074442745073114971610000004817864914371161216_);enable-background:new    ;}
	.st9{fill-rule:evenodd;clip-rule:evenodd;fill:url(#SVGID_00000138564057723627045280000006325744205541601170_);}
	.st10{fill-rule:evenodd;clip-rule:evenodd;fill:url(#SVGID_00000140697071658713975610000014677144536272742539_);}
	
		.st11{opacity:0.4;fill-rule:evenodd;clip-rule:evenodd;fill:url(#SVGID_00000076584027934673123070000005165377234489117851_);enable-background:new    ;}
	
		.st12{opacity:0.4;fill-rule:evenodd;clip-rule:evenodd;fill:url(#SVGID_00000088840555809286346080000002323338330236852407_);enable-background:new    ;}
	.st13{fill-rule:evenodd;clip-rule:evenodd;fill:url(#SVGID_00000037661850781987325150000003889990459989394833_);}
	.st14{fill-rule:evenodd;clip-rule:evenodd;}
	.st15{fill-rule:evenodd;clip-rule:evenodd;fill:#3C4043;}
	.st16{fill:#4285F4;}
	.st17{fill:#34A853;}
	.st18{fill:#FBBC04;}
	.st19{fill:#EA4335;}
</style>
<g>
	<path class="st15" d="M46.1,46.6V34.5h6.2c2.6,0,4.7-0.9,6.5-2.5l0.4-0.4c3.2-3.5,3-8.9-0.4-12.2c-1.7-1.7-4.1-2.6-6.5-2.6h-10
		v29.8H46.1z M46.1,30.9V20.5h6.3c1.4,0,2.6,0.5,3.6,1.5c2,2,2.1,5.3,0.1,7.4c-1,1-2.3,1.6-3.7,1.5H46.1z M76.9,27.8
		c-1.6-1.5-3.8-2.3-6.6-2.3c-3.6,0-6.3,1.3-8.1,4l3.3,2.1c1.2-1.8,2.9-2.7,5-2.7c1.3,0,2.6,0.5,3.6,1.4c1,0.9,1.5,2.1,1.5,3.4v0.9
		c-1.5-0.8-3.3-1.2-5.5-1.2c-2.6,0-4.7,0.6-6.3,1.9c-1.6,1.3-2.4,2.9-2.4,5c0,1.9,0.8,3.8,2.2,5c1.5,1.3,3.4,2,5.6,2
		c2.6,0,4.7-1.2,6.2-3.5h0.2v2.8h3.6V34C79.3,31.4,78.5,29.3,76.9,27.8z M66.6,42.9c-0.8-0.6-1.2-1.5-1.2-2.5c0-1.1,0.5-2,1.5-2.8
		c1-0.7,2.3-1.1,3.8-1.1c2.1,0,3.8,0.5,4.9,1.4c0,1.6-0.6,3-1.9,4.2c-1.1,1.1-2.6,1.8-4.2,1.8C68.5,43.9,67.5,43.5,66.6,42.9z
		 M87.4,55.6L100,26.2h-4.1l-5.8,14.7H90l-6-14.7h-4.1l8.3,19.1l-4.7,10.3H87.4z"/>
	<path class="st16" d="M33.1,31.9c0-1.2-0.1-2.3-0.3-3.5H16.9V35H26c-0.4,2.1-1.6,4-3.4,5.2v4.3h5.4C31.3,41.6,33.1,37.2,33.1,31.9z
		"/>
	<path class="st17" d="M16.9,48.7c4.5,0,8.4-1.5,11.2-4.1l-5.4-4.3c-1.5,1-3.5,1.6-5.7,1.6c-4.4,0-8.1-3-9.5-7.1H1.8v4.4
		C4.7,45,10.5,48.7,16.9,48.7z"/>
	<path class="st18" d="M7.4,34.8c-0.7-2.1-0.7-4.4,0-6.6v-4.4H1.8c-2.4,4.8-2.4,10.5,0,15.4L7.4,34.8z"/>
	<path class="st19" d="M16.9,21.2c2.4,0,4.7,0.9,6.5,2.6l4.8-4.9c-3.1-2.9-7.1-4.5-11.3-4.4c-6.4,0-12.2,3.7-15.1,9.4l5.6,4.4
		C8.8,24.2,12.5,21.2,16.9,21.2z"/>
</g>
</svg>
