<?xml version="1.0" encoding="utf-8"?>
<!-- Generator: Adobe Illustrator 26.0.0, SVG Export Plug-In . SVG Version: 6.00 Build 0)  -->
<svg version="1.1" id="Шар_1" xmlns="http://www.w3.org/2000/svg" xmlns:xlink="http://www.w3.org/1999/xlink" x="0px" y="0px"
	 viewBox="0 0 100 70" style="enable-background:new 0 0 100 70;" xml:space="preserve">
<style type="text/css">
	.st0{fill:#FDCE00;}
	.st1{fill:#B2B2B3;}
	.st2{fill:#3F53A1;}
	.st3{fill:#95B51F;}
	.st4{fill-rule:evenodd;clip-rule:evenodd;fill:#ED1C24;}
	.st5{fill:#1B4392;}
	.st6{fill-rule:evenodd;clip-rule:evenodd;fill:url(#SVGID_1_);}
	
		.st7{opacity:0.4;fill-rule:evenodd;clip-rule:evenodd;fill:url(#SVGID_00000127745465555689518080000004675257582148871061_);enable-background:new    ;}
	
		.st8{opacity:0.4;fill-rule:evenodd;clip-rule:evenodd;fill:url(#SVGID_00000036958584028617241550000012041411548074921900_);enable-background:new    ;}
	.st9{fill-rule:evenodd;clip-rule:evenodd;fill:url(#SVGID_00000003819388618543108460000013514308880646478486_);}
	.st10{fill-rule:evenodd;clip-rule:evenodd;fill:url(#SVGID_00000081641345876178007970000005320841255645577635_);}
	
		.st11{opacity:0.4;fill-rule:evenodd;clip-rule:evenodd;fill:url(#SVGID_00000145045907736829887160000005477849593074300566_);enable-background:new    ;}
	
		.st12{opacity:0.4;fill-rule:evenodd;clip-rule:evenodd;fill:url(#SVGID_00000127033845379920176070000014571652220653524395_);enable-background:new    ;}
	.st13{fill-rule:evenodd;clip-rule:evenodd;fill:url(#SVGID_00000158016592089900113020000016557359425383603384_);}
	.st14{fill-rule:evenodd;clip-rule:evenodd;}
	.st15{fill-rule:evenodd;clip-rule:evenodd;fill:#3C4043;}
	.st16{fill:#4285F4;}
	.st17{fill:#34A853;}
	.st18{fill:#FBBC04;}
	.st19{fill:#EA4335;}
</style>
<g>
	<g>
		
			<linearGradient id="SVGID_1_" gradientUnits="userSpaceOnUse" x1="-419.9484" y1="468.9435" x2="-419.2936" y2="469.3552" gradientTransform="matrix(10.2689 0 0 -11.1983 4396.9941 5289.8843)">
			<stop  offset="0" style="stop-color:#1FADC3"/>
			<stop  offset="0.7072" style="stop-color:#36B98F"/>
		</linearGradient>
		<path class="st6" d="M84.2,40.7L84,40.6c-0.6-0.5-0.7-1.3-0.1-1.9l6-6.8c0.5-0.6,1.3-0.7,1.9-0.1l0.2,0.2c0.6,0.5,0.7,1.3,0.1,1.9
			l-6,6.8C85.6,41.2,84.8,41.2,84.2,40.7z"/>
		
			<linearGradient id="SVGID_00000049191826308403809350000010348943022581107870_" gradientUnits="userSpaceOnUse" x1="-271.9066" y1="424.4026" x2="-271.8021" y2="424.6118" gradientTransform="matrix(2.3509 0 0 -5.632 728.1787 2425.0039)">
			<stop  offset="0" style="stop-color:#123F06;stop-opacity:0"/>
			<stop  offset="1" style="stop-color:#123F06"/>
		</linearGradient>
		
			<path style="opacity:0.4;fill-rule:evenodd;clip-rule:evenodd;fill:url(#SVGID_00000049191826308403809350000010348943022581107870_);enable-background:new    ;" d="
			M89,33l-0.1-0.1L88,33.9l0.1,0.1c1.6,1.6,0.9,3.2,0.5,3.7l0.1-0.1c0.2-0.2,0.5-0.6,0.9-1C90,36,90.5,34.5,89,33z"/>
		
			<radialGradient id="SVGID_00000050663347947008258520000017763801473880461205_" cx="19.161" cy="-34.9643" r="4.3183" gradientTransform="matrix(0.926 0 0 -0.9257 69.9218 3.5408)" gradientUnits="userSpaceOnUse">
			<stop  offset="0.4185" style="stop-color:#123F06;stop-opacity:0"/>
			<stop  offset="1" style="stop-color:#123F06"/>
		</radialGradient>
		
			<path style="opacity:0.4;fill-rule:evenodd;clip-rule:evenodd;fill:url(#SVGID_00000050663347947008258520000017763801473880461205_);enable-background:new    ;" d="
			M91,35.1l0.2-0.3c0,0,0-0.1,0.1-0.1c-0.3,0.3-0.5,0.6-0.8,0.9C90.7,35.4,90.8,35.2,91,35.1z"/>
		
			<linearGradient id="SVGID_00000110457638955657875910000017992778011665204123_" gradientUnits="userSpaceOnUse" x1="-419.9501" y1="477.4977" x2="-419.4393" y2="477.0823" gradientTransform="matrix(10.2748 0 0 -13.6661 4399.7866 6553.1919)">
			<stop  offset="0" style="stop-color:#9FDB57"/>
			<stop  offset="1" style="stop-color:#71CA5E"/>
		</linearGradient>
		<path style="fill-rule:evenodd;clip-rule:evenodd;fill:url(#SVGID_00000110457638955657875910000017992778011665204123_);" d="
			M92.1,32l-6-6.8c-0.5-0.6-1.3-0.7-1.9-0.1L84,25.3c-0.6,0.5-0.7,1.3-0.1,1.9l5,5.7L89,33c1.5,1.5,1,3,0.6,3.6
			c0.3-0.3,0.6-0.7,0.9-1c0.3-0.3,0.5-0.6,0.8-0.9c0.3-0.3,0.5-0.6,0.7-0.8C92.5,33.4,92.6,32.6,92.1,32L92.1,32z"/>
		<g>
			
				<linearGradient id="SVGID_00000128471240144223478070000014995857820234484924_" gradientUnits="userSpaceOnUse" x1="-420.06" y1="468.9431" x2="-419.4052" y2="469.3549" gradientTransform="matrix(10.2686 0 0 -11.1983 4405.5742 5289.8843)">
				<stop  offset="0" style="stop-color:#1FADC3"/>
				<stop  offset="0.7072" style="stop-color:#36B98F"/>
			</linearGradient>
			<path style="fill-rule:evenodd;clip-rule:evenodd;fill:url(#SVGID_00000128471240144223478070000014995857820234484924_);" d="
				M91.8,40.7l-0.2-0.2c-0.6-0.5-0.7-1.3-0.1-1.9l6-6.8c0.5-0.6,1.3-0.7,1.9-0.1l0.2,0.2c0.6,0.5,0.7,1.3,0.1,1.9l-6,6.8
				C93.2,41.2,92.4,41.2,91.8,40.7z"/>
			
				<linearGradient id="SVGID_00000005260008266911305460000005847181391708718722_" gradientUnits="userSpaceOnUse" x1="-272.4738" y1="424.4009" x2="-272.3692" y2="424.61" gradientTransform="matrix(2.3518 0 0 -5.632 737.396 2424.929)">
				<stop  offset="0" style="stop-color:#123F06;stop-opacity:0"/>
				<stop  offset="1" style="stop-color:#123F06"/>
			</linearGradient>
			
				<path style="opacity:0.4;fill-rule:evenodd;clip-rule:evenodd;fill:url(#SVGID_00000005260008266911305460000005847181391708718722_);enable-background:new    ;" d="
				M96.6,32.9l-0.1-0.1l-0.9,1.1l0.1,0.1c1.6,1.6,0.9,3.2,0.5,3.7l0.1-0.1c0.2-0.2,0.5-0.6,0.9-1C97.6,35.9,98.1,34.4,96.6,32.9z"/>
			
				<radialGradient id="SVGID_00000025423847832368682740000006187023850007515280_" cx="17.9249" cy="-34.9643" r="4.3183" gradientTransform="matrix(0.926 0 0 -0.9257 78.6338 3.5408)" gradientUnits="userSpaceOnUse">
				<stop  offset="0.4185" style="stop-color:#123F06;stop-opacity:0"/>
				<stop  offset="1" style="stop-color:#123F06"/>
			</radialGradient>
			
				<path style="opacity:0.4;fill-rule:evenodd;clip-rule:evenodd;fill:url(#SVGID_00000025423847832368682740000006187023850007515280_);enable-background:new    ;" d="
				M98.5,35.1l0.2-0.3c0,0,0-0.1,0.1-0.1c-0.3,0.3-0.5,0.6-0.8,0.9C98.2,35.4,98.4,35.2,98.5,35.1z"/>
			
				<linearGradient id="SVGID_00000066514487058920165600000013764024003502164353_" gradientUnits="userSpaceOnUse" x1="-420.0619" y1="477.5002" x2="-419.5511" y2="477.0848" gradientTransform="matrix(10.2748 0 0 -13.6671 4408.4985 6553.707)">
				<stop  offset="0" style="stop-color:#9FDB57"/>
				<stop  offset="1" style="stop-color:#71CA5E"/>
			</linearGradient>
			<path style="fill-rule:evenodd;clip-rule:evenodd;fill:url(#SVGID_00000066514487058920165600000013764024003502164353_);" d="
				M99.7,32l-6-6.8c-0.5-0.6-1.3-0.7-1.9-0.1l-0.2,0.2c-0.6,0.5-0.7,1.3-0.1,1.9l5,5.7l0.1,0.1c1.5,1.5,1,3,0.6,3.6
				c0.3-0.3,0.6-0.7,0.9-1c0.3-0.3,0.5-0.6,0.8-0.9c0.3-0.3,0.5-0.6,0.7-0.8C100.1,33.4,100.2,32.6,99.7,32L99.7,32z"/>
		</g>
	</g>
	<path class="st14" d="M26.5,24.7c1.6,0,2.9,0.3,4.1,1c1.2,0.7,2,1.7,2.7,2.9c0.6,1.2,0.9,2.7,0.9,4.4c0,1.8-0.4,3.4-1.1,4.7
		c-0.7,1.3-1.8,2.3-3.1,2.9c0.7,0.2,1.3,0.8,1.8,1.5l0.8,1.2c0.2,0.3,0.3,0.5,0.3,0.8c0,0.3-0.1,0.6-0.4,0.9c-0.3,0.2-0.6,0.3-1,0.3
		c-0.3,0-0.5-0.1-0.8-0.2c-0.2-0.1-0.4-0.3-0.6-0.6l-1.3-2.2c-0.2-0.4-0.5-0.6-0.8-0.8c-0.3-0.2-0.8-0.3-1.3-0.3c-1.6,0-3-0.3-4.1-1
		c-1.2-0.7-2-1.7-2.7-2.9c-0.6-1.3-0.9-2.7-0.9-4.4c0-1.7,0.3-3.1,0.9-4.4c0.6-1.2,1.5-2.2,2.7-2.9C23.5,25,24.9,24.7,26.5,24.7
		L26.5,24.7z M65.8,24.7c0.4,0,0.7,0.2,1,0.5l4.7,5.8l4.7-5.8c0.3-0.3,0.6-0.5,1-0.5c0.3,0,0.7,0.1,0.9,0.4c0.3,0.3,0.4,0.6,0.4,1
		c0,0.3-0.1,0.6-0.3,0.9l-5.2,6.4v6.4c0,0.5-0.1,0.8-0.4,1.1c-0.3,0.3-0.6,0.4-1.1,0.4c-0.4,0-0.8-0.1-1.1-0.4
		c-0.3-0.3-0.4-0.6-0.4-1.1v-6.4L64.8,27c-0.2-0.3-0.3-0.6-0.3-0.9c0-0.4,0.1-0.7,0.4-1C65.1,24.8,65.4,24.7,65.8,24.7L65.8,24.7z
		 M44.5,24.8c1.7,0,3.1,0.4,4.1,1.3c1,0.9,1.5,2.1,1.5,3.6c0,1.6-0.5,2.8-1.5,3.7c-1,0.9-2.3,1.3-4.1,1.3h-4.1v5
		c0,0.5-0.1,0.8-0.4,1.1c-0.3,0.3-0.6,0.4-1.1,0.4c-0.4,0-0.8-0.1-1.1-0.4c-0.3-0.3-0.4-0.6-0.4-1.1V26.2c0-0.4,0.1-0.8,0.4-1
		c0.3-0.2,0.6-0.4,1.1-0.4H44.5L44.5,24.8z M14.2,24.7c0.4,0,0.8,0.1,1.1,0.4c0.3,0.3,0.4,0.6,0.4,1.1v13.5c0,0.4-0.1,0.8-0.4,1.1
		c-0.3,0.3-0.6,0.4-1.1,0.4c-0.4,0-0.8-0.1-1.1-0.4c-0.3-0.3-0.4-0.6-0.4-1.1V26.2c0-0.4,0.1-0.8,0.4-1.1
		C13.4,24.8,13.8,24.7,14.2,24.7z M57.6,24.7c0.3,0,0.6,0.1,0.9,0.2c0.3,0.2,0.5,0.4,0.6,0.7l6.4,13.7c0.1,0.2,0.1,0.4,0.1,0.6
		c0,0.3-0.1,0.6-0.4,0.9c-0.3,0.2-0.6,0.4-1,0.4c-0.2,0-0.5-0.1-0.7-0.2s-0.4-0.3-0.5-0.6l-1.4-3.1h-8.1l-1.4,3.1
		c-0.1,0.3-0.3,0.5-0.5,0.6c-0.2,0.1-0.4,0.2-0.7,0.2c-0.3,0-0.7-0.1-1-0.4c-0.3-0.2-0.4-0.5-0.4-0.9c0-0.2,0-0.4,0.1-0.6l6.4-13.7
		c0.1-0.3,0.3-0.5,0.6-0.7C57,24.7,57.3,24.7,57.6,24.7L57.6,24.7z M1.5,24.7c0.4,0,0.8,0.1,1.1,0.4C2.9,25.4,3,25.7,3,26.2v12.4
		h6.4c0.9,0,1.4,0.4,1.4,1.2c0,0.8-0.5,1.2-1.4,1.2h-8c-0.4,0-0.8-0.1-1-0.4c-0.2-0.2-0.4-0.6-0.4-1V26.2c0-0.4,0.1-0.8,0.4-1.1
		C0.7,24.8,1,24.7,1.5,24.7z M26.5,27c-1.5,0-2.7,0.5-3.5,1.5c-0.8,1-1.3,2.5-1.3,4.4s0.4,3.4,1.3,4.4c0.8,1,2,1.5,3.5,1.5
		s2.7-0.5,3.5-1.5c0.8-1,1.3-2.5,1.3-4.4c0-1.9-0.4-3.4-1.3-4.4C29.1,27.5,28,27,26.5,27L26.5,27z M57.6,28.1l-3,6.8h6.1L57.6,28.1z
		 M44.1,27.1h-3.7v5.3l3.7,0c2,0,3.1-0.9,3.1-2.7C47.2,28,46.1,27.1,44.1,27.1L44.1,27.1z"/>
</g>
</svg>
