<?xml version="1.0" encoding="utf-8"?>
<!-- Generator: Adobe Illustrator 26.0.0, SVG Export Plug-In . SVG Version: 6.00 Build 0)  -->
<svg version="1.1" id="Шар_1" xmlns="http://www.w3.org/2000/svg" xmlns:xlink="http://www.w3.org/1999/xlink" x="0px" y="0px"
	 viewBox="0 0 100 70" style="enable-background:new 0 0 100 70;" xml:space="preserve">
<style type="text/css">
	.st0{fill:#FDCE00;}
	.st1{fill:#B2B2B3;}
	.st2{fill:#3F53A1;}
	.st3{fill:#95B51F;}
	.st4{fill-rule:evenodd;clip-rule:evenodd;fill:#ED1C24;}
	.st5{fill:#1B4392;}
	.st6{fill-rule:evenodd;clip-rule:evenodd;fill:url(#SVGID_1_);}
	
		.st7{opacity:0.4;fill-rule:evenodd;clip-rule:evenodd;fill:url(#SVGID_00000086660062520799826720000015323456737467654307_);enable-background:new    ;}
	
		.st8{opacity:0.4;fill-rule:evenodd;clip-rule:evenodd;fill:url(#SVGID_00000111170246602729228980000008103044628483347127_);enable-background:new    ;}
	.st9{fill-rule:evenodd;clip-rule:evenodd;fill:url(#SVGID_00000021106213264600562450000013219703342083213232_);}
	.st10{fill-rule:evenodd;clip-rule:evenodd;fill:url(#SVGID_00000071551300790459179940000012476682504616412569_);}
	
		.st11{opacity:0.4;fill-rule:evenodd;clip-rule:evenodd;fill:url(#SVGID_00000114037793047274523290000017348703044310239931_);enable-background:new    ;}
	
		.st12{opacity:0.4;fill-rule:evenodd;clip-rule:evenodd;fill:url(#SVGID_00000094616172360748016310000001536903326840445113_);enable-background:new    ;}
	.st13{fill-rule:evenodd;clip-rule:evenodd;fill:url(#SVGID_00000052099088108063844820000009304522655774502282_);}
	.st14{fill-rule:evenodd;clip-rule:evenodd;}
	.st15{fill-rule:evenodd;clip-rule:evenodd;fill:#3C4043;}
	.st16{fill:#4285F4;}
	.st17{fill:#34A853;}
	.st18{fill:#FBBC04;}
	.st19{fill:#EA4335;}
	.st20{fill:#283E59;}
</style>
<path class="st20" d="M58.1,35.9c0,0.8-0.7,1.5-1.5,1.5s-1.5-0.7-1.5-1.5c0-0.8,0.7-1.5,1.5-1.5S58.1,35.1,58.1,35.9z M56.9,40h5.6
	v7.2h-26V24.7h26v7.2h-5.6c-2.3,0-4.1,1.8-4.1,4.1C52.8,38.2,54.7,40,56.9,40z M60.3,30.7c0-0.1-0.1-0.2-0.2-0.2
	c-0.1,0-0.2,0.1-0.2,0.2v0.4c0,0.1,0.1,0.2,0.2,0.2c0.1,0,0.2-0.1,0.2-0.2V30.7z M60.3,29.3c0-0.1-0.1-0.2-0.2-0.2
	c-0.1,0-0.2,0.1-0.2,0.2v0.4c0,0.1,0.1,0.2,0.2,0.2c0.1,0,0.2-0.1,0.2-0.2V29.3z M60.1,27.7c-0.1,0-0.2,0.1-0.2,0.2v0.4
	c0,0.1,0.1,0.2,0.2,0.2c0.1,0,0.2-0.1,0.2-0.2v-0.4C60.3,27.8,60.2,27.7,60.1,27.7z M59.4,27.1c0,0.1,0.1,0.2,0.2,0.2H60
	c0.1,0,0.2-0.1,0.2-0.2c0-0.1-0.1-0.2-0.2-0.2h-0.4C59.5,26.8,59.4,26.9,59.4,27.1z M58,27.1c0,0.1,0.1,0.2,0.2,0.2h0.4
	c0.1,0,0.2-0.1,0.2-0.2c0-0.1-0.1-0.2-0.2-0.2h-0.4C58.1,26.8,58,26.9,58,27.1z M56.6,27.1c0,0.1,0.1,0.2,0.2,0.2h0.4
	c0.1,0,0.2-0.1,0.2-0.2c0-0.1-0.1-0.2-0.2-0.2h-0.4C56.7,26.8,56.6,26.9,56.6,27.1z M55.3,27.1c0,0.1,0.1,0.2,0.2,0.2h0.4
	c0.1,0,0.2-0.1,0.2-0.2c0-0.1-0.1-0.2-0.2-0.2h-0.4C55.4,26.8,55.3,26.9,55.3,27.1z M53.9,27.1c0,0.1,0.1,0.2,0.2,0.2h0.4
	c0.1,0,0.2-0.1,0.2-0.2c0-0.1-0.1-0.2-0.2-0.2h-0.4C54,26.8,53.9,26.9,53.9,27.1z M38.7,27.1c0,0.1,0.1,0.2,0.2,0.2h0.4
	c0.1,0,0.2-0.1,0.2-0.2c0-0.1-0.1-0.2-0.2-0.2H39C38.8,26.8,38.7,26.9,38.7,27.1z M39.1,44.4c0-0.1-0.1-0.2-0.2-0.2
	c-0.1,0-0.2,0.1-0.2,0.2v0.4c0,0.1,0.1,0.2,0.2,0.2c0.1,0,0.2-0.1,0.2-0.2V44.4z M39.1,43c0-0.1-0.1-0.2-0.2-0.2
	c-0.1,0-0.2,0.1-0.2,0.2v0.4c0,0.1,0.1,0.2,0.2,0.2c0.1,0,0.2-0.1,0.2-0.2V43z M39.1,41.6c0-0.1-0.1-0.2-0.2-0.2
	c-0.1,0-0.2,0.1-0.2,0.2v0.4c0,0.1,0.1,0.2,0.2,0.2c0.1,0,0.2-0.1,0.2-0.2V41.6z M39.1,40.3c0-0.1-0.1-0.2-0.2-0.2
	c-0.1,0-0.2,0.1-0.2,0.2v0.4c0,0.1,0.1,0.2,0.2,0.2c0.1,0,0.2-0.1,0.2-0.2V40.3z M39.1,38.9c0-0.1-0.1-0.2-0.2-0.2
	c-0.1,0-0.2,0.1-0.2,0.2v0.4c0,0.1,0.1,0.2,0.2,0.2c0.1,0,0.2-0.1,0.2-0.2V38.9z M39.1,37.5c0-0.1-0.1-0.2-0.2-0.2
	c-0.1,0-0.2,0.1-0.2,0.2v0.4c0,0.1,0.1,0.2,0.2,0.2c0.1,0,0.2-0.1,0.2-0.2V37.5z M39.1,36.1c0-0.1-0.1-0.2-0.2-0.2
	c-0.1,0-0.2,0.1-0.2,0.2v0.4c0,0.1,0.1,0.2,0.2,0.2c0.1,0,0.2-0.1,0.2-0.2V36.1z M39.1,34.8c0-0.1-0.1-0.2-0.2-0.2
	c-0.1,0-0.2,0.1-0.2,0.2v0.4c0,0.1,0.1,0.2,0.2,0.2c0.1,0,0.2-0.1,0.2-0.2V34.8z M39.1,33.4c0-0.1-0.1-0.2-0.2-0.2
	c-0.1,0-0.2,0.1-0.2,0.2v0.4c0,0.1,0.1,0.2,0.2,0.2c0.1,0,0.2-0.1,0.2-0.2V33.4z M39.1,32c0-0.1-0.1-0.2-0.2-0.2
	c-0.1,0-0.2,0.1-0.2,0.2v0.4c0,0.1,0.1,0.2,0.2,0.2c0.1,0,0.2-0.1,0.2-0.2V32z M39.1,30.6c0-0.1-0.1-0.2-0.2-0.2
	c-0.1,0-0.2,0.1-0.2,0.2v0.4c0,0.1,0.1,0.2,0.2,0.2c0.1,0,0.2-0.1,0.2-0.2V30.6z M39.1,29.2c0-0.1-0.1-0.2-0.2-0.2
	c-0.1,0-0.2,0.1-0.2,0.2v0.4c0,0.1,0.1,0.2,0.2,0.2c0.1,0,0.2-0.1,0.2-0.2V29.2z M39.1,27.9c0-0.1-0.1-0.2-0.2-0.2
	c-0.1,0-0.2,0.1-0.2,0.2v0.4c0,0.1,0.1,0.2,0.2,0.2c0.1,0,0.2-0.1,0.2-0.2V27.9z M40.1,44.8c0-0.1-0.1-0.2-0.2-0.2h-0.4
	c-0.1,0-0.2,0.1-0.2,0.2s0.1,0.2,0.2,0.2h0.4C40,45,40.1,45,40.1,44.8z M40.3,27.3h0.4c0.1,0,0.2-0.1,0.2-0.2c0-0.1-0.1-0.2-0.2-0.2
	h-0.4c-0.1,0-0.2,0.1-0.2,0.2C40.1,27.2,40.2,27.3,40.3,27.3z M41.4,44.8c0-0.1-0.1-0.2-0.2-0.2h-0.4c-0.1,0-0.2,0.1-0.2,0.2
	s0.1,0.2,0.2,0.2h0.4C41.3,45,41.4,45,41.4,44.8z M41.7,27.3h0.4c0.1,0,0.2-0.1,0.2-0.2c0-0.1-0.1-0.2-0.2-0.2h-0.4
	c-0.1,0-0.2,0.1-0.2,0.2C41.5,27.2,41.6,27.3,41.7,27.3z M42.8,44.8c0-0.1-0.1-0.2-0.2-0.2h-0.4c-0.1,0-0.2,0.1-0.2,0.2
	S42,45,42.2,45h0.4C42.7,45,42.8,45,42.8,44.8z M43.1,27.3h0.4c0.1,0,0.2-0.1,0.2-0.2c0-0.1-0.1-0.2-0.2-0.2h-0.4
	c-0.1,0-0.2,0.1-0.2,0.2C42.9,27.2,43,27.3,43.1,27.3z M44.2,44.8c0-0.1-0.1-0.2-0.2-0.2h-0.4c-0.1,0-0.2,0.1-0.2,0.2
	s0.1,0.2,0.2,0.2H44C44.1,45,44.2,45,44.2,44.8z M44.5,27.3h0.4c0.1,0,0.2-0.1,0.2-0.2c0-0.1-0.1-0.2-0.2-0.2h-0.4
	c-0.1,0-0.2,0.1-0.2,0.2C44.2,27.2,44.3,27.3,44.5,27.3z M45.6,44.8c0-0.1-0.1-0.2-0.2-0.2h-0.4c-0.1,0-0.2,0.1-0.2,0.2
	s0.1,0.2,0.2,0.2h0.4C45.5,45,45.6,45,45.6,44.8z M45.8,27.3h0.4c0.1,0,0.2-0.1,0.2-0.2c0-0.1-0.1-0.2-0.2-0.2h-0.4
	c-0.1,0-0.2,0.1-0.2,0.2C45.6,27.2,45.7,27.3,45.8,27.3z M46.9,44.8c0-0.1-0.1-0.2-0.2-0.2h-0.4c-0.1,0-0.2,0.1-0.2,0.2
	s0.1,0.2,0.2,0.2h0.4C46.8,45,46.9,45,46.9,44.8z M47.2,27.3h0.4c0.1,0,0.2-0.1,0.2-0.2c0-0.1-0.1-0.2-0.2-0.2h-0.4
	c-0.1,0-0.2,0.1-0.2,0.2C47,27.2,47.1,27.3,47.2,27.3z M48.3,44.8c0-0.1-0.1-0.2-0.2-0.2h-0.4c-0.1,0-0.2,0.1-0.2,0.2
	s0.1,0.2,0.2,0.2h0.4C48.2,45,48.3,45,48.3,44.8z M48.6,27.3H49c0.1,0,0.2-0.1,0.2-0.2c0-0.1-0.1-0.2-0.2-0.2h-0.4
	c-0.1,0-0.2,0.1-0.2,0.2C48.4,27.2,48.5,27.3,48.6,27.3z M49.7,44.8c0-0.1-0.1-0.2-0.2-0.2H49c-0.1,0-0.2,0.1-0.2,0.2S48.9,45,49,45
	h0.4C49.6,45,49.7,45,49.7,44.8z M50,27.3h0.4c0.1,0,0.2-0.1,0.2-0.2c0-0.1-0.1-0.2-0.2-0.2H50c-0.1,0-0.2,0.1-0.2,0.2
	C49.8,27.2,49.8,27.3,50,27.3z M51.1,44.8c0-0.1-0.1-0.2-0.2-0.2h-0.4c-0.1,0-0.2,0.1-0.2,0.2s0.1,0.2,0.2,0.2h0.4
	C51,45,51.1,45,51.1,44.8z M51.3,27.3h0.4c0.1,0,0.2-0.1,0.2-0.2c0-0.1-0.1-0.2-0.2-0.2h-0.4c-0.1,0-0.2,0.1-0.2,0.2
	C51.1,27.2,51.2,27.3,51.3,27.3z M52.5,44.8c0-0.1-0.1-0.2-0.2-0.2h-0.4c-0.1,0-0.2,0.1-0.2,0.2s0.1,0.2,0.2,0.2h0.4
	C52.4,45,52.5,45,52.5,44.8z M52.7,27.3h0.4c0.1,0,0.2-0.1,0.2-0.2c0-0.1-0.1-0.2-0.2-0.2h-0.4c-0.1,0-0.2,0.1-0.2,0.2
	C52.5,27.2,52.6,27.3,52.7,27.3z M53.8,44.8c0-0.1-0.1-0.2-0.2-0.2h-0.4c-0.1,0-0.2,0.1-0.2,0.2S53,45,53.2,45h0.4
	C53.7,45,53.8,45,53.8,44.8z M55.2,44.8c0-0.1-0.1-0.2-0.2-0.2h-0.4c-0.1,0-0.2,0.1-0.2,0.2s0.1,0.2,0.2,0.2H55
	C55.1,45,55.2,45,55.2,44.8z M56.6,44.8c0-0.1-0.1-0.2-0.2-0.2h-0.4c-0.1,0-0.2,0.1-0.2,0.2s0.1,0.2,0.2,0.2h0.4
	C56.5,45,56.6,45,56.6,44.8z M59.9,40.8c0,0.1,0.1,0.2,0.2,0.2c0.1,0,0.2-0.1,0.2-0.2v-0.4c0-0.1-0.1-0.2-0.2-0.2
	c-0.1,0-0.2,0.1-0.2,0.2V40.8z M59.9,42.1c0,0.1,0.1,0.2,0.2,0.2c0.1,0,0.2-0.1,0.2-0.2v-0.4c0-0.1-0.1-0.2-0.2-0.2
	c-0.1,0-0.2,0.1-0.2,0.2V42.1z M59.9,43.5c0,0.1,0.1,0.2,0.2,0.2c0.1,0,0.2-0.1,0.2-0.2v-0.4c0-0.1-0.1-0.2-0.2-0.2
	c-0.1,0-0.2,0.1-0.2,0.2V43.5z M59.9,44.8c0,0.1,0.1,0.2,0.2,0.2c0.1,0,0.2-0.1,0.2-0.2v-0.4c0-0.1-0.1-0.2-0.2-0.2
	c-0.1,0-0.2,0.1-0.2,0.2V44.8z M58.5,44.8c0,0.1,0.1,0.2,0.2,0.2h0.4c0.1,0,0.2-0.1,0.2-0.2s-0.1-0.2-0.2-0.2h-0.4
	C58.6,44.6,58.5,44.7,58.5,44.8z M57.1,44.8c0,0.1,0.1,0.2,0.2,0.2h0.4c0.1,0,0.2-0.1,0.2-0.2s-0.1-0.2-0.2-0.2h-0.4
	C57.2,44.6,57.1,44.7,57.1,44.8z M59.1,22.8H37.7l-1,1.4h23.4L59.1,22.8z M62.7,32.3h0.8v7.3h-0.8c0,0,0,0,0,0c0,0,0,0,0,0h-5.8
	c-2,0-3.7-1.6-3.7-3.7c0-2,1.6-3.7,3.7-3.7H62.7C62.7,32.3,62.7,32.3,62.7,32.3C62.7,32.3,62.7,32.3,62.7,32.3z M58.6,35.9
	c0-1.1-0.9-1.9-1.9-1.9s-1.9,0.9-1.9,1.9c0,1.1,0.9,1.9,1.9,1.9S58.6,37,58.6,35.9z"/>
</svg>
