<svg width="51" height="32" viewBox="0 0 51 32" fill="none" xmlns="http://www.w3.org/2000/svg">
<rect width="51" height="32" rx="9" fill="white"/>
<path d="M12 25H13.816C14.2078 25 14.5038 25.0813 14.704 25.2376C14.9042 25.4006 15 25.6247 15 25.9165C15 26.2218 14.8962 26.4594 14.68 26.6292C14.4639 26.799 14.1359 26.8871 13.6962 26.8871H13.0962V28H12V25ZM13.0962 26.2827H13.3603C13.5684 26.2827 13.7202 26.2489 13.8006 26.1879C13.8884 26.1269 13.9283 26.0452 13.9283 25.9503C13.9283 25.8555 13.8884 25.7737 13.8165 25.7127C13.7447 25.645 13.6004 25.6179 13.4008 25.6179H13.0888V26.2832H13.0962V26.2827Z" fill="#5FBA46"/>
<path d="M15 26.0488H15.9126V26.3667C15.9997 26.2259 16.0874 26.1343 16.1825 26.0794C16.2775 26.0244 16.389 26 16.5315 26C16.6741 26 16.8331 26.0366 17 26.1038L16.6984 26.6357C16.5876 26.5991 16.4919 26.5808 16.4286 26.5808C16.3018 26.5808 16.1983 26.6235 16.1349 26.7033C16.032 26.8197 15.9839 27.0334 15.9839 27.3455V28H15.0079V26.0488H15Z" fill="#5FBA46"/>
<path d="M17 25H18V25.57H17V25ZM17 25.8279H18V28H17V25.8279Z" fill="#5FBA46"/>
<path d="M18 26H19.016L19.5076 27.2689L20.0157 26H21L19.9206 28H19.0556L18 26Z" fill="#5FBA46"/>
<path d="M22.0238 26.6605L21.0725 26.5886C21.1049 26.4622 21.1617 26.3662 21.2272 26.3003C21.2922 26.2283 21.3901 26.1679 21.52 26.1139C21.6093 26.078 21.7397 26.048 21.8939 26.03C22.0568 26.012 22.2272 26 22.4145 26C22.7154 26 22.9513 26.012 23.138 26.036C23.3171 26.06 23.4713 26.1139 23.5936 26.1923C23.6748 26.2463 23.7484 26.3247 23.7971 26.4206C23.8458 26.5226 23.8701 26.613 23.8701 26.7029V27.5498C23.8701 27.6398 23.8783 27.7121 23.8945 27.7601C23.9107 27.8141 23.9432 27.8745 24 27.9584H23.0649C23.0243 27.9105 23 27.8685 22.9919 27.8441C22.9838 27.8201 22.9675 27.7781 22.9594 27.7237C22.8296 27.8137 22.6991 27.8861 22.5693 27.922C22.3901 27.976 22.1872 28 21.9513 28C21.6423 28 21.4064 27.946 21.2441 27.8377C21.0812 27.7297 21 27.6033 21 27.447C21 27.3026 21.0568 27.1827 21.171 27.0863C21.2846 26.9904 21.5043 26.924 21.8133 26.876C22.1872 26.822 22.4313 26.78 22.5449 26.7616C22.6586 26.7376 22.7728 26.7076 22.8945 26.6717C22.8945 26.5817 22.8701 26.5153 22.8214 26.4793C22.7728 26.4433 22.6835 26.4254 22.553 26.4254C22.3901 26.4254 22.2684 26.4433 22.1872 26.4853C22.1212 26.5222 22.0643 26.5766 22.0238 26.6605ZM22.8933 27.0452C22.7554 27.0812 22.6168 27.1112 22.4626 27.1411C22.2591 27.1831 22.1293 27.2191 22.0806 27.2615C22.0238 27.3035 21.9994 27.3455 21.9994 27.3999C21.9994 27.4598 22.0238 27.5078 22.0806 27.5442C22.1374 27.5802 22.2186 27.5982 22.3246 27.5982C22.4383 27.5982 22.5362 27.5802 22.6336 27.5382C22.731 27.4963 22.7965 27.4483 22.8371 27.3939C22.8777 27.3339 22.8939 27.2615 22.8939 27.1716V27.0452H22.8933Z" fill="#5FBA46"/>
<path d="M25.3999 25V25.8151H25.9667V26.4164H25.3999V27.1715C25.3999 27.2649 25.4082 27.3254 25.4332 27.3521C25.4664 27.3988 25.5247 27.4188 25.6084 27.4188C25.6833 27.4188 25.792 27.3988 25.9251 27.3654L26 27.9333C25.7499 27.98 25.508 28 25.2917 28C25.0333 28 24.8503 27.9733 24.7249 27.92C24.6084 27.8666 24.5163 27.7861 24.4581 27.6794C24.3999 27.5727 24.3749 27.3988 24.3749 27.1582V26.4035H24V25.8023H24.3749V25.4212L25.3999 25Z" fill="#5FBA46"/>
<path d="M26.0063 25H27.8844C28.1998 25 28.4346 25.0747 28.6036 25.2177C28.7725 25.3608 28.853 25.5373 28.853 25.7483C28.853 25.9253 28.7945 26.0815 28.6768 26.2042C28.5962 26.2856 28.4786 26.354 28.3248 26.4083C28.5596 26.4627 28.7286 26.5514 28.8384 26.6736C28.9482 26.8031 29 26.9593 29 27.1499C29 27.3065 28.9634 27.4491 28.8828 27.5718C28.8023 27.694 28.6993 27.7963 28.5601 27.8642C28.4796 27.9117 28.3473 27.9389 28.1789 27.9593C27.9514 27.9864 27.8049 28 27.7312 28H26V25H26.0063ZM27.0188 26.1838H27.4519C27.6062 26.1838 27.716 26.1566 27.7746 26.1091C27.8332 26.0616 27.8698 25.9869 27.8698 25.8914C27.8698 25.8031 27.8405 25.7347 27.7746 25.6872C27.716 25.6397 27.6056 25.6125 27.4519 25.6125H27.0115V26.1838H27.0188ZM27.0188 27.3603H27.5324C27.7087 27.3603 27.8258 27.3332 27.8991 27.2721C27.9723 27.2178 28.0016 27.1358 28.0016 27.0407C28.0016 26.9525 27.965 26.8773 27.8991 26.8298C27.8258 26.7755 27.7082 26.7483 27.5324 26.7483H27.0262V27.3603H27.0188Z" fill="#5FBA46"/>
<path d="M30.0238 26.6605L29.0725 26.5886C29.1049 26.4622 29.1617 26.3662 29.2272 26.3003C29.2922 26.2283 29.3901 26.1679 29.52 26.1139C29.6093 26.078 29.7397 26.048 29.8939 26.03C30.0568 26.012 30.2272 26 30.4145 26C30.7154 26 30.9513 26.012 31.138 26.036C31.3171 26.06 31.4713 26.1139 31.5936 26.1923C31.6748 26.2463 31.7484 26.3247 31.7971 26.4206C31.8458 26.5226 31.8701 26.613 31.8701 26.7029V27.5498C31.8701 27.6398 31.8783 27.7121 31.8945 27.7601C31.9107 27.8141 31.9432 27.8745 32 27.9584H31.0649C31.0243 27.9105 31 27.8685 30.9919 27.8441C30.9838 27.8201 30.9675 27.7781 30.9594 27.7237C30.8296 27.8137 30.6991 27.8861 30.5693 27.922C30.3901 27.976 30.1872 28 29.9513 28C29.6423 28 29.4064 27.946 29.2441 27.8377C29.0812 27.7297 29 27.6033 29 27.447C29 27.3026 29.0568 27.1827 29.171 27.0863C29.2852 26.9899 29.5043 26.924 29.8133 26.876C30.1872 26.822 30.4313 26.78 30.5449 26.7616C30.6586 26.7376 30.7728 26.7076 30.8945 26.6717C30.8945 26.5817 30.8701 26.5153 30.8215 26.4793C30.7728 26.4433 30.6835 26.4254 30.553 26.4254C30.3901 26.4254 30.2684 26.4433 30.1872 26.4853C30.1136 26.5222 30.0643 26.5766 30.0238 26.6605ZM30.8939 27.0452C30.7559 27.0812 30.6174 27.1112 30.4632 27.1411C30.2597 27.1831 30.1299 27.2191 30.0812 27.2615C30.0243 27.3035 30 27.3455 30 27.3999C30 27.4598 30.0243 27.5078 30.0812 27.5442C30.138 27.5802 30.2191 27.5982 30.3252 27.5982C30.4388 27.5982 30.5368 27.5802 30.6342 27.5382C30.7316 27.4963 30.7971 27.4483 30.8377 27.3939C30.8783 27.3339 30.8945 27.2615 30.8945 27.1716V27.0452H30.8939Z" fill="#5FBA46"/>
<path d="M32 26.0487H32.6726V26.3655C32.7727 26.2373 32.8732 26.1399 32.9792 26.0852C33.0793 26.0304 33.2093 26 33.3569 26C33.5575 26 33.7169 26.0608 33.8288 26.183C33.9407 26.3051 34 26.4937 34 26.7562V28H33.2744V26.927C33.2744 26.8049 33.2509 26.7197 33.2097 26.6649C33.1685 26.6163 33.1037 26.5858 33.0267 26.5858C32.9384 26.5858 32.8673 26.6223 32.8143 26.6893C32.7613 26.7562 32.7319 26.8783 32.7319 27.0613V28H32.0063V26.0491H32V26.0487Z" fill="#5FBA46"/>
<path d="M35 25H36.0078V26.5542L36.7361 25.8279H37.9441L37.0241 26.5881L38 28H36.8958L36.3757 27.1315L36.0078 27.4368V28H35V25Z" fill="#5FBA46"/>
<path d="M22 16H15V23H22V16Z" fill="#231F20"/>
<path d="M15 4V13.2444H16.9669C22.1358 13.2444 24.7556 15.8642 24.7556 21.0331V23H34V4H15ZM30.0738 7.93332C30.0738 10.454 30.0738 16.5526 30.0738 19.0733C29.3636 19.0733 29.2432 19.0733 28.5614 19.0733C27.9079 13.5638 24.4433 10.0986 18.9338 9.44571C18.9338 8.75683 18.9338 8.63637 18.9338 7.92623C21.454 7.93332 27.5531 7.93332 30.0738 7.93332Z" fill="#5FBA46"/>
</svg>
