<svg width="59" height="60" viewBox="0 0 59 60" fill="none" xmlns="http://www.w3.org/2000/svg">
<path d="M59 29.7885C59.0044 35.1898 57.5094 40.4868 54.681 45.0914C51.8526 49.6961 47.8013 53.4283 42.9769 55.874C38.1525 58.3197 32.7436 59.3831 27.3504 58.9463C21.9573 58.5094 16.7909 56.5893 12.4246 53.3992L14.0014 59.56L12.3059 60L10.4408 52.7052L10.1357 51.6051L10 51.0804L11.509 50.6911H11.6616L18.9522 48.8294L19.3592 50.5219L13.1706 52.1298C17.2948 55.1765 22.1856 57.0201 27.2978 57.4551C32.41 57.8901 37.5429 56.8994 42.1242 54.5935C46.7055 52.2876 50.5554 48.7569 53.2447 44.3951C55.934 40.0333 57.3571 35.0118 57.3554 29.89C57.3572 28.071 57.1754 26.2565 56.8128 24.4739C57.3415 24.3669 57.8582 24.2082 58.3557 24C58.7631 25.9032 58.9789 27.8424 59 29.7885Z" fill="#565656"/>
<path d="M49 8.91697L47.6757 9.16749H47.3192L39.9169 10.5367L39.6113 8.86688L45.927 7.69801C41.8025 4.66427 36.9004 2.82044 31.7703 2.37324C26.6401 1.92604 21.4847 2.89314 16.882 5.16614C12.2794 7.43914 8.41138 10.9282 5.71178 15.2421C3.01217 19.556 1.58762 24.5241 1.59789 29.5897C1.60414 31.1919 1.75759 32.7904 2.05632 34.3655C1.52677 34.5115 1.01879 34.7248 0.54527 35C-0.287156 30.8205 -0.165184 26.5112 0.902308 22.3837C1.9698 18.2561 3.95617 14.4133 6.71792 11.133C9.47967 7.85266 12.9478 5.21668 16.8718 3.41552C20.7957 1.61436 25.0774 0.693049 29.4076 0.718072C35.691 0.706025 41.809 2.69812 46.8438 6.39554L45.6044 0.317275L47.3022 0L48.6944 7.28055L48.8472 8.09876L49 8.91697Z" fill="#565656"/>
<path d="M26.4355 38H23.7197V30.5645C23.7197 30.3594 23.7227 30.1074 23.7285 29.8086C23.7344 29.5039 23.7432 29.1934 23.7549 28.877C23.7666 28.5547 23.7783 28.2646 23.79 28.0068C23.7256 28.083 23.5938 28.2148 23.3945 28.4023C23.2012 28.584 23.0195 28.748 22.8496 28.8945L21.373 30.0811L20.0635 28.4463L24.2031 25.1504H26.4355V38ZM39.2939 35.3369H37.7471V38H35.0928V35.3369H29.6084V33.4473L35.2422 25.1504H37.7471V33.2275H39.2939V35.3369ZM35.0928 33.2275V31.0479C35.0928 30.8428 35.0957 30.5996 35.1016 30.3184C35.1133 30.0371 35.125 29.7559 35.1367 29.4746C35.1484 29.1934 35.1602 28.9443 35.1719 28.7275C35.1895 28.5049 35.2012 28.3496 35.207 28.2617H35.1367C35.0254 28.502 34.9082 28.7363 34.7852 28.9648C34.6621 29.1875 34.5186 29.4219 34.3545 29.668L31.999 33.2275H35.0928Z" fill="#565656"/>
</svg>
